<?xml version="1.0" standalone="no"?>
<!DOCTYPE svg PUBLIC "-//W3C//DTD SVG 1.1//EN" "http://www.w3.org/Graphics/SVG/1.1/DTD/svg11.dtd" >
<svg xmlns="http://www.w3.org/2000/svg">
<metadata>
This is a custom SVG webfont generated by Font Squirrel.
Copyright   : Amazingmax
</metadata>
<defs>
<font id="AmazHandFirstRegular" horiz-adv-x="1226" >
<font-face units-per-em="2048" ascent="1638" descent="-410" />
<missing-glyph horiz-adv-x="761" />
<glyph unicode=" "  horiz-adv-x="761" />
<glyph unicode="&#x09;" horiz-adv-x="761" />
<glyph unicode="&#xa0;" horiz-adv-x="761" />
<glyph unicode="!" horiz-adv-x="425" d="M59 254l13 37l-13 12v12l50 320l-13 12v12l49 99l-12 12v25q37 119 62 123h49l24 -25v-49l13 -111l-13 -37l37 -135l-12 -12v-12l12 -13l-24 -135l12 -49l-25 -111l13 -36q-25 0 -25 -136q-86 -92 -86 -258l-12 -12h-37q-25 0 -37 111l12 110l-12 12v13l12 12v12z M121 -569q0 137 86 258q139 0 172 -221l12 -50q0 -96 -135 -147q-119 0 -135 160z" />
<glyph unicode="&#x22;" horiz-adv-x="851" d="M121 588l37 258l-37 147l49 37h37q172 -160 172 -258v-74q-68 -283 -148 -282h-36l-37 37l12 12zM526 526q25 23 25 172l12 13q31 147 49 147l-12 12v37q0 68 74 111h24q61 -43 62 -74l-25 -98q49 -18 49 -86v-62l-12 -49l12 -49q-20 0 -73 -147q-51 0 -99 -37h-12 q-31 -1 -74 110z" />
<glyph unicode="#" horiz-adv-x="1275" d="M-20 -8q47 98 184 98h123l37 25l-13 12v12l49 160l-172 172v37l37 37h25l147 -37h13l98 246q117 330 160 331h12l61 -24v-74q-39 -221 -61 -221l12 -12v-13l-61 -184v-37l86 -12h24q221 0 258 61l-12 13v12q0 25 37 24l-12 50q12 49 49 49v49l24 86l-12 12v13 q23 74 37 73l-12 13v12q29 160 86 160q55 -25 61 -50v-12l-12 -12l12 -12v-13q-2 -147 -74 -295l13 -86l-49 -184l24 -25v-12l-37 -49q49 0 49 -25v-36l-12 -13l12 -12v-12l-49 -49h-73l-62 -185q197 -12 197 -61v-25h-25q0 -68 -74 -98q0 -27 -135 -74l-86 -61l-12 -74 l25 -25q-27 -6 -123 -221q-20 0 -74 -86h-25q-55 25 -61 49v25l86 283h-74l-49 -13l-12 13h-13l-12 -13l-86 13h-49l-25 -25l25 -25l-86 -73v-99q0 -61 -25 -61l37 -147l-37 -25h-24q-25 0 -25 49h-24v37l-13 49l25 98l-12 37l12 49l-25 99l25 147q-165 0 -233 197zM139 -82 l86 -49h13l24 98h-12q-111 -20 -111 -49zM483 -119l13 -12l12 12h12l12 -12h13l98 25h74l37 36q0 25 -99 25v12l-12 -12h-25l-12 12q-123 -49 -123 -86zM557 90l25 -24h135l74 -13l49 13v61l24 86h-12l-74 25h-221v-148z" />
<glyph unicode="$" horiz-adv-x="1466" d="M29 465v37q61 190 98 233q190 78 270 172v13h-24l-37 -25h-12q23 123 98 123l37 -49v-86h24l246 37v36l-24 37v13l61 73h12v-37q0 -37 99 -184l24 25l-12 12h-12q23 86 49 86q135 -156 135 -246v-12q-31 0 -37 -49l12 -12l-12 -62v-37l12 -49l-49 -147q258 0 332 -123 q6 -70 37 -111v-98q-57 -283 -283 -283q0 -14 -74 -24v-13q0 -100 37 -172l-12 -12v-12l37 -172q-12 -98 -37 -99q-80 0 -135 136l12 49h12l13 -13h12l25 25q-33 66 -50 221q-37 61 -159 62h-111v-13l62 -295q29 0 36 -110v-25l-24 -24h-49q-39 0 -74 184l12 12 q-18 0 -74 234q-12 35 -344 73l-49 13l-12 12v12h12l-12 13v24l98 12q135 -37 234 -36l24 110l-12 37h12q-37 74 -37 258h-98q-233 0 -270 148q-31 0 -49 98zM176 539q16 -86 37 -86h98q98 0 99 73v37q-27 35 -50 148h-49q-123 -55 -123 -172h-12zM496 600q25 0 36 -135 q53 -25 197 -25h25l12 13h12q-25 319 -86 319l-110 12l-62 -12v-74zM557 35q29 0 37 -111l-12 -12q25 0 24 -62h12q233 23 234 87q-55 283 -86 282l-61 12l-123 -12h-13zM864 674q10 -86 37 -86h12v12l-12 49l12 37l-12 49h-24zM926 231l24 -270v-12h49q109 49 197 209 q-37 43 -197 86h-73v-13zM1073 -137v-13h37q49 0 147 123l-12 37h-12q0 -43 -160 -147z" />
<glyph unicode="%" horiz-adv-x="1699" d="M29 408q0 381 331 380q225 0 308 -110q47 0 159 -160q-70 -270 -393 -270l-49 -12h-25q-331 39 -331 172zM78 432l24 -24q66 37 123 36q0 -41 62 -61v-12l61 12h74l37 -25q0 20 196 86v13q0 186 -245 209l-160 -62h-37q0 -68 -61 -86l-50 12zM152 616l49 37v13h-25 l-24 -25v-25zM557 -244q49 68 61 148l639 688l259 233l49 37h37l24 -24q0 -61 -24 -62l12 -12v-25q0 -29 -430 -405q0 -25 -344 -369q-156 -172 -209 -196l-13 -13v-12h37v-25l-37 -12l-36 12v-12l12 -37h-12q-25 0 -25 37l12 12v13l-12 12v12zM999 -72q139 221 271 222h98 q190 0 295 -308v-24q0 -141 -209 -185q-82 0 -369 123q-45 0 -86 86l13 37zM1110 -47v-12q47 -147 172 -148l74 -12h98q61 25 62 86q-80 111 -259 110h-98z" />
<glyph unicode="&#x26;" horiz-adv-x="1189" d="M29 -254q0 80 49 148l-12 12v12l12 12l-12 13v37q25 139 147 405l-74 246h13l-13 37l25 37l-12 12v61q0 115 208 209l172 37h99q283 -31 282 -160l13 -12v-12q-25 0 -25 -74q-20 -57 -479 -467q0 -25 283 -233q4 -27 147 -123q31 16 135 233h37q68 0 98 -61 q-25 0 -37 -74l13 -12l-111 -197l25 -49l-62 -74q96 0 135 -74q-33 -147 -61 -147h-25l-147 147q-45 0 -172 -110l-197 -111l-73 13l-13 -13q0 25 -98 25q-154 92 -233 221l12 12v13q-49 24 -49 61zM176 -217q35 -135 160 -135h12q268 78 344 147l-258 258q-74 123 -123 123 q-82 -147 -110 -147l12 -62h-12l12 -12v-61l-25 -37l13 -62l-13 -12h-12zM213 692q61 -98 74 -172h24l172 172q74 49 135 49l74 -24q86 109 86 147q0 37 -221 62h-49q-258 -49 -258 -160l-37 -49v-25zM434 -487h25q90 0 110 61h-24q-58 0 -111 -61z" />
<glyph unicode="'" horiz-adv-x="274" d="M12 881v24l37 37h49q98 -74 99 -147l-13 -13l25 -221l-12 -12h-13l13 -12l-13 -50v-24h13l-13 -86v-98l-73 -37h-13q-27 0 -49 98l12 12v13l-12 12l25 233v13l12 12q0 56 -74 246z" />
<glyph unicode="(" horiz-adv-x="606" d="M31 39l12 12l-12 12q10 111 24 111l-12 12v74q49 365 221 651q16 70 172 222h13q92 0 159 -185l-49 -49h-24l-37 37l-86 -49l12 -62l-172 -295q-61 -238 -62 -344v-86q0 -147 172 -479v-24l-12 -13v-12l25 -25v-24l-13 -135l13 -13v-12l-13 -12v-13l13 -49l-111 -73h-12 q-98 86 -197 503l-24 185v135zM178 -281v-12l49 -196h37v12q-33 196 -86 196z" />
<glyph unicode=")" horiz-adv-x="331" d="M12 -475q25 0 49 74q37 0 37 86h13l-13 12v12q12 123 37 123l-12 12v13l49 245l-12 13v24l12 74l-12 12v13q10 86 24 86l-12 12v221l-61 221q10 74 24 74l-12 12v13l12 36q-74 90 -74 172l37 25h13q135 0 159 -332q0 -57 25 -86l-12 -37l24 -233v-25q0 -25 -37 -24 l25 -99q-33 -98 -49 -356h-13l13 -37l-13 -184l13 -12v-13q-25 -55 -25 -159v-74h-74l-49 -74h-12q-74 41 -74 160z" />
<glyph unicode="*" horiz-adv-x="983" d="M31 924l12 12l-12 12v99l37 36q109 0 294 -147h13v12l-13 86l62 37q90 0 147 -160q53 0 271 136q86 -23 86 -50v-12q-14 -78 -160 -172l-61 -49l12 -12v-25l-25 -37l148 -110v-25l-86 -61l-148 12v-12q-8 -61 -37 -62h-24q-37 18 -86 172l-62 37q-37 0 -98 -123h-61 l-25 25v73q0 68 74 111q-37 39 -37 147l-86 25v-12q0 -66 -37 -74h-37q-36 0 -61 111z" />
<glyph unicode="+" horiz-adv-x="1085" d="M61 -10v61q0 61 283 123l12 12l50 13l-13 98l13 12l-13 62v49l37 49q-86 0 -86 25v36q29 27 49 148l62 12q98 -23 98 -147l-12 -13q29 0 73 -245l-12 -13v-12l12 -37h50q369 -31 368 -98v-12q0 -41 -295 -99l-73 -12l-13 -12v-13q0 -209 49 -294q-20 -86 -135 -86 q-74 119 -123 307h13q0 61 -62 61l-110 49q-119 -35 -148 -61q-74 12 -74 37z" />
<glyph unicode="," horiz-adv-x="323" d="M-104 -803q0 61 86 123l147 221l-12 13v12l12 61l-25 148l13 12l-13 12l13 13h73q98 -53 99 -222v-24q0 -66 -307 -418l-50 -12z" />
<glyph unicode="-" horiz-adv-x="1089" d="M29 195q0 41 467 86l12 12l12 -12q209 49 393 61l25 25q111 -25 111 -86q-27 0 -62 -99l-455 -135q-160 6 -159 25q-55 -37 -197 -37q-147 0 -147 160z" />
<glyph unicode="." horiz-adv-x="342" d="M18 -305q61 74 160 74h12q86 -49 86 -99q-27 -147 -98 -147l-12 -12h-49q-63 27 -86 110l12 37l-25 25v12z" />
<glyph unicode="/" horiz-adv-x="890" d="M37 -180q23 6 270 540q152 354 307 578q61 84 62 160q37 0 37 73l98 37h25q25 0 24 -37l-24 -73l24 -37q-63 -39 -86 -111l12 -37q-74 -168 -147 -270l12 -12q-20 0 -110 -172l-332 -627q-37 -74 -160 -74l-12 13v49z" />
<glyph unicode="0" horiz-adv-x="987" d="M37 -193l24 246l-12 13v12q25 53 37 270l-12 49q41 227 123 295q129 86 295 111q233 -74 331 -258q74 -154 74 -283v-24l-12 -13l24 -123q-80 -393 -172 -503q-98 -221 -258 -222h-86l-282 148q-74 74 -74 135v147zM147 90q0 -295 172 -528q252 0 418 454l13 86l-13 37 h13q-25 182 -136 344l-147 74h-98l-123 -61l12 -13v-12q-20 -2 -111 -332l13 -37z" />
<glyph unicode="1" horiz-adv-x="776" d="M29 348q0 61 86 123q0 29 368 455q49 123 123 123h12l62 -62l-25 -37l62 -110l-62 -320l13 -12l-13 -62l13 -12v-12l-25 -74l12 -37l-24 -98l12 -12l-12 -62v-12l12 -74l-25 -98l13 -12l-25 -25v-74l-24 -135v-12l24 -135v-49l-24 -25q-98 0 -99 221q0 35 -73 98l-13 111 h13l-13 12l13 62v86l12 110l-12 13l24 147l-12 12v13l12 86h-12l-86 -49l24 -74l-73 -25l-49 37l-74 -49h-86z" />
<glyph unicode="2" horiz-adv-x="749" d="M12 -358l25 36l-12 13v12q170 127 282 602q104 43 111 111l-12 12l12 61v99l-12 86h12q-57 295 -111 295q-111 -55 -110 -185v-36l12 -74q-18 -49 -37 -49h-25q-43 0 -73 135v86q12 121 147 233q0 29 86 37q139 0 209 -307l-12 -12v-13l24 -159h-12l12 -13l-12 -61v-111 q0 -197 -61 -196l12 -13v-36l-172 -431h12l209 50l12 -13h13l98 25q0 -25 49 -25l12 -12v-12q-39 -135 -159 -135q-322 -86 -430 -86q-83 31 -99 86z" />
<glyph unicode="3" horiz-adv-x="858" d="M31 -410q0 100 135 222l37 49q86 -12 86 -37v-37q-123 -133 -123 -197v-36q55 -86 123 -86h37l110 61h62q0 37 49 37q0 31 86 123q61 131 61 209q0 209 -209 208h-61q-51 0 -123 -61h-37l-74 74l13 49l-13 37q53 14 123 196l-12 13v24q49 25 49 123q61 45 62 135l-13 13 l-12 -13h-12l-49 13l-13 -13h-12q-270 63 -270 99v24q0 25 37 25q0 111 147 110q246 61 442 148q111 -18 111 -74q-8 -147 -172 -295v-37l12 -12v-12l-159 -406q369 -53 368 -368v-13q-37 -221 -147 -356q-76 -86 -283 -172h-98q-217 0 -258 209v24z" />
<glyph unicode="4" horiz-adv-x="722" d="M25 -20q61 0 221 761l61 62h62q68 0 86 -49l-25 -37l12 -12v-13q0 -20 -61 -74l-135 -540v-12l233 -62v25l-12 37l12 61v37l-12 110l12 13v12l-12 37l12 61l-12 13v12l12 12v12l-12 111v37l37 37h61l25 -25l-12 -12v-12q49 0 49 -246h-13l25 -148l-12 -12v-12l24 -74 l-12 -12l25 -197l-50 -74v-73l25 -25l-25 -184l13 -86q-18 0 -62 -86h-37q-51 0 -73 209l24 24l-12 74l12 12l-12 13v12l12 12q0 197 -147 197h-25v12l-12 -12l-62 12h-36q0 -49 -86 -49q-27 4 -86 74v37z" />
<glyph unicode="5" horiz-adv-x="991" d="M78 385l12 37l-12 110v62l12 12l-12 12v87q0 31 49 36l86 -24l147 37h197l197 12l86 -37l12 12l61 -98l-36 -49q-82 0 -123 49l-13 -12h-12l-37 12q-113 -160 -368 -160q0 -25 -74 -37v-36q4 -61 24 -62l-12 -61q18 -135 111 -221h12q170 74 221 73h148q184 -70 184 -221 v-49q0 -147 -209 -320l-270 -98q-74 25 -74 49v25q0 55 86 123q0 29 209 270l12 12v13l-74 73h-12q-92 0 -307 -245l-74 -13q-86 53 -86 99q0 86 -24 86l12 61l-25 197l13 12v12l-25 25l12 12v12zM213 606h12l37 12v13l-49 12v-37zM299 29l12 -37l37 12v25h-24l-13 12z M643 -328l12 -12v-12q160 104 160 209h-12q-43 -7 -160 -185z" />
<glyph unicode="6" horiz-adv-x="845" d="M47 -201q0 98 74 185v110l-62 74v12q61 31 99 295l12 98q61 74 86 160l86 49q115 0 197 -159q-20 -86 -50 -86h-12q-74 61 -74 98h-36l-148 -270q16 -86 37 -86h12l148 36h110q233 -49 234 -135l12 -12h12q0 -373 -344 -492l-172 -36v12l-12 -12h-12l-13 12l-12 -12h-12 q-160 30 -160 159zM207 82q43 -233 196 -234q68 0 197 111q0 160 -258 160q-86 0 -135 -37z" />
<glyph unicode="7" horiz-adv-x="868" d="M41 727v37q152 82 565 203h37q111 0 172 -86v-50q0 -80 -147 -83q-98 -82 -136 -279h13l-13 -190v-13l-24 -135l-12 -170q12 11 28 11q36 0 94 -50v-12q0 -61 -122 -146v-223l12 -73l-62 -148q0 -49 -36 -49h-25q-61 33 -61 98h12l-12 13v12l12 49l-12 190h12 q0 65 -55 65q-39 0 -105 -32l-80 96q96 160 252 160q35 33 74 598l12 12l-12 37l12 74l-12 12h-12l-168 -45q-101 -25 -148 -25q-41 0 -41 19l37 62v24q-49 0 -49 37zM348 721q29 27 148 61v13h-50q-51 -37 -98 -37v-37z" />
<glyph unicode="8" horiz-adv-x="657" d="M31 -336q0 143 221 406l12 61q-111 160 -196 430q68 344 417 344q84 0 136 -98l12 -12h12l-12 -62v-110l-74 -369q-25 0 -24 -123l-50 -49q135 -111 136 -246h12q-25 -344 -307 -344h-62q-233 39 -233 172zM178 573q49 -246 123 -294l37 -37l61 12v74q55 0 136 344v24 q-43 98 -123 99q-209 -49 -209 -172q0 -50 -25 -50zM190 -225v-62q0 -68 62 -98h61q184 63 185 209q0 104 -99 160q-82 0 -209 -209z" />
<glyph unicode="9" horiz-adv-x="1107" d="M35 -604q61 307 135 307l12 -12l-37 -148l13 -12v-12q-25 -55 -25 -160v-37q84 -160 221 -160v-12q123 0 357 197l-13 12v12q109 115 148 320l12 110l-12 13v12l12 49l-12 12v13l12 37l-37 12q-129 -57 -246 -74q-266 0 -405 234q-49 74 -49 294h12l-12 13v12 q53 344 282 344q96 37 259 37q188 0 368 -356l25 -111h-13l13 -12v-62q-86 -217 -86 -307v-24l12 -50l-25 -98l13 -12v-13q-92 -418 -295 -602q-172 -111 -221 -110h-25v-13l-61 13h-99q-37 37 -86 37q-147 84 -147 307zM231 379l13 -62v-122q115 -197 295 -197 q135 0 295 123q-12 61 -62 61l-86 -12v12l-12 -12h-25q-98 0 -233 61l-37 -36h-12q-39 18 -123 184h-13zM416 403l110 -98l99 -24q74 0 110 73q-86 197 -221 197q-98 -1 -98 -148zM674 686q53 -74 98 -74v13q0 30 -98 61zM797 551l49 -49h12v-49q0 -61 49 -74l-12 -49 l12 -62h37l-12 13l12 61q-74 221 -135 233l-12 -12v-12z" />
<glyph unicode=":" horiz-adv-x="440" d="M78 -119q25 55 49 62h61q135 -20 136 -136v-24l-62 -62q-129 0 -184 160zM102 410l50 36l147 -12l37 12q53 -14 74 -61q0 -76 -160 -111l12 -61v-12h-12q-25 0 -25 37h-61q-33 0 -62 172z" />
<glyph unicode=";" horiz-adv-x="397" d="M-8 -610q0 66 147 307q23 209 74 209l37 24h12q61 -31 62 -110l-13 -13v-12l13 -49q0 -70 -136 -172q0 -82 -122 -233h-25zM115 434l49 37h74q53 -18 110 -98l-12 -62v-49q-33 0 -74 -37h-49q-43 6 -98 209z" />
<glyph unicode="&#x3c;" horiz-adv-x="831" d="M4 -281l37 74l-25 62q0 43 136 73q330 430 405 492h25l49 -37q0 -147 -258 -418q-33 -61 -74 -61v-37q145 -4 369 -135q123 -53 123 -99q0 -66 -62 -98l-565 197q-37 0 -37 -37l-12 -12h-13z" />
<glyph unicode="=" horiz-adv-x="1282" d="M31 -16q0 86 368 147l197 -12h123l160 -37l12 12h24l13 -12l12 12h25l12 -12l12 12h25l86 -49q-119 -141 -467 -233l-111 -50q-61 14 -61 37l12 62h-147q-18 0 -37 49q0 98 184 98l135 12v13l-110 24l-25 -37l-37 13q-186 0 -356 -111h-25l-24 25l12 12l-12 12v13z M80 293q0 160 332 160h135q86 0 135 -25l74 12l12 -12h12l86 25l37 -25l12 12q104 -25 271 -24h24q25 -6 50 -62q-61 -25 -62 -73l-246 -25q0 25 -98 37l-25 -25l-61 25v12q0 31 49 37v12h-37l-123 -12q-74 10 -73 25l-13 -13h-86q-88 0 -98 -37h25l258 13q74 -25 73 -49 v-13h-12l-12 13h-12q-76 -49 -197 -50l-258 25l-98 -37q-74 19 -74 74z" />
<glyph unicode="&#x3e;" horiz-adv-x="808" d="M35 354q25 55 49 62l49 -13l86 25q31 -129 135 -184q264 -184 430 -185l13 -49q-25 0 -25 -73q-141 -39 -184 -111l-123 -184q-55 -184 -123 -185l-86 -61q-86 25 -86 74q123 233 307 491q-119 109 -258 172q0 37 -61 37q-123 153 -123 184z" />
<glyph unicode="?" horiz-adv-x="968" d="M-25 889q55 145 209 233l332 86q0 25 86 37q160 -70 234 -196l61 -185v-49q-2 -162 -258 -467q-172 -168 -221 -332v-12l37 -49l-13 -12v-13l25 -24q0 -37 -74 -37q0 -61 -24 -62q-104 0 -160 209v86q416 545 491 848q-51 123 -147 123l-74 -24l-12 12h-12q0 -63 -37 -74 l-148 12q-123 -92 -123 -221l86 -73v-37l-98 -74q-111 41 -110 147q-50 78 -50 148zM307 -475q0 84 160 98q172 -33 172 -172l-123 -110l12 -62q0 -63 -36 -74h-37l-25 25v25l12 12v12q-135 80 -135 246z" />
<glyph unicode="@" horiz-adv-x="1765" d="M41 174l12 62v110q96 418 221 418q201 258 431 258q0 25 122 37l99 -12l12 12l233 -25l13 13h12q233 -47 455 -234q0 -25 86 -111l24 -245q-39 -250 -123 -369q0 -96 -208 -233l-37 -13q-197 0 -283 86h-25l-159 -135h-74q-209 39 -209 123q-74 92 -74 295l25 86l-12 12 v13q4 86 24 86l-12 12v12q227 344 418 344l61 -12l12 12h13q172 -12 172 -135l-25 -61l12 -13v-12l-12 -61l12 -13l-24 -135l12 -12l-12 -86v-160q0 -98 147 -98q209 141 209 319q16 0 49 197l-12 12v12l12 13v12q0 197 -344 344l-86 25l-12 -13h-12l-13 13h-12l-12 -13 l-246 25q-377 0 -430 -221q-88 0 -172 -185l12 -12v-12l-24 -98q49 -406 159 -541q221 -246 504 -246v-12q440 147 516 209l148 37l24 -37v-25q0 -117 -184 -160l-12 13h-12q-276 -160 -529 -160q-424 0 -700 430q-82 74 -99 147q-49 0 -49 111h-12zM692 162 q0 -207 185 -246q109 0 196 270q-49 0 -49 86l12 86l-12 50q35 0 49 208l-49 13q-332 -61 -332 -443v-24z" />
<glyph unicode="A" horiz-adv-x="1046" d="M-2 -948q55 98 55 141l-12 78l65 149l-10 11v12l381 1071l74 227l22 99v10q-53 49 -53 205l43 35h23q25 -6 55 -86h21q6 43 30 43h13l22 -23v-63q-35 -29 -43 -134l8 -8h13l-21 -43q76 -25 76 -43v-35l-12 -8v-12q68 0 98 -424h-12l90 -520h-13q45 -291 76 -291v-12 l-12 -129l35 -250l-43 -150l8 -55l-31 -23q-57 0 -88 220l-53 301l10 12q-498 25 -498 86v55l-34 8l-162 -462q-18 0 -23 -56l-12 -12h-8q-59 0 -78 43l12 12l-12 13v8zM346 -340h12l9 10h12l10 -10h12l129 23l21 -35q0 -31 -51 -56l-35 13l-43 -33l98 -43h98l44 -10l108 22 v43l-10 51h10l-86 553h8l-20 91l20 86l-8 30h8l-8 33h-22l-142 -389h-12l22 -141l-10 -11h-12l12 -12v-8l-20 -25l-56 33h-22q-76 -174 -76 -215z" />
<glyph unicode="B" horiz-adv-x="1331" d="M-33 598v12q0 154 418 221l123 13l160 -13l61 13q233 -66 234 -99q0 -227 -455 -491q283 31 283 61l12 -12h24q336 0 443 -123v-61q0 -172 -234 -455q-350 -274 -368 -332q-137 -172 -418 -295v-12l12 -61l-12 -13h-37q-92 51 -135 197l12 12l-24 197l12 61q0 383 37 504 l-13 12l13 62v86l12 12l-12 12v13l12 12v12l-12 37l12 74v25l-12 49l12 12v12l-12 13v12l12 12v12q-2 52 -160 197zM250 -360l12 -62v-24l-12 -99l12 -61l-12 -135h12q207 0 651 577l74 111q0 106 -172 147l-160 37l-196 -74l-111 49q-61 0 -61 -270l-25 -135l12 -49 l-12 -12h-12zM274 659q37 -47 37 -344v-24q133 25 504 381v12l-37 49l-61 -12h-258q-52 -1 -185 -62zM1036 168l37 -37h25l-37 37h-25z" />
<glyph unicode="C" horiz-adv-x="1640" d="M31 -471q66 291 159 356q23 0 37 111l-12 49q18 0 61 148q109 199 590 565l234 135q0 -23 61 -37v-25l-12 -61l25 -25l-37 -36l37 -234q0 -135 -87 -135q-51 0 -61 123h12l-12 12v62l12 12l-37 98q-328 -121 -614 -479l-12 -62q74 0 135 87l74 12l24 -25v-12 q-12 -43 -110 -111q-135 -117 -136 -172l-12 -73l12 -37l-12 -13q23 -4 74 -122q37 -10 123 -123q188 -123 307 -123h37q133 68 172 135q41 0 307 221l98 49h74l74 -49q0 -287 -197 -344q-143 -98 -221 -98l-12 -13l-49 13q0 -23 -295 -74q0 -25 -295 -49l-111 24l-12 -12 h-12q-233 51 -332 185l-49 86v61zM154 -410l12 -12v-12l-12 -12q37 -121 172 -197l159 -37l13 12h135q0 27 -111 50q-270 242 -270 380h-12q-27 0 -86 -172zM1210 -557v-12h25l209 123v24h-12z" />
<glyph unicode="D" horiz-adv-x="1177" d="M78 1040h12l-12 13v123l49 49h25q72 0 110 -123v-74q-37 -29 -37 -184l-37 -37l25 -37l295 37q385 0 504 -172q0 -53 49 -98v-25l-12 -12l49 -197h-13l13 -12v-49q0 -342 -516 -774q-100 -147 -308 -197l-12 -62v-36h-49q-74 31 -74 221h13l-50 270l13 12l-25 320l12 12 v12l-12 62l25 491h12l-37 246l12 12zM238 156l12 -13v-12l37 -676h24q209 104 209 185q225 205 320 528l-25 49l12 12q-76 344 -184 344q-14 31 -135 62l-12 -12l-62 12h-37q-135 -37 -135 -160l-12 -123l12 -12l-12 -61v-111z" />
<glyph unicode="E" horiz-adv-x="1206" d="M47 -137q0 74 37 74l-25 49l13 61v12l-13 136l13 12v12l-13 12v13l13 12v12l-25 62l12 12v12l-12 13v12l12 12v12l-12 50l25 24l-13 62v147q0 135 37 135h25q35 0 49 -86q68 0 885 234q61 -14 61 -37l-24 -49l12 -62q-82 -2 -246 -135q-70 0 -418 -135l-12 -12h-25 l-184 49h-37l-24 -25v-37l61 -135v-184l12 -86h50q233 0 344 135l12 12h37l37 -37l-13 -12l13 -37h135l24 -24q0 -150 -208 -185q-113 -49 -295 -73h-13l-123 12l13 -148h-13l13 -12v-209l12 -147q225 111 516 454q49 -25 49 -73l-73 -135l-13 -13l-12 -37h12l246 50l12 -13 h13l49 13l24 -25q0 -162 -221 -197l-369 -98h-49q-12 -74 -258 -172h-12q-111 0 -111 234l13 49l-13 12l13 61v332z" />
<glyph unicode="F" horiz-adv-x="1073" d="M31 526q18 197 98 197l61 -37h25q66 0 111 37l36 -12q301 147 455 147h62l24 -24v-13q0 -33 -110 -49l-25 -37v-12l246 -12v-13q-8 -160 -123 -159l-283 -50l-12 13l-147 -25l-185 62l-24 -25v-49q0 -20 61 -37q0 -76 37 -172l-12 -49v-49l36 -13l13 13h61l13 -13l12 13 h12l160 -25q147 66 344 221q49 -18 49 -37q0 -49 -172 -221l49 -24q0 -172 -135 -172q-111 -37 -406 -50l-24 -24q0 -209 37 -430h-13l13 -37l-13 -37l25 -24v-25l-37 -111h-12q-51 0 -86 50q-61 0 -62 49l13 12v12l-25 197l12 12v12l-12 13v12l12 61l-24 25l12 74 q-39 283 -74 282l13 160l-13 86l13 12v13l-25 86l25 24q-37 0 -49 135z" />
<glyph unicode="G" horiz-adv-x="1241" d="M68 -119v258q0 115 184 430q215 233 455 234q0 25 73 24q72 0 123 -61l-12 -12l12 -62v-12q-86 -88 -86 -356v-25l-49 -74h-37q-63 0 -74 37v37l13 12l-13 13v49l37 49l-12 12v12l12 160q-25 0 -24 37h-74q-246 -104 -246 -246l-12 -12q-45 -86 -62 -197h-12l12 -12v-12 l-36 -258q72 -307 159 -307q72 -74 160 -74h74q123 16 295 221v25q-49 86 -172 86l-172 -13q-61 49 -62 99q0 37 160 73l37 -12l123 12l12 -12l61 12h86q41 0 86 -36l13 12h12q61 -12 62 -49q0 -63 -123 -344q0 -258 -344 -283l-99 -12q-309 84 -454 307l-86 221l24 25z" />
<glyph unicode="H" horiz-adv-x="1185" d="M43 -315q74 74 74 122v37l-13 209h13q-25 49 -25 135l74 99q-25 0 -25 98h-12l12 61v25l-12 172q25 74 49 74h37q135 -166 135 -234l-12 -12h-12l-74 25l-25 -123q0 -119 74 -344l12 -62l-12 -12q25 0 25 -37h12l295 62h37l24 -25l-12 -61l61 -13l13 13h12l98 -25l13 12 l-13 13v24h13l-13 184v86l-12 50l12 49l-12 110l25 185l-13 135q0 68 86 74q78 0 123 -222q-74 -39 -74 -86l50 -270l-13 -61q12 -344 62 -345l-25 -24l12 -62v-12l-12 -12l12 -12v-13l-12 -12l37 -172l-12 -12v-13l12 -12v-12q-27 -172 -98 -172q-51 0 -74 135h12l-12 12 v86q-33 172 -74 172l-135 -24l-393 61l-12 -12l24 -86l-12 -49l24 -25v-61l-24 -49l12 -37q-61 -33 -61 -111l-62 -12q-37 47 -98 295q-86 55 -86 123z" />
<glyph unicode="I" horiz-adv-x="1075" d="M12 653v13q41 119 209 172l111 12h61l99 -25l12 13h12q342 -59 455 -148v-12l-13 -12v-13l25 -61l-37 -25q-315 86 -454 86v-37l12 -122h-12q37 -188 73 -725h-12q25 -59 37 -234h-12l12 -37h24l50 13q55 -25 159 -25l74 25h25l36 -37h13v-13l-86 -86l12 -37 q0 -37 -283 -61v-12l13 -74l-13 -12v-13l13 -49l-37 -37h-49q-20 0 -37 74l12 37q0 74 -98 74h-86l-49 -13q-49 12 -111 99q-86 0 -86 37v12l86 86l98 -12q197 0 197 37q-49 111 -74 245h13l-50 332l13 12l-13 13h-12l12 12v12l-12 49l12 13l-24 147h12l-25 98h13l-13 37 l13 172l-13 37l-49 -12l-49 12q-31 0 -110 -98h-37z" />
<glyph unicode="J" horiz-adv-x="1236" d="M-2 -315q0 37 98 49q109 -33 209 -234l-12 -37h12q90 -172 344 -172q78 0 185 197l49 160l-13 12v25l13 49l-13 49l13 12h12l-12 12v50l12 49l-12 49h12l-12 37l12 12l-12 37l24 172l-73 86v61q0 43 122 62l13 37q0 74 -86 73l-295 -12q-111 0 -148 74v37q0 72 418 110 q0 25 184 62h13q25 0 73 -148l37 -37q-61 -113 -61 -331l-12 -13l24 -86l-24 -122l12 -50l-25 -98v-86l13 -61q-31 0 -86 -283q-82 -229 -271 -319q-45 -37 -98 -37h-135q-160 53 -160 110q-258 158 -295 332l-49 61v50z" />
<glyph unicode="K" horiz-adv-x="1349" d="M37 727q18 49 37 49h49q86 -78 86 -184h-12l12 -12v-13l-12 -12q0 -98 73 -98q43 -55 74 -271l-12 -49l12 -37h12l50 50v12l-25 37v49q0 18 184 98l99 135q0 43 73 62q12 80 209 196h25l37 -37v-24l-13 -12v-13h25v-37q-221 -188 -320 -405v-25q152 -59 320 -295 q178 -152 258 -356q0 -49 -61 -49l24 -37v-37h-37l13 -12v-49l-25 -25h-37q-223 154 -442 479q-49 143 -123 185h-25q-76 -84 -159 -99l-50 -172l25 -49q0 -61 -25 -61l13 -12v-13l-13 -73l13 -111l-74 -86l-86 86l12 12v13l-61 258l12 110q0 254 -111 750l13 37 q-25 0 -37 147zM971 -207v-12l24 -25v13zM1057 -330q16 -74 49 -73v12l-25 61h-24z" />
<glyph unicode="L" horiz-adv-x="870" d="M-45 1022q18 49 37 49h49q23 0 49 -123q61 -16 62 -37l-13 -37l49 -61l-12 -12l37 -160l-12 -86l12 -61l-12 -13v-12l37 -111l-13 -12v-12l13 -12v-13l-13 -37l13 -12h12l-12 -37l73 -651l-12 -12v-13l12 -12v-12l-12 -49l319 37h37l86 -25l25 25h49l25 -25l-13 -49 l13 -49h-13l13 -13v-73l-37 -37h-25q-63 0 -110 37h-197l-12 12q-147 -12 -148 -37q0 -84 -61 -123h-37q-74 43 -74 123q0 55 62 123l-13 61l13 13v12l-13 49h13l-13 12v13l13 12q-18 135 -74 135l-12 74l12 49q-37 119 -147 958h12z" />
<glyph unicode="M" horiz-adv-x="1773" d="M61 -385l37 86l-12 12v13q37 88 98 417h13l-13 13v37l13 12v12l-13 12l37 37l-12 13v12l74 381l-13 49v49q43 74 111 74h12q109 -84 135 -258q104 -504 185 -504l86 319h12l-12 13v12l12 12v13l-12 49q37 14 98 295l37 135q25 0 24 98l62 25q59 0 123 -111h12l37 12 q86 -102 221 -491l98 -270v-13l-12 -12v-12q37 -29 111 -246l-13 -49q18 0 50 -123l-13 -37q86 -86 86 -270q-25 -74 -49 -74q-31 0 -74 270q-27 0 -36 99q-111 0 -209 294q-203 549 -258 639l-123 -282q-31 -25 -86 -320l-25 -37l12 -49l-24 -73q12 -141 49 -185v-24 l-25 -37v-12l13 -62l-13 -12h-12q-113 0 -246 442q-63 80 -172 406h-12q-27 0 -86 -258h-12l12 -13v-12q-37 -98 -74 -344h-12l12 -12v-13q-57 -332 -98 -331l-12 -62l-13 -12h-24l-62 61l25 148z" />
<glyph unicode="N" horiz-adv-x="1052" d="M47 348q10 98 25 98l-25 148q43 258 98 258h25q18 0 111 -184q47 -37 86 -148l245 -590q35 0 74 -209h12l13 13h12l-12 61v62l12 37l-12 36l12 443l-12 368h12l-12 13v110q0 29 86 49q68 0 98 -356l37 -160l-12 -12l49 -319l-13 -37l25 -99h-12l49 -86l-12 -12l12 -61 v-50l-37 -49l12 -61l-37 -25l-110 37v-12l147 -406l-24 -24l12 -74l-37 -25q-86 29 -233 394l-295 663q-113 244 -148 258l-12 -12l12 -12v-246l-12 -12l37 -86l-25 -37v-25q0 -166 25 -270l-49 -37l24 -61l-86 -62h-12q-86 0 -86 344v197l-12 49l12 61q0 90 -37 160z" />
<glyph unicode="O" horiz-adv-x="1062" d="M61 379v160l86 61q72 295 222 295q55 25 159 25h37q213 0 406 -480v-24l-13 -13l25 -86l-12 -36l12 -13v-12l-12 -37l12 -37q-88 -627 -455 -626q-328 0 -467 823zM258 317l111 -147v-25q0 -27 -86 -49v-24q117 -221 258 -222h24q197 0 271 320l12 98l-12 49h12l-25 86 h13q-63 188 -234 283l-12 12h-86q-106 0 -234 -221l-12 -12l25 -49zM467 -272v-13q0 -31 111 -37q98 10 98 37v13l-123 -13h-25z" />
<glyph unicode="P" horiz-adv-x="1048" d="M86 797v37l25 24l98 -24h24q68 61 406 147q92 0 283 -283q74 -197 73 -331q0 -236 -159 -443q0 -106 -209 -233q-70 0 -160 -135l-12 12h-13l-36 -12v-25l49 -246l-25 -49l12 -12v-12l-12 -62h-49q-39 16 -74 98q-49 0 -86 62v12l-74 774h13l-13 13v73l-24 148l12 12 l-24 111l12 61zM283 489l12 -12h12l-12 -86v-49q25 -240 61 -356h-12l12 -13v-110l25 -135v-25h37q0 55 319 320q98 201 99 430l-13 147q-37 0 -37 49q-203 147 -307 148q-147 0 -196 -246v-62z" />
<glyph unicode="Q" horiz-adv-x="1382" d="M92 8h12l-12 12v13q0 227 123 786q123 209 197 209l12 -12l37 37h37l12 -13l12 13q412 -92 430 -135q195 -164 222 -320l49 -233h-13q25 -74 25 -320v-98q-25 -35 -61 -234q-27 0 -50 -147v-25q35 0 111 -147l49 -25v-24l-61 -99h-74q-61 63 -148 74q0 31 -98 49 q-143 -111 -270 -110q-168 0 -295 110q-246 252 -246 639zM215 20l12 -61v-86l74 -221q164 -172 320 -184h24l123 12q-209 233 -270 381v24l37 37h73l-12 62q18 49 37 49h37q133 -12 307 -320h24q68 37 86 307l-12 13v12l25 49l-25 25v110l-24 37l12 13v12l-135 319l-13 13 q-70 174 -196 245h-12l-50 -12l-36 12q-162 -123 -209 -123q0 -68 -86 -110l12 -12v-13l-62 -98l13 -111q0 -98 -25 -98q49 -123 49 -197l-49 -36l-37 24l-12 -37l12 -12v-12z" />
<glyph unicode="R" horiz-adv-x="1196" d="M66 -199l12 295h12l-12 13v61l49 98l-12 13l61 258l-12 12v49l12 12l-12 13q35 295 86 295h37l86 -74l147 86q381 0 467 -344v-86l-24 -37l24 -25l-24 -24l12 -13v-12q-119 -328 -295 -405q-98 -12 -98 -37q219 -190 417 -320q0 -25 86 -73l13 -99q-8 -98 -99 -98 q-31 0 -49 98q-33 0 -86 62q-37 0 -467 344l-86 61q-25 -49 -37 -307l13 -98q-37 0 -37 -49l-25 -25h-12q-147 0 -147 356zM336 158l12 -13l86 -49v-12l12 12h86l13 -12q172 0 319 319l13 111q0 207 -222 295l-61 -12l-49 12q-55 -70 -123 -86l12 -12v-13q-74 -68 -74 -184 l-24 -37l12 -12v-12z" />
<glyph unicode="S" horiz-adv-x="1331" d="M4 422v37q0 195 664 540h37l24 -24l-86 -98q154 0 283 -160l24 -185l-12 -12h-49q-33 0 -62 172l-196 74q-215 0 -430 -283q0 -104 221 -147q735 -74 786 -295q55 -25 62 -49q0 -315 -467 -516l-443 -62q-135 12 -135 111q0 29 295 123q391 262 479 368v13l-602 123 q0 25 -86 24q-264 160 -307 246zM631 -401l12 -13v-12q233 55 430 246q61 55 62 123h-13l-245 -185q-209 -159 -246 -159z" />
<glyph unicode="T" horiz-adv-x="1247" d="M43 942q6 61 256 98h12l13 -16h12q8 -1 17 -1q87 0 210 56l82 -45l152 49l24 -4l33 -26l37 -4l102 16l13 -12l8 -4l53 10l8 -17l66 11q94 -10 104 -62q-25 2 -28 -35l-19 -69l-129 -53l-45 18q-4 -39 -203 -55l-164 -37l-26 -33l8 -147l-12 -13l-2 -12l-4 -172v-25 l-15 -12l12 -12l-10 -98l6 -74l-12 -12l4 -87l-10 -86l-12 -12v-12q25 0 22 -37l-18 -49l18 -74l-16 -49l16 -90l-12 -8q25 -4 37 -129l-13 -11l21 -26l-12 -123q-6 -68 -56 -92q-104 17 -103 186q0 31 3 68h12l-49 424l12 -2l-10 14l6 86l13 10l-21 82l27 387l6 197l-49 4 h-111l-178 27q-39 68 -51 141q-19 0 -35 53zM682 895l23 -2l26 20l-24 5z" />
<glyph unicode="U" horiz-adv-x="1404" d="M43 530l12 13v12l-12 37l25 172l-13 49l25 123v12l-12 49q16 88 73 111h37q29 0 37 -61l-12 -37h24l-12 -62v-37q37 0 49 -184l-12 -12h-12l12 -13v-12l-25 -98v-12l13 -50l-13 -49l37 -209l-12 -36l24 -25l-12 -12v-13l25 -73l-13 -13q25 -4 74 -123l197 -73h24 q219 0 381 282q86 236 99 357l12 12l-12 12v13q12 55 86 122l-50 86v37q12 37 74 37h25q37 0 61 -123h-12l25 -110l-13 -185l-12 -12l12 -12v-12q-39 -111 -73 -111v-61q-203 -385 -381 -431q0 -66 -246 -122q-217 0 -406 331q-98 217 -98 516z" />
<glyph unicode="V" horiz-adv-x="1196" d="M-39 711q0 160 111 159l86 -196q80 0 86 -37l-13 -12v-13q86 -49 99 -123l-13 -12q55 -37 111 -233q47 -76 98 -295q66 -147 86 -148l74 222l-24 122q74 129 356 861q102 197 196 196h25l-12 -61v-25h24v-37q-37 -2 -159 -295l-74 -196q-25 -123 -86 -209 q0 -49 -184 -492q-51 -430 -111 -430q-135 0 -135 123l-13 12h-12l12 13v12q-135 350 -233 528v13l12 12v12q-45 0 -159 295q-80 164 -148 234z" />
<glyph unicode="W" horiz-adv-x="1998" d="M109 1012v12l36 37h50q55 -33 122 -172q61 0 160 -320l12 -12l-12 -12v-13l98 -282h-12q43 -197 135 -197q246 483 246 615l-12 12v25l61 49h25l49 -37q41 0 86 37h37l24 -25l-12 -61l25 -25q-49 -63 -49 -111v-12l24 -98q-25 0 -24 -37l135 -344q16 0 37 -123h12l49 25 l-12 37l147 417h13l-13 13v12q160 416 246 553l61 12h13l37 -37v-73q0 -135 -37 -136l12 -36l-209 -480h-12l12 -37q-80 -162 -110 -319h-13l13 -37l-86 -246h-74q-57 0 -135 308l-172 430h-25q-215 -260 -295 -529l12 -12v-12l-24 -50l12 -61l-24 -147l12 -123l-12 -13h-13 l13 -12v-24l-37 -37h-37l-74 73l12 37l-12 62v147q-61 66 -61 123l24 49l-24 111l12 12v12q-2 31 -86 86l12 13v12q-124 264 -368 971z" />
<glyph unicode="X" horiz-adv-x="1478" d="M55 -618q0 154 209 491h12l-12 12v13q170 205 258 381q-61 141 -147 208h12q-70 137 -332 443v61q37 0 86 49h62q160 -145 159 -196l-12 -13l283 -380h12q158 160 430 602q147 123 221 123l37 -13v-24l-37 -49l25 -25q-248 -215 -344 -430l12 -37q-111 -49 -147 -184 q-37 0 -74 -111q18 0 49 -110q31 0 62 -123l49 -62q295 -252 295 -344l-49 -12v-62q0 -25 -37 -24q-104 57 -209 246q-92 45 -99 73v13l13 86l-160 86h-25q-33 0 -110 -283q-61 -25 -62 -74h-61l-49 49l74 172h-50v-24l-37 -25l13 -37q-143 -152 -197 -454l37 -86v-37 l-25 -25h-49q-86 68 -86 136zM461 20h12l25 25v12z" />
<glyph unicode="Y" horiz-adv-x="1497" d="M98 809v74q16 49 111 49l37 -49l-13 -49l25 -86h61q207 -186 406 -504l74 -25q152 160 258 479l110 246q141 311 172 320h50q25 0 24 -37l-12 -37l12 -12q-147 -186 -196 -344l-13 -13q41 -31 62 -184q-283 -473 -283 -614v-25q86 -31 86 -61v-62h-12l-111 37v-12 l-12 -50l12 -12q-20 0 -37 -86q-61 0 -61 -184l-49 -37l12 -12v-13l-25 -24h-36l-62 61v13q61 182 62 282q-25 0 -25 37h-25l13 -12v-13q-98 -135 -123 -233h-25l13 -12q-8 -88 -62 -148l25 -24q-8 -147 -25 -148l12 -12v-12l-36 -37q-88 55 -99 135q61 215 258 578l13 36 q-27 6 -62 99q-209 342 -381 540q-68 68 -123 197z" />
<glyph unicode="Z" horiz-adv-x="1218" d="M96 852v12l25 37l-12 62l49 36h73q238 0 578 185h12l25 -37l-12 -37l24 -25l-74 -221q-27 0 -172 -454h-12l12 -13v-12l-98 -246l12 -12v-37q-49 -74 -98 -467h-12l12 -12v-12l-12 -13v-12h49q326 207 504 233h61q98 0 98 -135q0 -154 -258 -282q-217 -98 -307 -99 q-74 0 -74 86v13q41 66 369 147q133 98 135 135l-12 13h-86q-39 -43 -233 -123l-357 -246l-61 -12l-37 37l86 208v37q-25 0 -37 74l37 111l-12 12q86 514 159 725l-12 37q35 18 98 258l13 12l-13 12l-344 -36q-76 24 -86 61z" />
<glyph unicode="[" horiz-adv-x="858" d="M-2 -520l49 147l-12 62v24l12 13l-12 12v49l12 12l-12 13l37 221l-13 12v12q49 178 50 430l12 13h12l-12 12v74l12 73l-12 13v12l12 12l-12 62v12l12 12l-12 13v36h12q0 168 -61 234v61l24 25h49q37 -43 148 -74l332 37q53 -16 73 -61v-13q-74 -123 -270 -122h-12v12 l-13 -12l-61 12h-25l-24 -25l24 -49q-57 -111 -98 -111v-24l-12 -98l12 -62l-12 -49l12 -49l-24 -49l12 -13v-12l-25 -98l13 -12v-13l-50 -295l13 -12v-12l-25 -209l25 -62l12 13h12q86 -31 86 -123q37 0 37 -25l332 62l49 -13l74 25q55 -25 61 -49v-12l-49 -50l12 -12v-12 q0 -47 -295 -123l-245 -98q-135 12 -135 36l-13 -12h-24q-49 0 -74 197z" />
<glyph unicode="\" horiz-adv-x="661" d="M31 856q18 51 61 74h74q66 0 172 -430l172 -516q0 -111 135 -308v-12l-24 -24l12 -13v-49l-49 -12l-37 12l-111 -12h-12l-25 24l25 99q-61 113 -111 430q-43 141 -86 209l13 12q-43 143 -62 147l-12 -12h-12l-13 12v136q-81 227 -110 233zM129 451l12 12h13l12 -12v-25 h-12z" />
<glyph unicode="]" horiz-adv-x="724" d="M-55 -745l73 86q-31 0 -49 98q23 49 86 49v-12q209 47 209 73l12 86q-49 0 -49 86q37 160 86 246l-12 13l148 725l-13 12l25 110l-12 62h12q0 123 -148 123q-45 35 -49 98l37 25h74l12 -13q18 0 74 99h24q178 -94 197 -136q-39 -98 -86 -98l-12 -61l12 -37 q-20 0 -123 -565q0 -74 -24 -74l12 -37l-25 -37q61 -76 62 -196q-25 -252 -123 -504l24 -25q0 -135 -442 -270v24l12 13v12z" />
<glyph unicode="^" horiz-adv-x="851" d="M74 401l12 13v12l-12 49q53 43 123 209l209 283l98 -25l49 12h25q53 0 159 -393l-12 -12q47 -29 86 -98q0 -96 -49 -111q-49 0 -111 74q-94 0 -184 258l-258 -271q-55 -61 -111 -61h-12z" />
<glyph unicode="_" horiz-adv-x="1124" d="M68 -612q49 45 172 86q0 111 319 184l12 -12q0 25 246 49v-12l12 12q135 -29 136 -74q-98 -160 -148 -160l12 -12v-24q0 -23 -73 -50l-86 13l-13 -13h-12l-12 13h-12q-203 -31 -234 -62h-12l-13 12l-221 -49q-73 25 -73 99z" />
<glyph unicode="`" horiz-adv-x="503" d="M61 889h13l-13 12v37l13 -12l12 12h12q92 0 99 -37v-12h-25v-12q129 -92 160 -234l74 -123q-14 -111 -74 -110q-147 35 -148 159l-110 246z" />
<glyph unicode="a" d="M43 -199q25 23 25 123l159 185q47 37 86 36q231 0 332 -159q-14 -98 -49 -99h-25l-61 50q-258 -6 -258 -111l-25 -25q0 -82 381 -110h13q61 0 61 110l37 209l-12 13q0 221 122 221q-18 147 -73 147l-13 -12q-197 12 -381 61l25 -86h-12q-184 141 -185 221v13q0 43 259 86 q276 -25 356 -99q147 -80 147 -491h-12l12 -12v-74l62 -356q-61 -8 -62 -62l-37 -12l-61 24v-12q0 -51 123 -110l110 61h37l37 -37v-37q-74 -111 -135 -110h-49q-135 0 -246 184v12h-123q-39 0 -86 -37l-61 25l-86 -12q-197 59 -234 135l-98 135v12zM817 -334v-12l12 -37h25 v12l-12 37h-25z" />
<glyph unicode="b" horiz-adv-x="841" d="M55 -72q111 63 111 344v74l-12 62h12l-25 110l13 12l-13 62v24q16 92 49 99h13q74 -43 73 -135q61 0 62 -172v-86l-12 -13l12 -12v-12l-12 -123q203 0 295 -74q160 -66 159 -221l25 -37v-86l-25 -25l13 -12v-12q-106 -283 -418 -283q-86 8 -86 62h-13q-25 0 -24 -37 l12 -37l-37 -37l13 -37l-13 -12h-37q-135 92 -135 172h13l-13 12v344l13 49zM264 -489h12q135 55 271 233q31 14 61 123l-233 86l-74 -49l12 -13z" />
<glyph unicode="c" horiz-adv-x="821" d="M59 78q0 74 185 295q90 49 135 49q283 -20 283 -74v-12l-25 -37l12 -61q-344 -86 -344 -197q172 -209 295 -209l49 -37h86q68 0 86 -49l-61 -111h-12l-295 25l-25 -37q-86 0 -86 62q-283 219 -283 393z" />
<glyph unicode="d" horiz-adv-x="1007" d="M80 10l49 234l-12 37q129 61 184 147l160 37q43 0 221 -111q25 66 25 283v49l12 74l-25 74q41 61 148 61l49 -135l-12 -234l12 -12v-12l-25 -37l13 -62l-13 -61l13 -12l-13 -62v-86l-12 -12l12 -12v-13l-12 -12v-12l74 -123l-13 -86l13 -37l-135 -184q84 0 98 -49 l-12 -50l12 -49l-320 -147v12l-12 -12h-37q-381 90 -381 356h13l-62 258h-12zM264 -27q115 -233 295 -233l123 61l-12 13v73l12 111q-92 332 -233 332h-13q-123 -31 -123 -221q-49 -50 -49 -136zM264 -309v-25q0 -57 234 -147l110 12q0 25 -73 37v12l-13 -12h-24 q-144 103 -234 123z" />
<glyph unicode="e" horiz-adv-x="1079" d="M80 2h12l-12 12q0 215 221 430q98 61 197 74l12 -12h12l62 12q283 -59 282 -209v-12l-24 -86l12 -37q-51 -49 -98 -49h-37l-12 12h-13q0 -59 -393 -172l-61 -12v-25q0 -139 184 -258l123 -49q139 14 233 98q37 0 37 37q74 49 111 49h49l24 -24v-25q0 -182 -110 -233 q0 -43 -246 -74q-197 0 -405 160q-160 178 -160 393zM240 150l24 -50q117 0 418 136q49 0 49 36q0 57 -172 111q-217 0 -307 -233h-12z" />
<glyph unicode="f" horiz-adv-x="774" d="M0 -360q123 74 123 147l24 123v135l111 516q10 98 123 98l-12 62v61l61 13q115 -80 258 -394l-12 -12q37 -66 49 -209q0 -123 -49 -123v-49l61 -110q-12 -86 -37 -86l-122 49l12 61v37q-49 80 -49 147h12l-123 320h-24l-99 -221l12 -37q-37 0 -36 -184h-13 q23 -29 37 -172l12 12h173q25 0 36 -123l-135 -86l-37 -37l-12 12h-12l-111 -36v-123l12 -49l-12 -13v-12l12 -37q-12 -86 -36 -86h-62q-37 12 -37 74v24l13 50l-25 86l12 49v12q-98 12 -98 49v62z" />
<glyph unicode="g" horiz-adv-x="866" d="M-25 -469q16 111 111 111h37q135 0 135 -246h-25v-12l136 -74q152 0 209 221v49h-111q-203 0 -307 455h12l-12 12v74q0 66 123 356q129 111 282 111q209 -86 209 -307l12 -37l-12 -13q16 -147 49 -147l-12 -12v-197q-20 -27 -74 -332q-104 -303 -159 -319l12 -12v-13 q0 -31 -135 -61l-13 12l-61 -12h-12q-156 18 -258 110q-131 170 -136 258v25zM270 59q0 -236 246 -356h49q47 25 62 74l-13 12v12l25 37l-12 12l12 74q0 283 -74 283h-12l-12 -12q-37 -98 -62 -99q-49 18 -73 62v12l12 12l-25 49l37 99v12h-12q-33 0 -74 -147l-12 -13 l24 -37v-24l-86 -25v-37z" />
<glyph unicode="h" horiz-adv-x="890" d="M37 563v62l37 37h73q31 0 37 -111q61 -18 62 -86l-13 -12q37 -74 37 -258h25q109 135 307 135q86 0 172 -234l12 -73l-12 -13v-12l12 -12v-13q-14 -295 -73 -295h-13q-86 53 -86 74l13 37q-14 147 -37 148l24 110l-24 37l-197 25q-86 -135 -86 -222l-49 -184l12 -74v-12 q0 -63 -49 -86h-49l-49 86v49l-25 234l25 73l-25 50l13 61v12q-49 467 -74 467z" />
<glyph unicode="i" horiz-adv-x="321" d="M23 618v50l86 61q0 55 61 86h61q29 0 50 -123q0 -70 -99 -123q-159 10 -159 49zM53 205l10 12l-10 12q35 37 62 37h18q37 -59 86 -86l53 -209h-6q14 -43 33 -381h-8l8 -12v-12l-27 -37h-34l-95 37l-28 74l10 49l-29 196l10 13v12z" />
<glyph unicode="j" horiz-adv-x="1019" d="M86 -655q0 86 172 184l49 12q53 0 172 -86v-12l-12 -12l12 -13v-12q0 -115 -86 -221v-49l221 -37q109 94 136 233l73 222l-12 12v37l12 12l-12 37q0 174 -49 332l-148 -25q-184 14 -184 74v37q0 20 123 73l184 123h25v-12l86 12h37l61 -12v-49l12 -86q-49 0 -61 -185h-12 l24 -73v-123l13 -62q-74 -602 -185 -602q0 -55 -147 -86q-190 0 -479 148l-13 37l25 49zM553 635q10 61 61 61v13q246 -29 246 -74q-14 -160 -160 -160q-79 21 -147 160z" />
<glyph unicode="k" horiz-adv-x="985" d="M84 668q12 74 37 73q172 0 196 -651l172 172q37 0 37 37q25 0 185 147q47 37 86 37h49l37 -37l-37 -24l12 -62q-285 -221 -356 -307q195 -63 246 -196q0 -37 49 -37l49 -62l-37 -37v-61q-131 0 -295 123l-98 37h-62q-31 0 -37 -123l13 -49q-25 0 -25 -62l-12 -12h-25 q-74 0 -135 86v123l-12 61h12l-12 13v12l12 37l-12 61v467l-12 49l12 13v12z" />
<glyph unicode="l" horiz-adv-x="376" d="M-51 637v49q68 74 110 74q25 -43 136 -74q49 -106 49 -356v-135l12 -74l-12 -12l12 -62v-24l-12 -13l12 -12v-61l12 -148h-12l25 -135l-37 -160v-49h-25q0 -37 -24 -37l-37 37v98l-13 62l13 12q-68 47 -86 664q-68 356 -123 356z" />
<glyph unicode="m" horiz-adv-x="1148" d="M37 625q25 55 49 61q98 0 135 -135l25 -25v-12l-13 -12v-13q23 0 37 -86h13l196 160l74 25h12l37 -37l-12 -12v-13q61 -33 61 -110l172 49h37q197 -68 197 -172l-13 -37l13 -12l-62 -406l13 -74v-36l-25 -74l12 -12l-37 -25h-61l-49 49v86l12 49l-12 49l12 74l-12 13v12 l12 37l-12 12v12l24 74l-12 61l12 13l-24 147h-74q0 -25 -74 -86v-221l13 -49q-43 -291 -74 -307h-49l-62 49l13 135l-13 49l13 12v13l-25 282v25l12 12l-36 74l12 86q-6 86 -74 86v-37q37 0 37 -25v-24q-160 -184 -160 -356l49 -283l-12 -37l12 -49q-14 -98 -49 -98h-49 q-37 0 -111 245l13 13v12l-25 74l12 12l-36 221h12q-33 238 -74 283l12 12z" />
<glyph unicode="n" horiz-adv-x="1009" d="M35 489q16 49 110 50q72 -94 99 -283q59 0 110 -172h13l110 209q92 135 197 135q74 -125 74 -184h61q49 -37 49 -271v-61l12 -49l-12 -37l12 -37h-12q25 -49 25 -135v-25q-25 -18 -25 -135l-37 -24q-111 0 -110 245l-13 37l13 12v13l-49 332l12 12q-25 0 -49 110l-13 13 h-12q-123 -168 -123 -258v-25l12 -12v-12q-20 0 -73 -332l-86 -86h-74q-43 0 -74 331q-61 158 -123 553q-20 0 -24 86z" />
<glyph unicode="o" horiz-adv-x="825" d="M70 41l118 289q181 196 305 196q43 0 80 -24q131 -184 199 -387l6 -168q-27 -276 -94 -381l-18 -4l-13 -64q-78 -114 -219 -114q-92 0 -211 49l-84 55q-108 73 -108 272q1 118 39 281zM145 -262q-3 -14 -2 -27q0 -90 119 -174l23 -12q53 -36 107 -36q96 0 196 114 q87 129 87 320q0 91 -20 196l-51 141l-31 21q-37 23 -88 23q-38 0 -84 -13l-10 6q-76 -115 -141 -141q-70 -147 -70 -226q0 -52 31 -73q58 -58 58 -88q0 -6 -3 -11q-24 -34 -56 -34q-26 0 -58 22z" />
<glyph unicode="p" horiz-adv-x="751" d="M47 299l12 12v13l-12 12q10 307 49 307h13q47 0 61 -197l135 25q86 -12 234 -123q0 -37 61 -37q80 -104 86 -184v-37l-12 -12l12 -37q0 -215 -233 -356q-2 -20 -111 -86l12 -185q0 -63 -37 -73l62 -320l-12 -49l12 -62l-37 -24q-100 0 -147 270h12l-25 86l13 13l-136 909 v37l13 12zM207 250q74 -418 110 -418h13q147 139 147 258q0 74 -184 209h-62q1 -49 -24 -49z" />
<glyph unicode="q" horiz-adv-x="997" d="M16 -35q0 68 62 86q98 -43 98 -98h25v12l12 111l-12 12q59 430 258 430l135 37q98 -10 98 -25q25 0 62 74h37q66 0 159 -344q-14 -98 -37 -98l-67 -393l-12 -13l12 -12h12l-12 -61l12 -50l-12 -12h-12q-8 -201 -9 -311q0 -135 13 -135l143 145h12l62 -49l49 6v-49 q0 -25 -148 -74l13 -12v-12q-162 -115 -203 -160h-12q-74 0 -99 86l25 49l-12 12v13l12 12l-12 12l24 160l-12 37h12l-12 12v49l12 13l-12 12v24l12 62l-37 12l-172 -24h-12l-12 12q-33 0 -49 -74h-13q-88 0 -184 332q0 20 -184 123zM348 162l12 -12h13l24 24l-24 25z M395 -41l31 -98q20 -98 123 -99l156 31v74l12 74l-12 61h12l-12 12l12 86v222l12 12q-18 74 -98 74q-162 0 -209 -283q8 -18 8 -42q0 -49 -35 -124zM471 -305v-62l74 -12q0 25 49 25l12 12v12l-74 25h-61z" />
<glyph unicode="r" horiz-adv-x="968" d="M47 -238l37 344l-37 148l12 12h13l-13 13v110l13 12l-13 13v12l13 12l-13 13v12l13 37h61q37 0 111 -209q233 172 393 172q133 0 258 -86l12 -49q0 -25 -37 -25v-12l13 -12v-13l-49 -24q-135 8 -136 37q-117 -10 -295 -148h-49l-12 12h-12q-74 -176 -74 -233v-172 l25 -111l-13 -12q-37 -98 -61 -98q-117 -1 -160 245z" />
<glyph unicode="s" horiz-adv-x="878" d="M92 340q172 319 418 319q172 -23 172 -122v-13l-49 -49h-25q-51 49 -98 49h-12q-111 0 -209 -110v-13q49 0 49 -61q-20 0 -62 -98q0 -111 271 -111q0 -23 110 -37v-12l13 12h12l160 -86q0 -299 -332 -393q0 -18 -148 -49l-49 12l-49 -12q-61 68 -61 123q330 94 442 209 q0 61 -369 122q-117 33 -159 111z" />
<glyph unicode="t" horiz-adv-x="995" d="M68 231v13q61 0 110 73v123l12 49l-12 50v36l25 37v86q0 68 61 99h12q121 0 173 -209l-37 -37l-62 49q-37 -68 -49 -160l12 -73l-12 -13l12 -12h13l270 37h12q92 -14 99 -49l-50 -49l13 -13v-24q0 -39 -271 -74q0 -43 -86 -61q23 -381 136 -381l73 -37q141 0 295 270 l98 25h13l24 -25v-12l-12 -12l12 -13l-12 -61l12 -37l-135 -160q-117 -135 -319 -135q-319 135 -320 295v111l12 184q-122 24 -122 110z" />
<glyph unicode="u" horiz-adv-x="1085" d="M84 248q0 197 111 319h24q37 0 37 -73l61 36q86 -41 86 -98q-25 -55 -49 -61h-61q0 -43 -62 -99q80 -332 394 -331q172 80 172 184q37 0 73 209l86 74h13q98 0 98 -111q-100 -311 -221 -393q0 -72 -197 -135q-315 0 -516 258q-33 51 -49 221z" />
<glyph unicode="v" horiz-adv-x="1171" d="M55 563q0 29 62 37q43 0 172 -258q102 0 270 -344q35 -86 62 -86q98 213 98 295l12 37h12l-24 73q72 195 209 345l73 12l37 -49q0 -70 -98 -222q49 0 49 -24q0 -74 -147 -197q-106 -504 -209 -504h-62q-211 213 -233 332q-33 0 -148 283q-135 153 -135 270z" />
<glyph unicode="w" horiz-adv-x="1290" d="M6 403v37l37 37h49q68 -45 197 -270l-13 -12q61 -25 111 -185q25 0 25 -49l12 -12h25v12q0 61 -25 62q0 197 135 196l172 -37q0 -76 184 -221v12l-24 74q0 53 37 98l-13 13v12q41 41 86 221q23 0 111 209q98 12 98 98l37 37h13q25 -6 49 -61q-37 -199 -246 -701l37 -196 q-27 0 -49 -86l-86 -13q-80 115 -283 308q-63 0 -209 -344l-74 -13q-51 0 -110 160q0 96 -283 614z" />
<glyph unicode="x" horiz-adv-x="937" d="M68 322v12h12l-12 12v12l36 37h50q68 0 98 -61l37 12q41 0 123 -61q53 33 405 479h25l49 -25q0 -49 -62 -49l13 -12v-37l-49 -61l12 -13v-49l-12 -12l12 -12v-13q0 -55 -197 -258l-61 -98l160 -160v-49q0 -25 -74 -25v-12l123 -221l-37 -25l12 -12v-37l-24 -24 q-104 0 -160 135q-25 2 -148 172q-27 0 -98 -172l-37 -25h-24q-74 27 -74 99q-33 0 -74 36q0 57 160 258z" />
<glyph unicode="y" horiz-adv-x="1028" d="M-8 555l37 25h37l73 -62l74 25h12q53 -31 234 -320q141 -262 184 -295l37 13l-12 12q12 111 37 110l-13 13v12q10 98 25 98l-12 13v37l24 36v111l12 12l-12 13q18 295 98 294h50q29 0 36 -61q-88 -281 -135 -602l-12 -12v-13l12 -12v-12l-24 -86l12 -13v-12 q-92 -489 -221 -737l-135 -37q-246 63 -246 246l-25 135l74 25l111 -86q102 98 147 98l25 -98q-49 -72 -50 -173h37q43 0 148 443l-13 98q-215 137 -368 418q-25 0 -25 37l-61 86q-172 137 -172 221z" />
<glyph unicode="z" horiz-adv-x="880" d="M53 477v25q203 197 492 196h12l74 -159l12 -13l-25 -49l13 -37l-62 -49v-49l-123 -565l-12 -74l234 25q172 0 172 -37l-13 -111q-270 -147 -307 -147h-12q-33 0 -123 61l-74 -49q-39 0 -86 86l62 135l-25 62q0 176 86 381l-12 12l49 270v25h-49q0 -49 -49 -74 q-37 0 -234 135z" />
<glyph unicode="{" horiz-adv-x="884" d="M55 -27q74 160 209 160h62q307 0 307 -110l-37 -62q31 0 49 -98q-61 0 -61 -25l-258 49l-62 -12h-37q-98 0 -172 86v12zM80 588l49 49l12 -12l13 12h12q381 -119 381 -197v-12q0 -25 -62 -25q0 -61 -49 -61l-12 12h-12l-50 -12l-122 135l-62 -24q-61 0 -98 135zM301 -518 l221 160q0 25 74 24q111 74 147 74q86 -31 86 -86h-12l-24 -74q-20 0 -111 -123l-37 -24l-61 12q-37 -45 -172 -98q-57 0 -111 73v62z" />
<glyph unicode="|" horiz-adv-x="600" d="M43 1098v24l49 49h37q37 0 61 -172v-24l-12 -49l49 -172l-12 -13v-12l25 -86h-13l25 -111h-12l73 -479h37l-24 185h12l-49 245l12 13v12q-49 410 -74 455l-12 233h12l-12 12v25l49 61q37 -20 74 -258l-12 -37l49 -196l-13 -12l25 -123l-12 -13l24 -209h-12 q49 -186 98 -639l-12 -12q25 0 37 -123l-12 -12v-12l37 -283l-50 -86h-24q-80 0 -197 356q-37 0 -49 62l25 37l-13 12v12l13 13l-62 319l12 37l-110 664l-12 12v12h12q-37 115 -37 283zM326 29q25 -221 49 -222h12q-14 141 -37 160v25l12 12l-12 37l-12 -12h-12zM362 -266 v-13l25 -24v37h-25zM375 -389h24v61h-12z" />
<glyph unicode="}" horiz-adv-x="663" d="M0 -4v24q25 49 197 111v-12q238 98 319 98l62 -74q0 -111 -369 -245h-12q-197 30 -197 98zM86 451v36q336 283 393 283h62l37 -37v-12q-25 -72 -172 -221q0 -111 -259 -111h-12zM111 -385l49 49q0 -23 159 -61l13 12q0 -47 196 -123q41 0 74 -61l-49 -62l12 -12v-12 q0 -29 -110 -37q-129 43 -197 172q-86 0 -147 86v49z" />
<glyph unicode="~" horiz-adv-x="1599" d="M-8 27v36q160 248 344 271h61q123 0 566 -295h98q246 51 246 123q29 0 98 74h37q68 0 86 -50v-12q-100 -270 -197 -270l-110 -37l-74 12l-135 -12q-352 98 -467 270l-160 49q-246 -84 -246 -196l-49 -25h-37z" />
<glyph unicode="&#x45d;" horiz-adv-x="761" />
<glyph unicode="&#x40d;" horiz-adv-x="761" />
<glyph unicode="&#xa4;" horiz-adv-x="888" d="M25 784q0 86 98 86q98 -31 98 -73l135 61h123l148 -86q43 102 172 160h24q49 -25 49 -74l-12 -12h-12l12 -12v-25q-123 -129 -123 -184v-13l13 -49l-62 -160l111 -24v-86l24 -98l-49 -86h-147l-123 147h-12q-37 -25 -136 -25q-98 -61 -98 -86l25 -24v-25l-37 -37 q-184 29 -185 74v25q111 117 111 159q-61 121 -61 246v49l12 13q-39 98 -98 159zM258 428l37 -37l12 12h86q25 0 25 -36l12 -13h12q86 0 86 86l74 49q0 41 -37 86l13 74q0 37 -148 99l-61 -13h-50v-73q0 -80 74 -148l-61 -98h-13z" />
<glyph unicode="&#xa6;" horiz-adv-x="323" d="M35 -23l37 25q123 0 147 -98l12 -13v-73l-12 -13v-12q25 0 25 -37q0 -213 37 -516l-37 -49h-25q-160 0 -160 37q0 27 74 74l-24 123l12 61h-37zM35 1169v74q0 25 98 37q72 0 86 -98l-12 -13v-12l37 -61l-13 -37q12 -360 37 -406l-12 -37l12 -12v-12l-24 -74l12 -74 l-49 -49h-25q-76 0 -110 393l-13 13v12h13l-25 49l12 62v61l-12 49l12 13l-12 61v12l12 13v12z" />
<glyph unicode="&#xa7;" horiz-adv-x="880" d="M23 926q25 283 282 282q246 -25 246 -147q37 -6 37 -98v-25l-74 -74h-12q-14 0 -62 172q-123 49 -184 49q-76 -49 -111 -122v-25l13 -49l-13 -12q41 -270 271 -271q31 0 98 -86q283 -106 283 -270q0 -205 -148 -270q-92 -14 -98 -50v-12q197 -168 197 -246v-49 q0 -154 -111 -209q-227 -86 -307 -86q-86 18 -86 49v37q0 43 282 123v12l-12 13v12l12 12h13l12 -12h12l12 12v13q0 152 -331 319q-209 135 -209 234q0 123 135 393v12q-135 98 -135 209v25l12 12zM207 250q80 -150 135 -197h49l148 25l-13 12v12q135 115 136 172 q-137 133 -246 172h-25q-184 -87 -184 -196z" />
<glyph unicode="&#xa9;" horiz-adv-x="1306" d="M18 395q6 123 25 123l-12 12q0 326 331 394h50v24h12l221 25q283 -25 406 -86q172 -111 172 -406q0 -158 -136 -258q-45 0 -208 -123q-113 -78 -258 -86q0 -25 -62 -24h-49q-352 0 -455 221zM129 334q41 0 61 -123q66 -86 295 -86l50 12l61 -12l111 37v12l-62 -12h-98 l-12 12l-13 -12h-12q-307 49 -307 184q0 70 -62 98l-12 -12v-98zM190 629l13 -74v-25h12q23 0 74 209l12 13h-25q-37 0 -86 -123zM362 457q78 -135 197 -135q369 51 369 110h73l50 -37h12l37 135q0 242 -271 283h-24q0 -86 -25 -86l13 -61v-13q0 -68 -62 -98h-12 q-33 2 -123 246h-12q-160 0 -222 -271v-73z" />
<glyph unicode="&#xaa;" d="M43 -199q25 23 25 123l159 185q47 37 86 36q231 0 332 -159q-14 -98 -49 -99h-25l-61 50q-258 -6 -258 -111l-25 -25q0 -82 381 -110h13q61 0 61 110l37 209l-12 13q0 221 122 221q-18 147 -73 147l-13 -12q-197 12 -381 61l25 -86h-12q-184 141 -185 221v13q0 43 259 86 q276 -25 356 -99q147 -80 147 -491h-12l12 -12v-74l62 -356q-61 -8 -62 -62l-37 -12l-61 24v-12q0 -51 123 -110l110 61h37l37 -37v-37q-74 -111 -135 -110h-49q-135 0 -246 184v12h-123q-39 0 -86 -37l-61 25l-86 -12q-197 59 -234 135l-98 135v12zM817 -334v-12l12 -37h25 v12l-12 37h-25z" />
<glyph unicode="&#xab;" horiz-adv-x="1228" d="M18 -217q293 332 320 332q111 0 221 196q53 0 74 99l12 12h37l25 -25q0 -76 -86 -159q0 -27 -123 -123l-136 -221q-27 0 -110 -99q0 -27 418 -74q74 0 135 -110v-12q-98 -111 -184 -111h-74q-106 25 -258 98q-271 93 -271 197zM535 -20q0 37 172 61q233 244 331 258 q74 -27 74 -49q0 -111 -307 -221l-62 -49v-25q369 -94 431 -135v-25l-25 -24q-20 0 -25 -62l-37 -12q-45 35 -331 61q-104 31 -197 148q-20 0 -24 61v13z" />
<glyph unicode="&#xad;" horiz-adv-x="1089" d="M29 195q0 41 467 86l12 12l12 -12q209 49 393 61l25 25q111 -25 111 -86q-27 0 -62 -99l-455 -135q-160 6 -159 25q-55 -37 -197 -37q-147 0 -147 160z" />
<glyph unicode="&#xae;" horiz-adv-x="1239" d="M29 446v74l49 86l-12 12v13q0 197 516 418l86 12q264 -51 491 -307l12 -49q0 -346 -294 -431q-111 -74 -308 -73h-37q-156 0 -184 37l-37 -13q-282 53 -282 221zM164 545q0 -129 184 -172v24q-37 59 -61 258l12 74h-25q-68 -27 -110 -172v-12zM483 692l13 -12h61 q233 0 234 135q0 98 -185 98q-82 0 -123 -221zM520 446l25 -86l-13 -36l13 -13h12q233 18 234 86q0 53 -271 111v-62zM778 569q104 -49 185 -49q53 0 86 74v49q0 109 -136 172q0 -144 -135 -246z" />
<glyph unicode="&#xb0;" horiz-adv-x="679" d="M18 668v61q115 172 209 172l86 12q145 0 283 -184q-6 -184 -111 -184q-123 -61 -258 -62q-131 1 -209 185zM166 717q16 -98 98 -99q31 0 111 99q-51 37 -99 37z" />
<glyph unicode="&#xb1;" horiz-adv-x="1064" d="M29 281q0 72 307 159v13l12 110l-24 62q12 135 36 135h74q53 0 74 -283h172l12 -12l37 12l49 -37l-24 -49l12 -61q-135 -12 -135 -49v-25h-13q0 -61 87 -61l-13 -62h-12l-12 49l-13 -12q-70 6 -110 37h-25v-12l12 -222q0 -45 -73 -98q-123 66 -123 135h12l-12 13v12 l37 49v37q0 61 -295 74q-49 35 -49 86zM78 -358q0 25 98 49l12 -13q225 12 258 37l13 -12h12l344 37q111 -12 111 -37l-13 -12l13 -13v-12l-13 -37l25 -24l-61 -37l-74 12q-190 -12 -393 -61h-50l-12 12h-12l-25 -25q-233 35 -233 74v62zM692 121l25 24h37v-36l-13 -13v-12z " />
<glyph unicode="&#xb2;" horiz-adv-x="749" d="M12 -358l25 36l-12 13v12q170 127 282 602q104 43 111 111l-12 12l12 61v99l-12 86h12q-57 295 -111 295q-111 -55 -110 -185v-36l12 -74q-18 -49 -37 -49h-25q-43 0 -73 135v86q12 121 147 233q0 29 86 37q139 0 209 -307l-12 -12v-13l24 -159h-12l12 -13l-12 -61v-111 q0 -197 -61 -196l12 -13v-36l-172 -431h12l209 50l12 -13h13l98 25q0 -25 49 -25l12 -12v-12q-39 -135 -159 -135q-322 -86 -430 -86q-83 31 -99 86z" />
<glyph unicode="&#xb3;" horiz-adv-x="858" d="M31 -410q0 100 135 222l37 49q86 -12 86 -37v-37q-123 -133 -123 -197v-36q55 -86 123 -86h37l110 61h62q0 37 49 37q0 31 86 123q61 131 61 209q0 209 -209 208h-61q-51 0 -123 -61h-37l-74 74l13 49l-13 37q53 14 123 196l-12 13v24q49 25 49 123q61 45 62 135l-13 13 l-12 -13h-12l-49 13l-13 -13h-12q-270 63 -270 99v24q0 25 37 25q0 111 147 110q246 61 442 148q111 -18 111 -74q-8 -147 -172 -295v-37l12 -12v-12l-159 -406q369 -53 368 -368v-13q-37 -221 -147 -356q-76 -86 -283 -172h-98q-217 0 -258 209v24z" />
<glyph unicode="&#xb5;" horiz-adv-x="1105" d="M25 14h12l-12 13v86l49 98l-37 246l12 49l-12 12v12q18 98 49 99h25q147 -53 147 -160h-12l12 -12v-86l-12 -13l12 -36l-12 -99q84 -393 233 -393q283 125 283 479l-12 49q25 0 24 37l-24 99l12 49l-12 37q10 123 86 122q84 -74 159 -73q59 -104 74 -246l-37 -49h-24 l-37 24l-13 -12l50 -172l-25 -61l37 -148l-12 -12l12 -12q-27 0 -62 -99h-86l-49 37h-12q-147 -209 -332 -209q0 -31 -98 -49h-49l-13 12l-36 -12l49 -221l-13 -12h-12l12 -13v-24q-18 -49 -86 -49q-98 49 -98 405zM946 395h25v37h-25v-37z" />
<glyph unicode="&#xb6;" horiz-adv-x="1361" d="M4 512q84 406 197 406l147 61h12l50 -37l491 86l12 -12h13l12 12l61 -12h13l245 12l25 -37v-86q-55 -68 -197 -147q-14 -74 -86 -74v-25l99 -159q0 -31 37 -62v-12l-37 -37h-13q-37 0 -86 148l-49 12l-24 -49l12 -49l-12 -13v-12q37 -317 86 -442v-37l-13 -13l13 -12v-12 q0 -29 -111 -62l-98 25l12 61l-12 136h12q-20 51 -37 331l13 136l-13 36h13l-13 13v12l13 12l-37 148h12l-12 37l-222 -25l13 -12v-86l12 -111l-12 -123v-86l37 -147q-20 0 -37 -62l12 -73l-12 -13l12 -12v-86l25 -221l-25 -98q37 -59 37 -160v-37q-39 -98 -62 -98h-36 q-45 0 -74 258h12l-61 282l12 13v12l-12 61l12 13v12l-12 74v24l12 12l-12 50q-266 0 -332 159zM975 770h24v37h-24v-37z" />
<glyph unicode="&#xb9;" horiz-adv-x="776" d="M29 348q0 61 86 123q0 29 368 455q49 123 123 123h12l62 -62l-25 -37l62 -110l-62 -320l13 -12l-13 -62l13 -12v-12l-25 -74l12 -37l-24 -98l12 -12l-12 -62v-12l12 -74l-25 -98l13 -12l-25 -25v-74l-24 -135v-12l24 -135v-49l-24 -25q-98 0 -99 221q0 35 -73 98l-13 111 h13l-13 12l13 62v86l12 110l-12 13l24 147l-12 12v13l12 86h-12l-86 -49l24 -74l-73 -25l-49 37l-74 -49h-86z" />
<glyph unicode="&#xba;" horiz-adv-x="825" d="M70 41l118 289q181 196 305 196q43 0 80 -24q131 -184 199 -387l6 -168q-27 -276 -94 -381l-18 -4l-13 -64q-78 -114 -219 -114q-92 0 -211 49l-84 55q-108 73 -108 272q1 118 39 281zM145 -262q-3 -14 -2 -27q0 -90 119 -174l23 -12q53 -36 107 -36q96 0 196 114 q87 129 87 320q0 91 -20 196l-51 141l-31 21q-37 23 -88 23q-38 0 -84 -13l-10 6q-76 -115 -141 -141q-70 -147 -70 -226q0 -52 31 -73q58 -58 58 -88q0 -6 -3 -11q-24 -34 -56 -34q-26 0 -58 22z" />
<glyph unicode="&#xbb;" horiz-adv-x="1478" d="M86 -543q74 72 74 197q238 164 258 209v12h-25q-98 0 -282 172l-13 86l74 25h12l443 -135q86 -51 86 -99h-13l13 -12v-12q-68 -61 -148 -185q-80 -45 -221 -184q-25 0 -135 -123h-12l-13 12l-12 -12h-49l-37 37v12zM590 -543l147 197q219 283 332 393v25l-258 86h-12 l-37 -25q-70 23 -111 74v98l49 49h86q141 -74 320 -123q55 -51 184 -73l37 -74q-193 -197 -221 -197l12 -12v-12q-37 -37 -37 -123q-76 -137 -135 -184l-74 24q-49 -49 -86 -160q-92 0 -98 -61h-49l-49 49v49z" />
<glyph unicode="&#xc0;" horiz-adv-x="1046" d="M-2 -948q55 98 55 141l-12 78l65 149l-10 11v12l381 1071l74 227l22 99v10q-53 49 -53 205l43 35h23q25 -6 55 -86h21q6 43 30 43h13l22 -23v-63q-35 -29 -43 -134l8 -8h13l-21 -43q76 -25 76 -43v-35l-12 -8v-12q68 0 98 -424h-12l90 -520h-13q45 -291 76 -291v-12 l-12 -129l35 -250l-43 -150l8 -55l-31 -23q-57 0 -88 220l-53 301l10 12q-498 25 -498 86v55l-34 8l-162 -462q-18 0 -23 -56l-12 -12h-8q-59 0 -78 43l12 12l-12 13v8zM291 1692h12l-12 12v37l12 -12l12 12h13q92 0 98 -37v-12h-25v-13q129 -92 160 -233l74 -123 q-14 -111 -74 -111q-147 35 -147 160l-111 246zM346 -340h12l9 10h12l10 -10h12l129 23l21 -35q0 -31 -51 -56l-35 13l-43 -33l98 -43h98l44 -10l108 22v43l-10 51h10l-86 553h8l-20 91l20 86l-8 30h8l-8 33h-22l-142 -389h-12l22 -141l-10 -11h-12l12 -12v-8l-20 -25 l-56 33h-22q-76 -174 -76 -215z" />
<glyph unicode="&#xc2;" horiz-adv-x="1046" d="M-2 -948q55 98 55 141l-12 78l65 149l-10 11v12l381 1071l74 227l22 99v10q-53 49 -53 205l43 35h23q25 -6 55 -86h21q6 43 30 43h13l22 -23v-63q-35 -29 -43 -134l8 -8h13l-21 -43q76 -25 76 -43v-35l-12 -8v-12q68 0 98 -424h-12l90 -520h-13q45 -291 76 -291v-12 l-12 -129l35 -250l-43 -150l8 -55l-31 -23q-57 0 -88 220l-53 301l10 12q-498 25 -498 86v55l-34 8l-162 -462q-18 0 -23 -56l-12 -12h-8q-59 0 -78 43l12 12l-12 13v8zM262 1237v37l12 12l-12 12v13q66 221 160 282q49 123 123 123q41 -4 135 -123q98 0 160 -221v-12 l-25 -37l12 -12l-36 -25h-25q-37 49 -135 86l-13 12v86h-73l-135 -110h-62q0 -49 -49 -49l-12 -49q61 -10 61 -37v-13h-61zM346 -340h12l9 10h12l10 -10h12l129 23l21 -35q0 -31 -51 -56l-35 13l-43 -33l98 -43h98l44 -10l108 22v43l-10 51h10l-86 553h8l-20 91l20 86l-8 30 h8l-8 33h-22l-142 -389h-12l22 -141l-10 -11h-12l12 -12v-8l-20 -25l-56 33h-22q-76 -174 -76 -215z" />
<glyph unicode="&#xc3;" horiz-adv-x="1046" d="M-2 -948q55 98 55 141l-12 78l65 149l-10 11v12l381 1071l74 227l22 99v10q-53 49 -53 205l43 35h23q25 -6 55 -86h21q6 43 30 43h13l22 -23v-63q-35 -29 -43 -134l8 -8h13l-21 -43q76 -25 76 -43v-35l-12 -8v-12q68 0 98 -424h-12l90 -520h-13q45 -291 76 -291v-12 l-12 -129l35 -250l-43 -150l8 -55l-31 -23q-57 0 -88 220l-53 301l10 12q-498 25 -498 86v55l-34 8l-162 -462q-18 0 -23 -56l-12 -12h-8q-59 0 -78 43l12 12l-12 13v8zM117 1384v50q84 123 196 122q152 -6 320 -135l74 -24q133 160 172 159h12q55 -25 61 -49v-12l-24 -25 l12 -61q-147 -197 -233 -197q-166 0 -283 136l-49 12l-13 -12h-12l-12 12l-62 -12h-86q-63 -1 -73 36zM346 -340h12l9 10h12l10 -10h12l129 23l21 -35q0 -31 -51 -56l-35 13l-43 -33l98 -43h98l44 -10l108 22v43l-10 51h10l-86 553h8l-20 91l20 86l-8 30h8l-8 33h-22 l-142 -389h-12l22 -141l-10 -11h-12l12 -12v-8l-20 -25l-56 33h-22q-76 -174 -76 -215z" />
<glyph unicode="&#xc5;" horiz-adv-x="1046" d="M-2 -948q55 98 55 141l-12 78l65 149l-10 11v12l381 1071l74 227l22 99v10q-53 49 -53 205l43 35h23q25 -6 55 -86h21q6 43 30 43h13l22 -23v-63q-35 -29 -43 -134l8 -8h13l-21 -43q76 -25 76 -43v-35l-12 -8v-12q68 0 98 -424h-12l90 -520h-13q45 -291 76 -291v-12 l-12 -129l35 -250l-43 -150l8 -55l-31 -23q-57 0 -88 220l-53 301l10 12q-498 25 -498 86v55l-34 8l-162 -462q-18 0 -23 -56l-12 -12h-8q-59 0 -78 43l12 12l-12 13v8zM262 1260v61q115 172 209 172l86 12q145 0 283 -184q-6 -184 -111 -184q-123 -61 -258 -62 q-131 1 -209 185zM346 -340h12l9 10h12l10 -10h12l129 23l21 -35q0 -31 -51 -56l-35 13l-43 -33l98 -43h98l44 -10l108 22v43l-10 51h10l-86 553h8l-20 91l20 86l-8 30h8l-8 33h-22l-142 -389h-12l22 -141l-10 -11h-12l12 -12v-8l-20 -25l-56 33h-22q-76 -174 -76 -215z M410 1309q16 -98 98 -99q31 0 110 99q-51 37 -98 37z" />
<glyph unicode="&#xc8;" horiz-adv-x="1206" d="M47 -137q0 74 37 74l-25 49l13 61v12l-13 136l13 12v12l-13 12v13l13 12v12l-25 62l12 12v12l-12 13v12l12 12v12l-12 50l25 24l-13 62v147q0 135 37 135h25q35 0 49 -86q68 0 885 234q61 -14 61 -37l-24 -49l12 -62q-82 -2 -246 -135q-70 0 -418 -135l-12 -12h-25 l-184 49h-37l-24 -25v-37l61 -135v-184l12 -86h50q233 0 344 135l12 12h37l37 -37l-13 -12l13 -37h135l24 -24q0 -150 -208 -185q-113 -49 -295 -73h-13l-123 12l13 -148h-13l13 -12v-209l12 -147q225 111 516 454q49 -25 49 -73l-73 -135l-13 -13l-12 -37h12l246 50l12 -13 h13l49 13l24 -25q0 -162 -221 -197l-369 -98h-49q-12 -74 -258 -172h-12q-111 0 -111 234l13 49l-13 12l13 61v332zM770 1571h12l-12 12v37l12 -12l13 12h12q92 0 98 -37v-12h-24v-12q129 -92 159 -234l74 -123q-14 -111 -74 -110q-147 35 -147 159l-111 246z" />
<glyph unicode="&#xca;" horiz-adv-x="1206" d="M47 -137q0 74 37 74l-25 49l13 61v12l-13 136l13 12v12l-13 12v13l13 12v12l-25 62l12 12v12l-12 13v12l12 12v12l-12 50l25 24l-13 62v147q0 135 37 135h25q35 0 49 -86q68 0 885 234q61 -14 61 -37l-24 -49l12 -62q-82 -2 -246 -135q-70 0 -418 -135l-12 -12h-25 l-184 49h-37l-24 -25v-37l61 -135v-184l12 -86h50q233 0 344 135l12 12h37l37 -37l-13 -12l13 -37h135l24 -24q0 -150 -208 -185q-113 -49 -295 -73h-13l-123 12l13 -148h-13l13 -12v-209l12 -147q225 111 516 454q49 -25 49 -73l-73 -135l-13 -13l-12 -37h12l246 50l12 -13 h13l49 13l24 -25q0 -162 -221 -197l-369 -98h-49q-12 -74 -258 -172h-12q-111 0 -111 234l13 49l-13 12l13 61v332zM741 1116v37l13 12l-13 13v12q66 221 160 283q49 123 123 122q41 -4 135 -122q98 0 160 -222v-12l-25 -37l13 -12l-37 -25h-25q-37 49 -135 86l-12 13v86 h-74l-135 -111h-62q0 -49 -49 -49l-12 -49q61 -10 61 -37v-12h-61z" />
<glyph unicode="&#xcc;" horiz-adv-x="1075" d="M12 653v13q41 119 209 172l111 12h61l99 -25l12 13h12q342 -59 455 -148v-12l-13 -12v-13l25 -61l-37 -25q-315 86 -454 86v-37l12 -122h-12q37 -188 73 -725h-12q25 -59 37 -234h-12l12 -37h24l50 13q55 -25 159 -25l74 25h25l36 -37h13v-13l-86 -86l12 -37 q0 -37 -283 -61v-12l13 -74l-13 -12v-13l13 -49l-37 -37h-49q-20 0 -37 74l12 37q0 74 -98 74h-86l-49 -13q-49 12 -111 99q-86 0 -86 37v12l86 86l98 -12q197 0 197 37q-49 111 -74 245h13l-50 332l13 12l-13 13h-12l12 12v12l-12 49l12 13l-24 147h12l-25 98h13l-13 37 l13 172l-13 37l-49 -12l-49 12q-31 0 -110 -98h-37zM70 1522h12l-12 12v37l12 -12l12 12h12q92 0 99 -37v-12h-25v-13q129 -92 160 -233l74 -123q-14 -111 -74 -111q-147 35 -147 160l-111 246z" />
<glyph unicode="&#xce;" horiz-adv-x="1075" d="M12 653v13q41 119 209 172l111 12h61l99 -25l12 13h12q342 -59 455 -148v-12l-13 -12v-13l25 -61l-37 -25q-315 86 -454 86v-37l12 -122h-12q37 -188 73 -725h-12q25 -59 37 -234h-12l12 -37h24l50 13q55 -25 159 -25l74 25h25l36 -37h13v-13l-86 -86l12 -37 q0 -37 -283 -61v-12l13 -74l-13 -12v-13l13 -49l-37 -37h-49q-20 0 -37 74l12 37q0 74 -98 74h-86l-49 -13q-49 12 -111 99q-86 0 -86 37v12l86 86l98 -12q197 0 197 37q-49 111 -74 245h13l-50 332l13 12l-13 13h-12l12 12v12l-12 49l12 13l-24 147h12l-25 98h13l-13 37 l13 172l-13 37l-49 -12l-49 12q-31 0 -110 -98h-37zM41 1067v37l12 12l-12 12v13q66 221 160 282q49 123 123 123q41 -4 135 -123q98 0 159 -221v-12l-24 -37l12 -12l-37 -25h-24q-37 49 -135 86l-13 12v86h-73l-136 -110h-61q0 -49 -49 -49l-12 -49q61 -10 61 -37v-13h-61z " />
<glyph unicode="&#xd1;" horiz-adv-x="1052" d="M47 348q10 98 25 98l-25 148q43 258 98 258h25q18 0 111 -184q47 -37 86 -148l245 -590q35 0 74 -209h12l13 13h12l-12 61v62l12 37l-12 36l12 443l-12 368h12l-12 13v110q0 29 86 49q68 0 98 -356l37 -160l-12 -12l49 -319l-13 -37l25 -99h-12l49 -86l-12 -12l12 -61 v-50l-37 -49l12 -61l-37 -25l-110 37v-12l147 -406l-24 -24l12 -74l-37 -25q-86 29 -233 394l-295 663q-113 244 -148 258l-12 -12l12 -12v-246l-12 -12l37 -86l-25 -37v-25q0 -166 25 -270l-49 -37l24 -61l-86 -62h-12q-86 0 -86 344v197l-12 49l12 61q0 90 -37 160z M338 1214v50q84 123 197 122q152 -6 319 -135l74 -24q133 160 172 159h12q55 -25 62 -49v-12l-25 -25l12 -61q-147 -197 -233 -197q-166 0 -283 136l-49 12l-12 -12h-13l-12 12l-61 -12h-86q-64 -1 -74 36z" />
<glyph unicode="&#xd2;" horiz-adv-x="1062" d="M61 379v160l86 61q72 295 222 295q55 25 159 25h37q213 0 406 -480v-24l-13 -13l25 -86l-12 -36l12 -13v-12l-12 -37l12 -37q-88 -627 -455 -626q-328 0 -467 823zM258 317l111 -147v-25q0 -27 -86 -49v-24q117 -221 258 -222h24q197 0 271 320l12 98l-12 49h12l-25 86 h13q-63 188 -234 283l-12 12h-86q-106 0 -234 -221l-12 -12l25 -49zM262 1522h12l-12 12v37l12 -12l13 12h12q92 0 98 -37v-12h-24v-13q129 -92 159 -233l74 -123q-14 -111 -74 -111q-147 35 -147 160l-111 246zM467 -272v-13q0 -31 111 -37q98 10 98 37v13l-123 -13h-25z " />
<glyph unicode="&#xd4;" horiz-adv-x="1062" d="M61 379v160l86 61q72 295 222 295q55 25 159 25h37q213 0 406 -480v-24l-13 -13l25 -86l-12 -36l12 -13v-12l-12 -37l12 -37q-88 -627 -455 -626q-328 0 -467 823zM233 1067v37l13 12l-13 12v13q66 221 160 282q49 123 123 123q41 -4 135 -123q98 0 160 -221v-12l-25 -37 l13 -12l-37 -25h-25q-37 49 -135 86l-12 12v86h-74l-135 -110h-62q0 -49 -49 -49l-12 -49q61 -10 61 -37v-13h-61zM258 317l111 -147v-25q0 -27 -86 -49v-24q117 -221 258 -222h24q197 0 271 320l12 98l-12 49h12l-25 86h13q-63 188 -234 283l-12 12h-86q-106 0 -234 -221 l-12 -12l25 -49zM467 -272v-13q0 -31 111 -37q98 10 98 37v13l-123 -13h-25z" />
<glyph unicode="&#xd5;" horiz-adv-x="1062" d="M61 379v160l86 61q72 295 222 295q55 25 159 25h37q213 0 406 -480v-24l-13 -13l25 -86l-12 -36l12 -13v-12l-12 -37l12 -37q-88 -627 -455 -626q-328 0 -467 823zM88 1214v50q84 123 197 122q152 -6 319 -135l74 -24q133 160 172 159h12q55 -25 62 -49v-12l-25 -25 l12 -61q-147 -197 -233 -197q-166 0 -283 136l-49 12l-12 -12h-12l-13 12l-61 -12h-86q-64 -1 -74 36zM258 317l111 -147v-25q0 -27 -86 -49v-24q117 -221 258 -222h24q197 0 271 320l12 98l-12 49h12l-25 86h13q-63 188 -234 283l-12 12h-86q-106 0 -234 -221l-12 -12 l25 -49zM467 -272v-13q0 -31 111 -37q98 10 98 37v13l-123 -13h-25z" />
<glyph unicode="&#xd9;" horiz-adv-x="1404" d="M-125 1710h12l-12 12v37l12 -12l13 12h12q92 0 98 -37v-12h-24v-12q129 -92 159 -234l74 -123q-14 -111 -74 -110q-147 35 -147 160l-111 245zM43 530l12 13v12l-12 37l25 172l-13 49l25 123v12l-12 49q16 88 73 111h37q29 0 37 -61l-12 -37h24l-12 -62v-37q37 0 49 -184 l-12 -12h-12l12 -13v-12l-25 -98v-12l13 -50l-13 -49l37 -209l-12 -36l24 -25l-12 -12v-13l25 -73l-13 -13q25 -4 74 -123l197 -73h24q219 0 381 282q86 236 99 357l12 12l-12 12v13q12 55 86 122l-50 86v37q12 37 74 37h25q37 0 61 -123h-12l25 -110l-13 -185l-12 -12 l12 -12v-12q-39 -111 -73 -111v-61q-203 -385 -381 -431q0 -66 -246 -122q-217 0 -406 331q-98 217 -98 516z" />
<glyph unicode="&#xdb;" horiz-adv-x="1404" d="M-154 1255v37l13 13l-13 12v12q66 221 160 283q49 123 123 123q41 -4 135 -123q98 0 160 -221v-13l-25 -37l13 -12l-37 -24h-25q-37 49 -135 86l-12 12v86h-74l-135 -111h-62q0 -49 -49 -49l-12 -49q61 -10 61 -37v-12h-61zM43 530l12 13v12l-12 37l25 172l-13 49l25 123 v12l-12 49q16 88 73 111h37q29 0 37 -61l-12 -37h24l-12 -62v-37q37 0 49 -184l-12 -12h-12l12 -13v-12l-25 -98v-12l13 -50l-13 -49l37 -209l-12 -36l24 -25l-12 -12v-13l25 -73l-13 -13q25 -4 74 -123l197 -73h24q219 0 381 282q86 236 99 357l12 12l-12 12v13 q12 55 86 122l-50 86v37q12 37 74 37h25q37 0 61 -123h-12l25 -110l-13 -185l-12 -12l12 -12v-12q-39 -111 -73 -111v-61q-203 -385 -381 -431q0 -66 -246 -122q-217 0 -406 331q-98 217 -98 516z" />
<glyph unicode="&#xe0;" d="M43 -199q25 23 25 123l159 185q47 37 86 36q231 0 332 -159q-14 -98 -49 -99h-25l-61 50q-258 -6 -258 -111l-25 -25q0 -82 381 -110h13q61 0 61 110l37 209l-12 13q0 221 122 221q-18 147 -73 147l-13 -12q-197 12 -381 61l25 -86h-12q-184 141 -185 221v13q0 43 259 86 q276 -25 356 -99q147 -80 147 -491h-12l12 -12v-74l62 -356q-61 -8 -62 -62l-37 -12l-61 24v-12q0 -51 123 -110l110 61h37l37 -37v-37q-74 -111 -135 -110h-49q-135 0 -246 184v12h-123q-39 0 -86 -37l-61 25l-86 -12q-197 59 -234 135l-98 135v12zM164 1276h12l-12 12v37 l12 -12l12 12h13q92 0 98 -37v-12h-25v-12q129 -92 160 -234l74 -123q-14 -111 -74 -110q-147 35 -147 159l-111 246zM817 -334v-12l12 -37h25v12l-12 37h-25z" />
<glyph unicode="&#xe2;" d="M43 -199q25 23 25 123l159 185q47 37 86 36q231 0 332 -159q-14 -98 -49 -99h-25l-61 50q-258 -6 -258 -111l-25 -25q0 -82 381 -110h13q61 0 61 110l37 209l-12 13q0 221 122 221q-18 147 -73 147l-13 -12q-197 12 -381 61l25 -86h-12q-184 141 -185 221v13q0 43 259 86 q276 -25 356 -99q147 -80 147 -491h-12l12 -12v-74l62 -356q-61 -8 -62 -62l-37 -12l-61 24v-12q0 -51 123 -110l110 61h37l37 -37v-37q-74 -111 -135 -110h-49q-135 0 -246 184v12h-123q-39 0 -86 -37l-61 25l-86 -12q-197 59 -234 135l-98 135v12zM135 821v37l12 12 l-12 13v12q66 221 160 283q49 123 123 122q41 -4 135 -122q98 0 160 -222v-12l-25 -37l12 -12l-36 -25h-25q-37 49 -135 86l-12 13v86h-74l-135 -111h-62q0 -49 -49 -49l-12 -49q61 -10 61 -37v-12h-61zM817 -334v-12l12 -37h25v12l-12 37h-25z" />
<glyph unicode="&#xe3;" d="M-10 969v49q84 123 196 123q152 -6 320 -135l74 -25q133 160 172 160h12q55 -25 61 -49v-13l-24 -24l12 -62q-147 -197 -233 -196q-166 0 -283 135l-49 12l-12 -12h-13l-12 12l-61 -12h-87q-63 0 -73 37zM43 -199q25 23 25 123l159 185q47 37 86 36q231 0 332 -159 q-14 -98 -49 -99h-25l-61 50q-258 -6 -258 -111l-25 -25q0 -82 381 -110h13q61 0 61 110l37 209l-12 13q0 221 122 221q-18 147 -73 147l-13 -12q-197 12 -381 61l25 -86h-12q-184 141 -185 221v13q0 43 259 86q276 -25 356 -99q147 -80 147 -491h-12l12 -12v-74l62 -356 q-61 -8 -62 -62l-37 -12l-61 24v-12q0 -51 123 -110l110 61h37l37 -37v-37q-74 -111 -135 -110h-49q-135 0 -246 184v12h-123q-39 0 -86 -37l-61 25l-86 -12q-197 59 -234 135l-98 135v12zM817 -334v-12l12 -37h25v12l-12 37h-25z" />
<glyph unicode="&#xe5;" d="M43 -199q25 23 25 123l159 185q47 37 86 36q231 0 332 -159q-14 -98 -49 -99h-25l-61 50q-258 -6 -258 -111l-25 -25q0 -82 381 -110h13q61 0 61 110l37 209l-12 13q0 221 122 221q-18 147 -73 147l-13 -12q-197 12 -381 61l25 -86h-12q-184 141 -185 221v13q0 43 259 86 q276 -25 356 -99q147 -80 147 -491h-12l12 -12v-74l62 -356q-61 -8 -62 -62l-37 -12l-61 24v-12q0 -51 123 -110l110 61h37l37 -37v-37q-74 -111 -135 -110h-49q-135 0 -246 184v12h-123q-39 0 -86 -37l-61 25l-86 -12q-197 59 -234 135l-98 135v12zM121 981v61 q115 172 209 172l86 13q145 0 282 -185q-6 -184 -110 -184q-123 -61 -258 -61q-131 0 -209 184zM268 1030q16 -98 99 -98q31 0 110 98q-51 37 -98 37zM817 -334v-12l12 -37h25v12l-12 37h-25z" />
<glyph unicode="&#xe8;" horiz-adv-x="1079" d="M80 2h12l-12 12q0 215 221 430q98 61 197 74l12 -12h12l62 12q283 -59 282 -209v-12l-24 -86l12 -37q-51 -49 -98 -49h-37l-12 12h-13q0 -59 -393 -172l-61 -12v-25q0 -139 184 -258l123 -49q139 14 233 98q37 0 37 37q74 49 111 49h49l24 -24v-25q0 -182 -110 -233 q0 -43 -246 -74q-197 0 -405 160q-160 178 -160 393zM240 150l24 -50q117 0 418 136q49 0 49 36q0 57 -172 111q-217 0 -307 -233h-12zM256 1120h12l-12 13v36l12 -12l13 12h12q92 0 98 -36v-13h-24v-12q129 -92 159 -234l74 -122q-14 -111 -74 -111q-147 35 -147 160 l-111 246z" />
<glyph unicode="&#xea;" horiz-adv-x="1079" d="M80 2h12l-12 12q0 215 221 430q98 61 197 74l12 -12h12l62 12q283 -59 282 -209v-12l-24 -86l12 -37q-51 -49 -98 -49h-37l-12 12h-13q0 -59 -393 -172l-61 -12v-25q0 -139 184 -258l123 -49q139 14 233 98q37 0 37 37q74 49 111 49h49l24 -24v-25q0 -182 -110 -233 q0 -43 -246 -74q-197 0 -405 160q-160 178 -160 393zM227 666v36l13 13l-13 12v12q66 221 160 283q49 123 123 123q41 -4 135 -123q98 0 160 -221v-13l-25 -36l13 -13l-37 -24h-25q-37 49 -135 86l-12 12v86h-74l-135 -111h-62q0 -49 -49 -49l-12 -49q61 -10 61 -37v-12h-61 zM240 150l24 -50q117 0 418 136q49 0 49 36q0 57 -172 111q-217 0 -307 -233h-12z" />
<glyph unicode="&#xec;" horiz-adv-x="321" d="M-84 1417h12l-12 13v36l12 -12l13 12h12q92 0 98 -36v-13h-24v-12q129 -92 159 -234l74 -122q-14 -111 -74 -111q-147 35 -147 160l-111 245zM23 618v50l86 61q0 55 61 86h61q29 0 50 -123q0 -70 -99 -123q-159 10 -159 49zM53 205l10 12l-10 12q35 37 62 37h18 q37 -59 86 -86l53 -209h-6q14 -43 33 -381h-8l8 -12v-12l-27 -37h-34l-95 37l-28 74l10 49l-29 196l10 13v12z" />
<glyph unicode="&#xee;" horiz-adv-x="321" d="M-113 963v36l13 13l-13 12v12q66 221 160 283q49 123 123 123q41 -4 135 -123q98 0 160 -221v-13l-25 -36l13 -13l-37 -24h-25q-37 49 -135 86l-12 12v86h-74l-135 -111h-62q0 -49 -49 -49l-12 -49q61 -10 61 -37v-12h-61zM23 618v50l86 61q0 55 61 86h61q29 0 50 -123 q0 -70 -99 -123q-159 10 -159 49zM53 205l10 12l-10 12q35 37 62 37h18q37 -59 86 -86l53 -209h-6q14 -43 33 -381h-8l8 -12v-12l-27 -37h-34l-95 37l-28 74l10 49l-29 196l10 13v12z" />
<glyph unicode="&#xf1;" horiz-adv-x="1009" d="M-45 834v49q84 123 197 123q152 -6 319 -136l74 -24q133 160 172 160h12q55 -25 62 -50v-12l-25 -24l12 -62q-147 -197 -233 -196q-166 0 -283 135l-49 12l-12 -12h-13l-12 12l-61 -12h-86q-64 0 -74 37zM35 489q16 49 110 50q72 -94 99 -283q59 0 110 -172h13l110 209 q92 135 197 135q74 -125 74 -184h61q49 -37 49 -271v-61l12 -49l-12 -37l12 -37h-12q25 -49 25 -135v-25q-25 -18 -25 -135l-37 -24q-111 0 -110 245l-13 37l13 12v13l-49 332l12 12q-25 0 -49 110l-13 13h-12q-123 -168 -123 -258v-25l12 -12v-12q-20 0 -73 -332l-86 -86 h-74q-43 0 -74 331q-61 158 -123 553q-20 0 -24 86z" />
<glyph unicode="&#xf2;" horiz-adv-x="825" d="M70 41l118 289q181 196 305 196q43 0 80 -24q131 -184 199 -387l6 -168q-27 -276 -94 -381l-18 -4l-13 -64q-78 -114 -219 -114q-92 0 -211 49l-84 55q-108 73 -108 272q1 118 39 281zM145 -262q-3 -14 -2 -27q0 -90 119 -174l23 -12q53 -36 107 -36q96 0 196 114 q87 129 87 320q0 91 -20 196l-51 141l-31 21q-37 23 -88 23q-38 0 -84 -13l-10 6q-76 -115 -141 -141q-70 -147 -70 -226q0 -52 31 -73q58 -58 58 -88q0 -6 -3 -11q-24 -34 -56 -34q-26 0 -58 22zM209 1128h12l-12 13v37l12 -13l12 13h13q92 0 98 -37v-13h-25v-12 q129 -92 160 -233l74 -123q-14 -111 -74 -111q-147 35 -147 160l-111 246z" />
<glyph unicode="&#xf4;" horiz-adv-x="825" d="M70 41l118 289q181 196 305 196q43 0 80 -24q131 -184 199 -387l6 -168q-27 -276 -94 -381l-18 -4l-13 -64q-78 -114 -219 -114q-92 0 -211 49l-84 55q-108 73 -108 272q1 118 39 281zM145 -262q-3 -14 -2 -27q0 -90 119 -174l23 -12q53 -36 107 -36q96 0 196 114 q87 129 87 320q0 91 -20 196l-51 141l-31 21q-37 23 -88 23q-38 0 -84 -13l-10 6q-76 -115 -141 -141q-70 -147 -70 -226q0 -52 31 -73q58 -58 58 -88q0 -6 -3 -11q-24 -34 -56 -34q-26 0 -58 22zM180 674v37l13 12l-13 12v13q66 221 160 282q49 123 123 123q41 -4 135 -123 q98 0 160 -221v-12l-25 -37l12 -12l-36 -25h-25q-37 49 -135 86l-12 12v86h-74l-135 -110h-62q0 -49 -49 -49l-12 -50q61 -10 61 -36v-13h-61z" />
<glyph unicode="&#xf5;" horiz-adv-x="825" d="M35 821v49q84 123 196 123q152 -6 320 -135l74 -24q133 160 172 159h12q55 -25 61 -49v-12l-24 -25l12 -61q-147 -197 -233 -197q-166 0 -283 135l-49 13l-12 -13h-13l-12 13l-61 -13h-86q-64 0 -74 37zM70 41l118 289q181 196 305 196q43 0 80 -24q131 -184 199 -387 l6 -168q-27 -276 -94 -381l-18 -4l-13 -64q-78 -114 -219 -114q-92 0 -211 49l-84 55q-108 73 -108 272q1 118 39 281zM145 -262q-3 -14 -2 -27q0 -90 119 -174l23 -12q53 -36 107 -36q96 0 196 114q87 129 87 320q0 91 -20 196l-51 141l-31 21q-37 23 -88 23q-38 0 -84 -13 l-10 6q-76 -115 -141 -141q-70 -147 -70 -226q0 -52 31 -73q58 -58 58 -88q0 -6 -3 -11q-24 -34 -56 -34q-26 0 -58 22z" />
<glyph unicode="&#xf9;" horiz-adv-x="1085" d="M-78 1169h12l-12 13v37l12 -13l13 13h12q92 0 98 -37v-13h-24v-12q129 -92 160 -233l73 -123q-14 -111 -73 -111q-147 35 -148 160l-111 246zM84 248q0 197 111 319h24q37 0 37 -73l61 36q86 -41 86 -98q-25 -55 -49 -61h-61q0 -43 -62 -99q80 -332 394 -331 q172 80 172 184q37 0 73 209l86 74h13q98 0 98 -111q-100 -311 -221 -393q0 -72 -197 -135q-315 0 -516 258q-33 51 -49 221z" />
<glyph unicode="&#xfb;" horiz-adv-x="1085" d="M-106 715v37l12 12l-12 12v12q66 221 159 283q49 123 123 123q41 -4 135 -123q98 0 160 -221v-12l-25 -37l13 -13l-37 -24h-25q-37 49 -135 86l-12 12v86h-74l-135 -110h-61q0 -49 -50 -50l-12 -49q61 -10 62 -37v-12h-62zM84 248q0 197 111 319h24q37 0 37 -73l61 36 q86 -41 86 -98q-25 -55 -49 -61h-61q0 -43 -62 -99q80 -332 394 -331q172 80 172 184q37 0 73 209l86 74h13q98 0 98 -111q-100 -311 -221 -393q0 -72 -197 -135q-315 0 -516 258q-33 51 -49 221z" />
<glyph unicode="&#x152;" horiz-adv-x="2269" d="M61 379v160l86 61q72 295 222 295q55 25 159 25h37q213 0 406 -480v-24l-13 -13l25 -86l-12 -36l12 -13v-12l-12 -37l12 -37q-88 -627 -455 -626q-328 0 -467 823zM258 317l111 -147v-25q0 -27 -86 -49v-24q117 -221 258 -222h24q197 0 271 320l12 98l-12 49h12l-25 86 h13q-63 188 -234 283l-12 12h-86q-106 0 -234 -221l-12 -12l25 -49zM467 -272v-13q0 -31 111 -37q98 10 98 37v13l-123 -13h-25zM1110 -137q0 74 37 74l-25 49l13 61v12l-13 136l13 12v12l-13 12v13l13 12v12l-25 62l12 12v12l-12 13v12l12 12v12l-12 50l25 24l-13 62v147 q0 135 37 135h25q35 0 49 -86q68 0 885 234q61 -14 61 -37l-25 -49l13 -62q-82 -2 -246 -135q-70 0 -418 -135l-12 -12h-25l-184 49h-37l-24 -25v-37l61 -135v-184l12 -86h49q233 0 345 135l12 12h37l37 -37l-13 -12l13 -37h135l24 -24q0 -150 -209 -185q-113 -49 -294 -73 h-13l-123 12l13 -148h-13l13 -12v-209l12 -147q225 111 516 454q49 -25 49 -73l-74 -135l-12 -13l-12 -37h12l246 50l12 -13h12l50 13l24 -25q0 -162 -221 -197l-369 -98h-49q-12 -74 -258 -172h-12q-111 0 -111 234l13 49l-13 12l13 61v332z" />
<glyph unicode="&#x153;" horiz-adv-x="1904" d="M70 41l118 289q181 196 305 196q43 0 80 -24q131 -184 199 -387l6 -168q-27 -276 -94 -381l-18 -4l-13 -64q-78 -114 -219 -114q-92 0 -211 49l-84 55q-108 73 -108 272q1 118 39 281zM145 -262q-3 -14 -2 -27q0 -90 119 -174l23 -12q53 -36 107 -36q96 0 196 114 q87 129 87 320q0 91 -20 196l-51 141l-31 21q-37 23 -88 23q-38 0 -84 -13l-10 6q-76 -115 -141 -141q-70 -147 -70 -226q0 -52 31 -73q58 -58 58 -88q0 -6 -3 -11q-24 -34 -56 -34q-26 0 -58 22zM905 2h13l-13 12q0 215 221 430q98 61 197 74l12 -12h13l61 12 q283 -59 283 -209v-12l-25 -86l12 -37q-51 -49 -98 -49h-37l-12 12h-12q0 -59 -394 -172l-61 -12v-25q0 -139 184 -258l123 -49q139 14 234 98q37 0 36 37q74 49 111 49h49l25 -24v-25q0 -182 -111 -233q0 -43 -246 -74q-197 0 -405 160q-160 178 -160 393zM1065 150l25 -50 q117 0 417 136q49 0 49 36q0 57 -172 111q-217 0 -307 -233h-12z" />
<glyph unicode="&#x2c6;" horiz-adv-x="638" d="M-12 395v37l12 12l-12 13v12q66 221 159 283q49 123 123 122q41 -4 136 -122q98 0 159 -222v-12l-24 -37l12 -12l-37 -25h-24q-37 49 -136 86l-12 13v86h-74l-135 -111h-61q0 -49 -49 -49l-13 -49q61 -10 62 -37v-12h-62z" />
<glyph unicode="&#x2dc;" horiz-adv-x="745" d="M-20 582v49q84 123 196 123q152 -6 320 -136l73 -24q133 160 172 160h13q55 -25 61 -49v-13l-24 -24l12 -62q-147 -197 -234 -196q-166 0 -282 135l-49 12l-13 -12h-12l-12 12l-62 -12h-86q-63 0 -73 37z" />
<glyph unicode="&#x2013;" horiz-adv-x="987" d="M6 88v37q0 70 565 98q86 0 136 25q135 -18 135 -49l-13 -74l13 -49l-99 -62h-12l-61 49l-394 -49h-147q-74 0 -123 74z" />
<glyph unicode="&#x2014;" horiz-adv-x="1343" d="M-8 250v12l24 49l-12 37l12 12h13q541 -12 540 -49l86 13l246 -25l209 37l111 -37v-25l-37 -49v-24q37 0 61 -49q-37 -45 -37 -86l13 -37q-63 -8 -111 -62h-12l-37 13l-25 -25q-25 0 -37 98h-12l-160 -12l-49 12l-12 -12l-98 12l-357 -24q-86 18 -86 49v61l49 49h197v13 l-172 24l-49 -12l-49 12l-74 -12q-135 0 -135 37z" />
<glyph unicode="&#x2018;" horiz-adv-x="503" d="M61 889h13l-13 12v37l13 -12l12 12h12q92 0 99 -37v-12h-25v-12q129 -92 160 -234l74 -123q-14 -111 -74 -110q-147 35 -148 159l-110 246z" />
<glyph unicode="&#x2019;" horiz-adv-x="274" d="M12 881v24l37 37h49q98 -74 99 -147l-13 -13l25 -221l-12 -12h-13l13 -12l-13 -50v-24h13l-13 -86v-98l-73 -37h-13q-27 0 -49 98l12 12v13l-12 12l25 233v13l12 12q0 56 -74 246z" />
<glyph unicode="&#x201c;" horiz-adv-x="851" d="M121 588l37 258l-37 147l49 37h37q172 -160 172 -258v-74q-68 -283 -148 -282h-36l-37 37l12 12zM526 526q25 23 25 172l12 13q31 147 49 147l-12 12v37q0 68 74 111h24q61 -43 62 -74l-25 -98q49 -18 49 -86v-62l-12 -49l12 -49q-20 0 -73 -147q-51 0 -99 -37h-12 q-31 -1 -74 110z" />
<glyph unicode="&#x201d;" horiz-adv-x="851" d="M121 588l37 258l-37 147l49 37h37q172 -160 172 -258v-74q-68 -283 -148 -282h-36l-37 37l12 12zM526 526q25 23 25 172l12 13q31 147 49 147l-12 12v37q0 68 74 111h24q61 -43 62 -74l-25 -98q49 -18 49 -86v-62l-12 -49l12 -49q-20 0 -73 -147q-51 0 -99 -37h-12 q-31 -1 -74 110z" />
<glyph unicode="&#x2022;" horiz-adv-x="952" d="M104 444q84 283 172 283q0 18 86 61h87q111 -43 159 -196v-25h62l61 -61v-25l-12 -37h12q135 0 160 -135l-12 -12h-13l-49 49q-160 61 -160 172l-12 12h-12q0 -74 -62 -73q0 -96 -258 -123q0 -25 37 -25q0 -61 49 -61l74 -148v-12l-24 -25h-13q-18 0 -74 99l13 12l-13 37 l-12 -12h-12q-234 143 -234 245z" />
<glyph unicode="&#x2026;" horiz-adv-x="1828" d="M10 -414q84 135 209 135h37q123 -70 147 -110v-12q0 -63 -73 -123q53 -131 98 -135v-37l-49 -13q-61 111 -123 111q-37 0 -86 49q-143 72 -160 123v12zM686 -389q23 49 86 49h12q109 0 271 -197l-111 -36q-131 86 -184 86l-74 73v25zM1190 -512q0 25 98 49q0 152 86 184 q0 68 49 86q115 -86 185 -86l24 -49q-14 -98 -49 -98h-12l-98 25h-13q-39 -14 -74 -123l-12 -13h-98l-62 -12z" />
<glyph unicode="&#x2039;" horiz-adv-x="638" d="M-6 4l123 86l12 12v13l-49 73q0 37 123 246q92 209 184 209h12l50 -49v-86q0 -113 -197 -467q66 -43 123 -147l196 -234l-24 -37l12 -49l-12 -12h-37q-113 0 -258 196l-148 111q-111 25 -110 98v37z" />
<glyph unicode="&#x203a;" horiz-adv-x="532" d="M29 274v50q29 61 123 61h12q221 -166 221 -246v-24q74 -31 74 -74q-20 -197 -49 -197l12 -12v-37l-37 -86l12 -37l-98 -405l-49 -25q-88 0 -135 111q0 145 110 430v12l-12 12q74 25 74 99v12l-246 344z" />
<glyph unicode="&#x2122;" horiz-adv-x="1851" d="M96 612v50q0 37 307 73q0 18 136 37l12 -12h12l209 24v-24l-24 -49l24 -62q-45 -37 -86 -37l37 -159q55 61 86 307l98 24q111 -49 135 -110l99 -49h12l12 12q29 0 62 86h12l-12 12v13q0 78 98 110h25q0 37 24 37h37q61 -2 62 -25l-13 -12v-12l13 -37h-13q0 -31 221 -234 l123 -135l-12 -12h-12l12 -12v-37l-37 -37q-74 0 -381 270h-24q-51 -25 -111 -196h-25l13 -13v-36q0 -37 -49 -37q-123 86 -197 86q0 -31 -86 -74q-74 -154 -123 -160l-61 25q-18 -49 -37 -49h-12q-111 0 -111 159h12q-14 61 -37 62l13 12v12l-25 74l12 12q-27 0 -49 136 h-12l-295 -62q-49 0 -74 49z" />
<glyph unicode="&#xe000;" horiz-adv-x="765" d="M0 765h765v-765h-765v765z" />
<glyph unicode="&#xfb01;" horiz-adv-x="1095" d="M0 -360q123 74 123 147l24 123v135l111 516q10 98 123 98l-12 62v61l61 13q115 -80 258 -394l-12 -12q37 -66 49 -209q0 -123 -49 -123v-49l61 -110q-12 -86 -37 -86l-122 49l12 61v37q-49 80 -49 147h12l-123 320h-24l-99 -221l12 -37q-37 0 -36 -184h-13 q23 -29 37 -172l12 12h173q25 0 36 -123l-135 -86l-37 -37l-12 12h-12l-111 -36v-123l12 -49l-12 -13v-12l12 -37q-12 -86 -36 -86h-62q-37 12 -37 74v24l13 50l-25 86l12 49v12q-98 12 -98 49v62zM797 618v50l86 61q0 55 61 86h62q29 0 49 -123q0 -70 -99 -123 q-159 10 -159 49zM827 205l11 12l-11 12q35 37 62 37h18q37 -59 86 -86l54 -209h-7q14 -43 33 -381h-8l8 -12v-12l-26 -37h-35l-94 37l-29 74l10 49l-29 196l11 13v12z" />
<glyph unicode="&#xfb02;" horiz-adv-x="1150" d="M0 -360q123 74 123 147l24 123v135l111 516q10 98 123 98l-12 62v61l61 13q115 -80 258 -394l-12 -12q37 -66 49 -209q0 -123 -49 -123v-49l61 -110q-12 -86 -37 -86l-122 49l12 61v37q-49 80 -49 147h12l-123 320h-24l-99 -221l12 -37q-37 0 -36 -184h-13 q23 -29 37 -172l12 12h173q25 0 36 -123l-135 -86l-37 -37l-12 12h-12l-111 -36v-123l12 -49l-12 -13v-12l12 -37q-12 -86 -36 -86h-62q-37 12 -37 74v24l13 50l-25 86l12 49v12q-98 12 -98 49v62zM723 637v49q68 74 111 74q25 -43 135 -74q49 -106 49 -356v-135l12 -74 l-12 -12l12 -62v-24l-12 -13l12 -12v-61l12 -148h-12l25 -135l-37 -160v-49h-25q0 -37 -24 -37l-37 37v98l-12 62l12 12q-68 47 -86 664q-68 356 -123 356z" />
<glyph unicode="&#xfb03;" horiz-adv-x="1869" d="M0 -360q123 74 123 147l24 123v135l111 516q10 98 123 98l-12 62v61l61 13q115 -80 258 -394l-12 -12q37 -66 49 -209q0 -123 -49 -123v-49l61 -110q-12 -86 -37 -86l-122 49l12 61v37q-49 80 -49 147h12l-123 320h-24l-99 -221l12 -37q-37 0 -36 -184h-13 q23 -29 37 -172l12 12h173q25 0 36 -123l-135 -86l-37 -37l-12 12h-12l-111 -36v-123l12 -49l-12 -13v-12l12 -37q-12 -86 -36 -86h-62q-37 12 -37 74v24l13 50l-25 86l12 49v12q-98 12 -98 49v62zM774 -360q123 74 123 147l25 123v135l110 516q10 98 123 98l-12 62v61 l61 13q115 -80 258 -394l-12 -12q37 -66 49 -209q0 -123 -49 -123v-49l61 -110q-12 -86 -36 -86l-123 49l12 61v37q-49 80 -49 147h12l-123 320h-24l-99 -221l13 -37q-37 0 -37 -184h-13q23 -29 37 -172l13 12h172q25 0 37 -123l-136 -86l-37 -37l-12 12h-12l-111 -36v-123 l13 -49l-13 -13v-12l13 -37q-12 -86 -37 -86h-62q-37 12 -37 74v24l13 50l-25 86l12 49v12q-98 12 -98 49v62zM1571 618v50l86 61q0 55 61 86h62q29 0 49 -123q0 -70 -98 -123q-160 10 -160 49zM1602 205l10 12l-10 12q35 37 61 37h18q37 -59 86 -86l54 -209h-6 q14 -43 32 -381h-8l8 -12v-12l-26 -37h-35l-94 37l-29 74l10 49l-28 196l10 13v12z" />
<glyph unicode="&#xfb04;" horiz-adv-x="1925" d="M0 -360q123 74 123 147l24 123v135l111 516q10 98 123 98l-12 62v61l61 13q115 -80 258 -394l-12 -12q37 -66 49 -209q0 -123 -49 -123v-49l61 -110q-12 -86 -37 -86l-122 49l12 61v37q-49 80 -49 147h12l-123 320h-24l-99 -221l12 -37q-37 0 -36 -184h-13 q23 -29 37 -172l12 12h173q25 0 36 -123l-135 -86l-37 -37l-12 12h-12l-111 -36v-123l12 -49l-12 -13v-12l12 -37q-12 -86 -36 -86h-62q-37 12 -37 74v24l13 50l-25 86l12 49v12q-98 12 -98 49v62zM774 -360q123 74 123 147l25 123v135l110 516q10 98 123 98l-12 62v61 l61 13q115 -80 258 -394l-12 -12q37 -66 49 -209q0 -123 -49 -123v-49l61 -110q-12 -86 -36 -86l-123 49l12 61v37q-49 80 -49 147h12l-123 320h-24l-99 -221l13 -37q-37 0 -37 -184h-13q23 -29 37 -172l13 12h172q25 0 37 -123l-136 -86l-37 -37l-12 12h-12l-111 -36v-123 l13 -49l-13 -13v-12l13 -37q-12 -86 -37 -86h-62q-37 12 -37 74v24l13 50l-25 86l12 49v12q-98 12 -98 49v62zM1497 637v49q68 74 111 74q25 -43 135 -74q49 -106 49 -356v-135l12 -74l-12 -12l12 -62v-24l-12 -13l12 -12v-61l13 -148h-13l25 -135l-37 -160v-49h-25 q0 -37 -24 -37l-37 37v98l-12 62l12 12q-68 47 -86 664q-68 356 -123 356z" />
</font>
</defs>
</svg>
