<?xml version="1.0" standalone="no"?>
<!DOCTYPE svg PUBLIC "-//W3C//DTD SVG 1.1//EN" "http://www.w3.org/Graphics/SVG/1.1/DTD/svg11.dtd" >
<svg xmlns="http://www.w3.org/2000/svg">
<metadata>
This is a custom SVG webfont generated by Font Squirrel.
Copyright   : Copyright C 1993 Type Market Ltd Moscow 119136 Box 20 phone0951427712 Created by AKustov
</metadata>
<defs>
<font id="RodeoBold" horiz-adv-x="1705" >
<font-face units-per-em="2048" ascent="1638" descent="-410" />
<missing-glyph horiz-adv-x="532" />
<glyph unicode=" "  horiz-adv-x="532" />
<glyph unicode="&#x09;" horiz-adv-x="532" />
<glyph unicode="&#xa0;" horiz-adv-x="532" />
<glyph unicode="!" horiz-adv-x="587" d="M137 0v332h314v-332h-314zM141 1012v409h305v-409l-77 -516h-152z" />
<glyph unicode="&#x22;" horiz-adv-x="677" d="M80 879v559h192v-559h-192zM406 879v559h192v-559h-192z" />
<glyph unicode="#" horiz-adv-x="1574" d="M45 406l76 200h282l86 242h-299l74 201h297l148 415h221l-146 -415h242l148 415h221l-148 -415h283l-74 -201h-280l-84 -242h290l-71 -200h-291l-148 -416h-221l148 416h-244l-149 -416h-220l146 416h-287zM621 606h251l86 242h-249z" />
<glyph unicode="$" horiz-adv-x="1067" d="M68 1053q0 166 97 265t271 99v162h133v-164q43 -14 74 -33.5t68 -50.5v90h217v-444h-217v98q-33 94 -148 127v-334l125 -71q160 -92 235.5 -193.5t75.5 -236.5q0 -180 -108.5 -276.5t-315.5 -96.5l-6 -207h-133v223q-84 29 -139 80v-90h-219v487h219v-116 q23 -92 149 -152v399l-129 72q-249 144 -249 363zM324 1081q0 -92 127 -163v299q-61 0 -94 -37.5t-33 -98.5zM561 205q168 16 168 157q0 63 -40 109.5t-128 89.5v-356z" />
<glyph unicode="%" horiz-adv-x="1630" d="M35 1036q0 188 91 299t239 111q150 0 238.5 -109.5t88.5 -300.5q0 -188 -89 -297.5t-238.5 -109.5t-239.5 108.5t-90 298.5zM250 1036q0 -100 31.5 -158.5t80.5 -58.5q53 0 85 56.5t32 160.5q0 102 -32.5 159.5t-84.5 57.5q-49 0 -80.5 -57.5t-31.5 -159.5zM291 -29 l868 1475h178l-868 -1475h-178zM936 379q0 190 89 299.5t239 109.5q147 0 238 -110.5t91 -298.5q0 -190 -90 -299t-239.5 -109t-238.5 107.5t-89 300.5zM1149 379q0 -102 32.5 -159.5t82.5 -57.5q51 0 82.5 57t31.5 160q0 104 -30.5 160.5t-83.5 56.5q-51 0 -83 -56.5 t-32 -160.5z" />
<glyph unicode="&#x26;" horiz-adv-x="1521" d="M49 436q0 274 361 445q-98 141 -99 249q0 139 98.5 227.5t262.5 88.5q168 0 265 -81t97 -214q0 -92 -56 -164t-175 -143l205 -260q113 158 155 290h307v-225h-155q-39 -84 -76 -143.5t-86 -114.5l125 -164h192v-227h-389l-123 164q-184 -193 -421 -193q-201 0 -338 127 q-150 137 -150 338zM356 479q0 -90 71 -158.5t167 -68.5q106 0 223 104l-276 351q-90 -37 -137.5 -97.5t-47.5 -130.5zM584 1176q0 -63 82 -164q121 80 120 162q0 37 -29.5 66.5t-72.5 29.5q-100 0 -100 -94z" />
<glyph unicode="'" horiz-adv-x="352" d="M80 879v559h192v-559h-192z" />
<glyph unicode="(" horiz-adv-x="872" d="M219 563q0 344 143.5 573.5t403.5 309.5v-199q-244 -160 -244 -682q0 -528 244 -686v-201q-262 82 -404.5 310.5t-142.5 574.5z" />
<glyph unicode=")" horiz-adv-x="872" d="M106 -123q125 82 183.5 249t58.5 433t-58 435q-60 169 -184 251v201q262 -82 404.5 -310.5t142.5 -574.5q0 -344 -143 -573.5t-404 -309.5v199z" />
<glyph unicode="*" horiz-adv-x="966" d="M141 1137l54 159l211 -77l-9 227h170l-8 -227l215 77l51 -161l-219 -62l142 -180l-138 -98l-127 188l-125 -188l-137 100l139 178z" />
<glyph unicode="+" d="M254 512v199h498v510h202v-510h498v-199h-498v-512h-202v512h-498z" />
<glyph unicode="," horiz-adv-x="532" d="M96 -186q150 23 150 161v25h-140v332h314v-297q0 -190 -77 -282.5t-247 -92.5v154z" />
<glyph unicode="-" d="M254 510v203h1198v-203h-1198z" />
<glyph unicode="." horiz-adv-x="532" d="M111 0v332h311v-332h-311z" />
<glyph unicode="/" horiz-adv-x="653" d="M-63 -190l559 1636h170l-562 -1636h-167z" />
<glyph unicode="0" horiz-adv-x="1067" d="M59 709q0 352 126 544.5t347 192.5q225 0 350.5 -194.5t125.5 -561.5q0 -340 -128 -529.5t-348 -189.5q-223 0 -348 191t-125 547zM373 713q0 -254 43 -386t116.5 -132t117.5 134t44 384q0 248 -44 383t-117.5 135t-116.5 -132t-43 -386z" />
<glyph unicode="1" horiz-adv-x="1067" d="M188 0v223h193v987h-193v211h500v-1198h176v-223h-676z" />
<glyph unicode="2" horiz-adv-x="1067" d="M63 61q0 147 43.5 264t141.5 230q20 23 233 231q72 70 111 127q55 80 55 174q0 145 -133 146q-156 0 -156 -268v-31h-264l-2 65q0 211 120 329t333 118q190 0 301.5 -99.5t111.5 -267.5q0 -141 -77 -248q-55 -76 -214 -200.5t-216 -190.5q-88 -102 -101 -217h387v205h221 v-428h-892z" />
<glyph unicode="3" horiz-adv-x="1067" d="M68 440v39h254q0 -268 180 -268q82 0 128 58.5t46 160.5q0 223 -250 223v221q231 0 231 197q0 162 -135 162q-137 0 -155 -203h-240q0 195 110.5 305.5t305.5 110.5q184 0 293.5 -103.5t109.5 -271.5q0 -233 -239 -313q281 -72 280 -355q0 -193 -128 -312.5t-335 -119.5 q-219 0 -337.5 121t-118.5 348z" />
<glyph unicode="4" horiz-adv-x="1067" d="M2 549l616 897h240v-864h158v-203h-158v-156h146v-223h-570v223h148v156h-525q-14 86 -55 170zM233 571h355l8 531z" />
<glyph unicode="5" horiz-adv-x="1067" d="M45 387l266 31q18 -219 181 -219q90 0 142 69.5t52 194.5q0 115 -49 181.5t-129 66.5q-98 0 -176 -123l-230 108l54 725h780v-348h-209l-16 127h-351l-24 -348q131 82 260 82q180 0 294 -126t114 -335q0 -233 -130.5 -367.5t-355.5 -134.5q-209 0 -333 108.5t-140 307.5z " />
<glyph unicode="6" horiz-adv-x="1067" d="M74 709q0 360 131 548.5t375 188.5q174 0 278.5 -95.5t124.5 -273.5l-240 -37q-37 197 -159 197q-92 0 -145.5 -97.5t-53.5 -285.5v-37q131 96 256 96q162 0 265.5 -121.5t103.5 -326.5q0 -221 -126 -357.5t-323 -136.5q-225 0 -356 194t-131 544zM391 610 q0 -190 50.5 -294.5t129.5 -104.5q72 0 113 60.5t41 172.5q0 119 -47 182.5t-131 63.5q-74 0 -156 -59v-21z" />
<glyph unicode="7" horiz-adv-x="1067" d="M82 991v430h917v-190q-172 -262 -256 -498q-90 -252 -90 -510h178v-223h-669v223h180v13q0 199 96.5 432t290.5 530h-428v-207h-219z" />
<glyph unicode="8" horiz-adv-x="1067" d="M47 381q0 137 69.5 231.5t207.5 139.5q-242 78 -242 323q0 162 123 266.5t327.5 104.5t328.5 -103.5t124 -267.5q0 -246 -242 -323q135 -45 205 -139.5t70 -231.5q0 -180 -133 -295t-350 -115q-219 0 -353.5 116t-134.5 294zM344 412q0 -94 54.5 -156.5t134 -62.5t135 61 t55.5 158q0 94 -53.5 155.5t-137.5 61.5q-80 0 -134 -62.5t-54 -154.5zM369 1040q0 -84 47 -141t116.5 -57t117.5 56t48 142t-47 141.5t-119 55.5q-70 0 -116.5 -55.5t-46.5 -141.5z" />
<glyph unicode="9" horiz-adv-x="1067" d="M55 952q0 223 125 358.5t322 135.5q227 0 358 -192.5t131 -544.5q0 -358 -132 -548t-376 -190q-174 0 -277.5 95.5t-123.5 273.5l240 37q37 -197 159 -197q92 0 144.5 98.5t52.5 282.5v39q-131 -96 -256 -96q-164 0 -265.5 121.5t-101.5 326.5zM338 973q0 -119 47 -182.5 t131 -63.5q74 0 156 59v21q0 193 -48.5 296t-129.5 103q-72 0 -114 -60t-42 -173z" />
<glyph unicode=":" horiz-adv-x="581" d="M133 0v332h313v-332h-313zM133 680v332h313v-332h-313z" />
<glyph unicode=";" horiz-adv-x="581" d="M129 -186q80 12 113.5 50t33.5 111v25h-137v332h312v-297q0 -190 -76 -282.5t-246 -92.5v154zM133 680v332h313v-332h-313z" />
<glyph unicode="&#x3c;" d="M264 512v199l1178 483v-219l-893 -365l893 -364v-219z" />
<glyph unicode="=" d="M254 297v199h1198v-199h-1198zM254 727v199h1198v-199h-1198z" />
<glyph unicode="&#x3e;" d="M264 27v219l895 364l-895 365v219l1178 -483v-199z" />
<glyph unicode="?" horiz-adv-x="1062" d="M43 999v23q0 190 133 307t354 117q215 0 346.5 -119t131.5 -311q0 -166 -104.5 -266.5t-287.5 -100.5h-28l-33 -164h-147l-21 385q27 -6 51.5 -10t50.5 -4q203 0 203 182q0 86 -51 139.5t-137 53.5q-80 0 -129 -53.5t-49 -147.5l2 -31h-285zM324 0v332h313v-332h-313z " />
<glyph unicode="@" horiz-adv-x="2048" d="M90 520q0 340 207 594q301 367 819 367q176 0 320.5 -45t255.5 -129q268 -207 268 -543q0 -340 -254 -543q-143 -115 -324 -115q-215 0 -215 166q-106 -164 -297 -163q-324 0 -323 340q0 242 140 402.5t343 160.5q160 0 236 -131l53 98h178l-147 -598l-7 -41 q0 -70 95 -70q37 0 80 19.5t81 56.5q174 162 175 422q0 238 -183.5 393.5t-480.5 155.5q-283 0 -483 -135q-168 -113 -260.5 -285t-92.5 -375q0 -305 208 -489.5t552 -184.5q162 0 316.5 49.5t287.5 141.5l82 -117q-309 -231 -682 -231q-195 0 -354.5 48t-284.5 144 q-309 240 -309 637zM760 444q0 -188 158 -188q82 0 150.5 61.5t94.5 165.5l54 217q-25 166 -175 166q-113 0 -197.5 -124t-84.5 -298z" />
<glyph unicode="A" horiz-adv-x="1417" d="M-41 0v231h156l313 969h-192v221h948v-221h-170l315 -969h129v-231h-631v231h152l-78 267h-412l-75 -267h157v-231h-612zM543 682h309l-154 526z" />
<glyph unicode="B" horiz-adv-x="1294" d="M33 0v231h151v969h-151v221h620q514 0 514 -379q0 -113 -49 -178t-168 -108q262 -96 262 -355q0 -401 -489 -401h-690zM522 231h107q129 0 187 40t58 141q0 223 -268 223h-84v-404zM522 844h86q225 0 226 180q0 96 -50.5 136t-167.5 40h-94v-356z" />
<glyph unicode="C" horiz-adv-x="1554" d="M61 709q0 332 207 534.5t514 202.5q279 0 441 -176v151h211v-491h-211q-78 141 -173.5 207.5t-222.5 66.5q-180 0 -284.5 -130t-104.5 -359.5t105.5 -359.5t287.5 -130q305 0 418 359l252 -121q-170 -492 -694 -492q-324 0 -535 209.5t-211 528.5z" />
<glyph unicode="D" horiz-adv-x="1490" d="M33 0v231h151v969h-151v221h696q336 0 518.5 -186t182.5 -524t-182.5 -524.5t-518.5 -186.5h-696zM530 231l105 -6q418 0 418 492q0 487 -445 487l-78 -4v-969z" />
<glyph unicode="E" horiz-adv-x="1280" d="M33 0v231h151v969h-151v221h1192v-440h-256v219h-439v-348h363v-234h-363v-387h439v234h256v-465h-1192z" />
<glyph unicode="F" horiz-adv-x="1214" d="M33 0v231h151v969h-151v221h1153v-440h-256v219h-400v-348h301v-234h-301v-387h193v-231h-690z" />
<glyph unicode="G" horiz-adv-x="1601" d="M61 709q0 330 208 533.5t522 203.5q283 0 444 -176v151h211v-491h-211q-82 141 -176 207.5t-223 66.5q-182 0 -288 -130t-106 -359.5t105.5 -359.5t290.5 -130q147 0 238 70t104 192h-248v230h606v-43q0 -332 -191.5 -517.5t-531.5 -185.5q-330 0 -542 208t-212 530z" />
<glyph unicode="H" horiz-adv-x="1470" d="M33 0v231h151v969h-151v221h629v-221h-132v-326h408v326h-129v221h627v-221h-152v-969h152v-231h-627v231h129v412h-408v-412h132v-231h-629z" />
<glyph unicode="I" horiz-adv-x="716" d="M33 0v231h151v969h-151v221h649v-221h-152v-969h152v-231h-649z" />
<glyph unicode="J" horiz-adv-x="716" d="M-68 -41q59 -18 111 -18q88 0 117.5 49t29.5 168v1042h-176v221h674v-221h-151v-1038q0 -256 -99.5 -375t-324.5 -119q-84 0 -181 29v262z" />
<glyph unicode="K" horiz-adv-x="1402" d="M33 0v231h151v969h-151v221h649v-221h-152v-969h152v-231h-649zM539 752l432 448h-156v221h588v-221h-119l-389 -407l442 -562h152v-231h-703v231h150z" />
<glyph unicode="L" horiz-adv-x="1214" d="M33 0v231h151v969h-151v221h649v-221h-152v-969h390v437h223v-668h-1110z" />
<glyph unicode="M" horiz-adv-x="1912" d="M33 0v231h147v969h-147v221h592l311 -876l321 876h625v-221h-147v-969h147v-231h-631v231h148v969l-438 -1200h-130l-430 1200v-969h148v-231h-516z" />
<glyph unicode="N" horiz-adv-x="1540" d="M33 0v231h157v969h-157v221h555l526 -919l-10 698h-156v221h568v-221h-158v-1200h-305l-617 1071l8 -840h156v-231h-567z" />
<glyph unicode="O" horiz-adv-x="1601" d="M61 709q0 324 207 526q215 211 545 211q317 0 522 -209t205 -528q0 -317 -206 -527.5t-533 -210.5q-324 0 -532 210.5t-208 527.5zM442 715q0 -223 99.5 -355.5t259.5 -132.5t259 132.5t99 355.5t-99 355t-259 132t-259.5 -132t-99.5 -355z" />
<glyph unicode="P" horiz-adv-x="1304" d="M33 0v231h151v969h-151v221h672q279 0 410.5 -105.5t131.5 -336.5q0 -233 -132 -343t-410 -110h-175v-295h152v-231h-649zM530 758h66q152 0 219.5 50t67.5 171q0 119 -69 170t-218 51h-66v-442z" />
<glyph unicode="Q" horiz-adv-x="1601" d="M61 709q0 324 207 526q104 102 241.5 156.5t291.5 54.5q330 0 534.5 -209t204.5 -528q0 -281 -153.5 -473.5t-425.5 -249.5q143 -82 274 -82q27 0 57.5 4t50.5 6l-71 -223q-14 -8 -36 -12.5t-44 -4.5q-41 0 -85 8.5t-95 28.5l-181 74q-92 37 -151 37q-102 0 -199 -84 l-108 133q111 106 223 125q-254 72 -394.5 259.5t-140.5 453.5zM442 715q0 -223 99.5 -355.5t259.5 -132.5t259 132.5t99 355.5t-99 355t-259 132t-259.5 -132t-99.5 -355z" />
<glyph unicode="R" horiz-adv-x="1374" d="M33 0v231h151v969h-151v221h672q285 0 413.5 -92t128.5 -307q0 -279 -241 -338l229 -453h162v-231h-398l-321 627h-148v-396h152v-231h-649zM530 852h93q139 0 199.5 39t60.5 135t-61.5 135t-198.5 39h-93v-348z" />
<glyph unicode="S" horiz-adv-x="1206" d="M98 1047q0 176 114 287.5t296 111.5q170 0 311 -109v84h230v-422h-230q0 100 -59.5 162t-157.5 62q-72 0 -117 -39t-45 -103q0 -98 152 -168l186 -84q176 -80 260 -186t84 -256q0 -186 -117.5 -302t-310.5 -116q-209 0 -352 121v-90h-227v487h227q0 -276 250 -276 q84 0 134 42t50 109.5t-47 114.5t-154 98l-202 99q-141 68 -208 157t-67 216z" />
<glyph unicode="T" horiz-adv-x="1251" d="M23 868v553h1206v-553h-230v332h-200v-969h196v-231h-739v231h197v969h-201v-332h-229z" />
<glyph unicode="U" horiz-adv-x="1441" d="M20 1200v221h648v-221h-142v-647q0 -328 203 -328q207 0 207 328v647h-139v221h622v-221h-155v-612q0 -150 -13.5 -240t-52.5 -151q-137 -225 -479 -226q-336 0 -475 226q-37 59 -52.5 155.5t-15.5 235.5v612h-156z" />
<glyph unicode="V" horiz-adv-x="1337" d="M-31 1200v221h625v-221h-129l215 -741l223 741h-153v221h606v-221h-133l-410 -1200h-297l-407 1200h-140z" />
<glyph unicode="W" horiz-adv-x="1929" d="M-20 1200v221h581v-221h-121l201 -756l207 756h-117v221h496v-221h-117l207 -756l207 756h-117v221h537v-221h-125l-381 -1200h-273l-202 729l-199 -729h-275l-380 1200h-129z" />
<glyph unicode="X" horiz-adv-x="1337" d="M-68 0v231h189l350 502l-326 467h-157v221h655v-221h-125l182 -256l179 256h-103v221h557v-221h-153l-332 -473l346 -496h184v-231h-692v231h137l-202 289l-205 -289h123v-231h-607z" />
<glyph unicode="Y" horiz-adv-x="1228" d="M-72 1200v221h650v-221h-125l188 -317l190 317h-120v221h587v-221h-159l-365 -606v-363h184v-231h-714v231h184v398l-342 571h-158z" />
<glyph unicode="Z" horiz-adv-x="1204" d="M35 0v231l653 967h-377v-250h-231v473h1046v-204l-661 -986h444v295h232v-526h-1106z" />
<glyph unicode="[" horiz-adv-x="872" d="M266 -303v1724h559v-192h-268v-1338h268v-194h-559z" />
<glyph unicode="\" horiz-adv-x="653" d="M-12 1446h168l561 -1636h-168z" />
<glyph unicode="]" horiz-adv-x="872" d="M45 -109h270v1338h-270v192h561v-1724h-561v194z" />
<glyph unicode="^" horiz-adv-x="2048" d="M416 899l481 561h252l481 -561h-235l-371 371l-373 -371h-235z" />
<glyph unicode="_" horiz-adv-x="1024" d="M0 -279h1024v-204h-1024v204z" />
<glyph unicode="`" horiz-adv-x="1024" d="M219 1518h258l197 -371h-142z" />
<glyph unicode="a" horiz-adv-x="1118" d="M53 289q0 164 96.5 260t262.5 96q111 0 252 -55v61q0 98 -42 145.5t-133 47.5q-123 0 -190 -92l-223 49q29 111 137.5 173t284.5 62q317 0 420 -153q31 -43 40 -104.5t9 -147.5v-408h143v-223h-446v70q-123 -98 -291 -99q-147 0 -233.5 84t-86.5 234zM352 309 q0 -59 33 -96t86 -37q88 0 193 94v117q-84 63 -168 64q-144 -1 -144 -142z" />
<glyph unicode="b" horiz-adv-x="1261" d="M23 0v223h133v981h-133v217h436v-553q137 143 307 144q188 0 312 -148.5t124 -388.5q0 -227 -117.5 -365.5t-308.5 -138.5q-195 0 -317 162v-133h-436zM457 496q0 -137 58 -216t157 -79q100 0 158.5 76.5t58.5 218.5q0 139 -58.5 215.5t-158.5 76.5q-98 0 -156.5 -76.5 t-58.5 -215.5z" />
<glyph unicode="c" horiz-adv-x="1138" d="M57 504q0 236 140.5 384t359.5 148q182 0 297 -114v90h217v-410l-229 -4q-59 193 -242 193q-111 0 -173 -75t-62 -210q0 -287 241 -287q172 0 254 191l238 -121q-160 -317 -508 -318q-240 0 -386.5 144.5t-146.5 388.5z" />
<glyph unicode="d" horiz-adv-x="1261" d="M59 475q0 238 124 387.5t313 149.5q170 0 307 -144v336h-133v217h436v-1198h133v-223h-436v133q-123 -162 -318 -162q-190 0 -308 136.5t-118 367.5zM373 495.5q0 -139.5 59.5 -217t157.5 -77.5q100 0 156.5 76.5t56.5 218.5q0 139 -57.5 215.5t-155.5 76.5 q-100 0 -158.5 -76.5t-58.5 -216z" />
<glyph unicode="e" horiz-adv-x="1161" d="M57 503.5q0 241.5 141.5 387t381 145.5t380 -152.5t140.5 -418.5v-16h-729q0 -119 64.5 -185.5t176.5 -66.5q152 0 224 135l237 -76q-57 -133 -186 -209t-307 -76q-236 0 -379.5 145.5t-143.5 387zM373 621h403q0 88 -56 140t-147 52q-88 0 -144 -52t-56 -140z" />
<glyph unicode="f" horiz-adv-x="643" d="M25 0v223h131v572h-131v217h131v110q0 152 98 238t268 86q127 0 205 -50t115 -151l-254 -92q-25 86 -74 86q-53 0 -53 -94v-133h160v-217h-160v-572h160v-223h-596z" />
<glyph unicode="g" horiz-adv-x="1265" d="M63 498q0 221 126 367.5t311 146.5q178 0 319 -156v156h424v-217h-133v-668q0 -123 -16.5 -193.5t-73.5 -134.5q-68 -76 -181.5 -115.5t-269.5 -39.5q-262 0 -438 123l152 174q160 -72 286 -72q242 0 242 219l-4 66q-123 -154 -317.5 -154t-310.5 132.5t-116 365.5z M377 495.5q0 -139.5 59.5 -217t157.5 -77.5t156.5 76.5t58.5 218.5q0 139 -58.5 215.5t-156.5 76.5q-100 0 -158.5 -76.5t-58.5 -216z" />
<glyph unicode="h" horiz-adv-x="1185" d="M25 0v223h131v981h-131v217h436v-510q76 49 149.5 75t147.5 26q135 0 205.5 -85t70.5 -251v-453h142v-223h-449v600q0 88 -24.5 127t-86.5 39q-41 0 -76.5 -14.5t-76.5 -51.5v-477h151v-223h-589z" />
<glyph unicode="i" horiz-adv-x="626" d="M33 0v223h133v572h-133v217h436v-789h143v-223h-579zM137 1278q0 72 48 120t118 48q68 0 119 -49t51 -119t-50 -118t-120 -48t-118 48t-48 118z" />
<glyph unicode="j" horiz-adv-x="589" d="M-68 -111l50 -2q102 0 136 40t34 147v721h-132v217h435v-971q0 -205 -95.5 -302t-302.5 -97q-57 0 -125 12v235zM123 1278q0 72 48 120t118 48q68 0 119 -49t51 -119t-50.5 -118t-120 -48t-117.5 48t-48 118z" />
<glyph unicode="k" horiz-adv-x="1193" d="M25 0v223h131v981h-131v217h438v-1198h151v-223h-589zM469 510l322 285h-185v217h580v-217h-111l-278 -250l268 -322h121v-223h-299z" />
<glyph unicode="l" horiz-adv-x="616" d="M25 0v223h131v981h-131v217h436v-1198h141v-223h-577z" />
<glyph unicode="m" horiz-adv-x="1765" d="M33 0v223h133v570h-133v219h436v-101q74 47 147.5 74t139.5 27q164 0 235 -117q104 59 185 88t153 29q285 0 285 -336v-453h143v-223h-448v600q0 88 -24.5 127t-86.5 39q-41 0 -79 -15.5t-77 -50.5v-477h144v-223h-449v600q0 88 -24.5 127t-85.5 39q-41 0 -79 -15.5 t-77 -50.5v-477h154v-223h-592z" />
<glyph unicode="n" horiz-adv-x="1193" d="M33 223h133v570h-133v219h436v-101q76 49 149.5 75t147.5 26q135 0 205.5 -85t70.5 -251v-453h144v-223h-449v600q0 88 -24.5 127t-85.5 39q-41 0 -79 -15.5t-77 -50.5v-477h154v-223h-592v223z" />
<glyph unicode="o" horiz-adv-x="1183" d="M57 504q0 242 145.5 387t387.5 145q240 0 388 -146.5t148 -385.5q0 -238 -149.5 -385.5t-386.5 -147.5q-240 0 -386.5 144.5t-146.5 388.5zM365 506q0 -133 61 -210t164 -77q104 0 164.5 75t60.5 212q0 133 -60.5 207.5t-164.5 74.5q-102 0 -163.5 -73.5t-61.5 -208.5z " />
<glyph unicode="p" horiz-adv-x="1261" d="M23 -109h133v904h-133v217h423v-156q141 156 320 156q188 0 312 -148.5t124 -388.5q0 -227 -117.5 -365.5t-308.5 -138.5q-195 0 -317 162v-242h147v-223h-583v223zM457 496q0 -137 58 -216t157 -79q100 0 158.5 76.5t58.5 218.5q0 139 -58.5 215.5t-158.5 76.5 q-98 0 -156.5 -76.5t-58.5 -215.5z" />
<glyph unicode="q" horiz-adv-x="1261" d="M59 475q0 238 124 387.5t313 149.5q178 0 319 -156v156h424v-217h-133v-904h133v-223h-584v223h148v242q-123 -162 -318 -162q-190 0 -308 136.5t-118 367.5zM373 495.5q0 -139.5 59.5 -217t157.5 -77.5q100 0 156.5 76.5t56.5 218.5q0 139 -57.5 215.5t-155.5 76.5 q-100 0 -158.5 -76.5t-58.5 -216z" />
<glyph unicode="r" horiz-adv-x="847" d="M33 0v223h133v572h-133v217h409v-240q88 264 375 264v-313q-348 0 -348 -317v-183h158v-223h-594z" />
<glyph unicode="s" horiz-adv-x="1013" d="M63 719q0 143 95.5 230t253.5 87q129 0 256 -71v47h227v-293h-227q-63 113 -213 112q-115 0 -115 -77q0 -35 36 -54.5t111 -33.5l166 -33q295 -57 295 -320q0 -152 -99 -247t-263 -95q-127 0 -260 68v-39h-238v356h238q0 -80 54 -126t152 -46q139 0 140 101q0 61 -74 84 q-18 6 -115 26l-174 39q-119 27 -182.5 100.5t-63.5 184.5z" />
<glyph unicode="t" horiz-adv-x="663" d="M25 795v217h116v114l305 258v-372h185v-217h-185v-435q0 -80 15.5 -108.5t68.5 -28.5q45 0 101 27v-225q-100 -53 -221 -54q-152 0 -210.5 64.5t-58.5 222.5v537h-116z" />
<glyph unicode="u" horiz-adv-x="1185" d="M10 788v224h449v-602q0 -109 20.5 -151t87.5 -42q78 0 156 68v503h-154v224h459v-795h133v-217h-436v72q-76 -49 -149.5 -75t-147.5 -26q-133 0 -204.5 86t-71.5 252v479h-142z" />
<glyph unicode="v" horiz-adv-x="1103" d="M-39 795v217h576v-217h-121l164 -494l182 494h-123v217h504v-217h-146l-313 -795h-272l-310 795h-141z" />
<glyph unicode="w" horiz-adv-x="1626" d="M-33 795v217h545v-217h-111l125 -453l191 670h262l197 -670l131 453h-107v217h453v-217h-142l-241 -795h-264l-197 645l-182 -645h-275l-243 795h-142z" />
<glyph unicode="x" horiz-adv-x="1038" d="M-2 0v223h141l205 273l-211 299h-113v217h328l184 -281l199 281h273v-217h-132l-192 -260l217 -312h145v-223h-354l-196 299l-213 -299h-281z" />
<glyph unicode="y" horiz-adv-x="1103" d="M-29 795v217h553v-217h-114l186 -449l164 449h-107v217h475v-217h-135l-440 -1127h-358v217h213l45 111l-349 799h-133z" />
<glyph unicode="z" horiz-adv-x="995" d="M31 0v205l569 604h-321v-145h-205v348h870v-217l-557 -590h361v157h202v-362h-919z" />
<glyph unicode="{" horiz-adv-x="1024" d="M158 426v209l41 -2q121 0 172 59.5t51 194.5v250q0 131 17.5 192.5t86.5 100.5q90 49 281 49l76 -2v-209l-47 2q-109 0 -140.5 -41t-31.5 -160v-240q0 -141 -41 -205.5t-166 -93.5q123 -29 165 -93t42 -204v-241q0 -117 32.5 -158t139.5 -41l47 2v-209l-76 -2 q-96 0 -162.5 11.5t-118.5 37.5q-68 39 -86 102.5t-18 188.5v252q0 135 -50 193.5t-173 58.5z" />
<glyph unicode="|" horiz-adv-x="1024" d="M410 -483v2048h206v-2048h-206z" />
<glyph unicode="}" horiz-adv-x="1024" d="M143 1268v209h68q111 0 173 -9.5t121.5 -43t82.5 -107.5q16 -55 16 -180v-252q0 -135 50.5 -193.5t172.5 -58.5l41 2v-209h-37q-127 0 -177 -56.5t-50 -193.5v-252q0 -131 -14 -180q-20 -72 -90 -111q-90 -49 -281 -49l-76 2v209l47 -2q104 0 138 42t34 157v239 q0 141 41 206t166 93q-121 29 -164 94.5t-43 204.5v242q0 117 -32.5 158t-139.5 41z" />
<glyph unicode="~" d="M178 418v221q213 143 387 143q82 0 160 -18q41 -10 135 -41q172 -57 180 -59q59 -14 115 -15q88 0 179 38t196 116v-221q-100 -68 -193.5 -103t-185.5 -35t-189 32l-198 67q-111 33 -201 32.5t-180 -38t-205 -119.5z" />
<glyph unicode="&#xa1;" horiz-adv-x="1255" d="M-72 1200v221h631v-221h-125l223 -465l209 465h-121v221h582v-221h-160l-434 -921q-78 -166 -165 -237t-210 -71q-39 0 -79.5 6.5t-85.5 16.5v252q20 -8 44.5 -14.5t59.5 -6.5q72 0 107.5 21.5t66.5 87.5l21 43l-406 823h-158zM303 1872h199q8 -68 48 -104.5t101 -36.5 q131 0 148 141h200q0 -141 -86 -227q-92 -94 -262 -95q-168 0 -262 95q-86 86 -86 227z" />
<glyph unicode="&#xa2;" horiz-adv-x="1103" d="M-29 795v217h553v-217h-114l186 -449l164 449h-107v217h475v-217h-135l-440 -1127h-358v217h213l45 111l-349 799h-133zM240 1421h198q8 -68 48 -104.5t102 -36.5q131 0 147 141h201q0 -141 -86 -227q-92 -94 -262 -94q-168 0 -262 94q-86 86 -86 227z" />
<glyph unicode="&#xa3;" horiz-adv-x="1067" d="M10 213q0 106 66.5 175t167.5 69q70 0 159 -33l3 39q0 78 -31 145h-307v191h206q-106 197 -106 317q0 154 112.5 242t315.5 88q190 0 294.5 -94.5t104.5 -278.5l-225 -26q0 219 -174 219q-66 0 -106.5 -41t-40.5 -107q0 -59 51 -174l67 -145h269v-191h-218 q4 -25 6.5 -54.5t2.5 -47.5q0 -92 -33 -191q121 -47 160 -47q68 0 101.5 47t43.5 154l152 -37q0 -225 -78 -343t-215 -118q-131 0 -256 125q-111 -125 -258 -125q-100 0 -167 66.5t-67 175.5zM160 231q0 -43 24.5 -69.5t65.5 -26.5q68 0 119 92q-72 82 -131 82 q-78 0 -78 -78z" />
<glyph unicode="&#xa4;" horiz-adv-x="1241" d="M68 438l202 205q-76 106 -75.5 241.5t75.5 241.5l-202 205l104 107l205 -203q53 39 111.5 58.5t132.5 19.5q139 0 247 -78l203 203l105 -107l-203 -205q76 -106 76 -241q0 -133 -76 -242l203 -205l-105 -104l-203 203q-53 -39 -113.5 -58.5t-131.5 -19.5q-141 0 -246 78 l-205 -203zM346 885q0 -115 80 -195t197 -80q113 0 194.5 80t81.5 194.5t-81 195.5t-195 81q-113 0 -195 -81.5t-82 -194.5z" />
<glyph unicode="&#xa5;" horiz-adv-x="1232" d="M-55 1200v221h628v-221h-135l203 -352l209 352h-131v221h563v-221h-160l-129 -217h183v-131h-263l-86 -135h349v-131h-418v-355h182v-231h-680v231h184v355h-389v131h336l-80 135h-256v131h178l-131 217h-157z" />
<glyph unicode="&#xa6;" horiz-adv-x="1024" d="M410 -350v758h206v-758h-206zM410 674v758h206v-758h-206z" />
<glyph unicode="&#xa7;" horiz-adv-x="1204" d="M82 766q0 100 84 170t215 70q-74 80 -74 188q0 229 330 229h356v-311h-215v141h-53q-82 0 -117 -16t-35 -66q0 -29 20.5 -66.5t57.5 -74.5l361 -352q53 -51 83.5 -113.5t30.5 -113.5q0 -98 -77.5 -170t-204.5 -72q100 -94 100 -217q0 -229 -330 -230h-385v312h215v-142 h80q82 0 117 16.5t35 65.5q0 29 -20.5 67t-57.5 75l-395 383q-121 116 -121 227zM365 776q0 -68 174 -229q92 -88 149 -130t90 -42q80 0 80 67q0 33 -45 89.5t-129 138.5q-180 174 -242 174q-37 0 -57 -18.5t-20 -49.5z" />
<glyph unicode="&#xa8;" horiz-adv-x="1280" d="M33 0v231h151v969h-151v221h1192v-440h-256v219h-439v-348h363v-234h-363v-387h439v234h256v-465h-1192zM340 1741q0 49 39 90t92 41t91 -38t38 -93q0 -59 -36 -95t-93 -36q-55 0 -93 38t-38 93zM705 1741q0 49 38.5 90t92 41t92.5 -39t39 -92q0 -57 -37 -94t-94 -37 q-55 0 -93 38t-38 93z" />
<glyph unicode="&#xa9;" d="M111 733q0 305 216 525.5t525 220.5q311 0 528 -217.5t217 -528.5q0 -152 -55 -284t-160 -236q-229 -223 -530 -223q-150 0 -281 55t-241 166q-219 219 -219 522zM233 735q0 -256 183 -438q88 -88 200.5 -135t237.5 -47q254 0 442 184q178 174 179 436 q0 258 -181.5 439.5t-439.5 181.5q-262 0 -438 -180q-88 -90 -135.5 -204t-47.5 -237zM453 729q0 209 110.5 330t292.5 121q154 0 255 -79t101 -204h-188q-8 70 -53 108.5t-119 38.5q-90 0 -142.5 -79.5t-52.5 -229.5q0 -301 203 -301q152 0 170 162h193q0 -137 -103.5 -222 t-265.5 -85q-186 0 -293.5 117.5t-107.5 322.5z" />
<glyph unicode="&#xaa;" horiz-adv-x="1554" d="M61 709q0 332 207 534.5t514 202.5q279 0 441 -176v151h211v-491h-211q-78 141 -173.5 207.5t-222.5 66.5q-152 0 -250 -92t-126 -262h452v-232h-461q20 -186 123 -289.5t266 -103.5q305 0 418 359l252 -121q-170 -492 -694 -492q-324 0 -535 209.5t-211 528.5z" />
<glyph unicode="&#xab;" horiz-adv-x="946" d="M57 506l260 311h213l-258 -311l258 -313h-213zM416 506l260 311h213l-258 -311l258 -313h-213z" />
<glyph unicode="&#xac;" d="M254 668v196h1198v-502h-199v306h-999z" />
<glyph unicode="&#xad;" horiz-adv-x="681" d="M76 383v264h530v-264h-530z" />
<glyph unicode="&#xae;" d="M111 733q0 203 108 387q100 172 265 265.5t368 93.5q315 0 534 -224q211 -215 211 -522q0 -313 -221 -528t-524 -215q-150 0 -285 57t-243 168q-213 217 -213 518zM233 735q0 -256 181.5 -439t437.5 -183q123 0 234.5 47t205.5 135q182 176 183 428q0 266 -177 446 q-182 186 -444 187q-256 0 -432 -176q-189 -189 -189 -445zM545 336v825h323q352 0 353 -237q0 -82 -47.5 -139.5t-133.5 -79.5l185 -369h-224l-157 338h-99v-338h-200zM745 795h99q170 0 170 116q0 123 -180 123h-89v-239z" />
<glyph unicode="&#xaf;" horiz-adv-x="716" d="M33 0v231h151v969h-151v221h649v-221h-152v-969h152v-231h-649zM45 1741q0 49 39 90t92 41t91 -38t38 -93q0 -59 -36 -95t-93 -36q-55 0 -93 38t-38 93zM410 1741q0 49 38.5 90t92 41t92.5 -39t39 -92q0 -57 -37 -94t-94 -37q-55 0 -93 38t-38 93z" />
<glyph unicode="&#xb0;" horiz-adv-x="673" d="M35 1159q0 127 87 216t216 89q127 0 215 -88t88 -217q0 -125 -89 -214t-216 -89q-125 0 -213 88t-88 215zM162 1161q0 -74 51 -125t125 -51t124 52.5t50 124t-51 122.5t-123 51t-124 -50t-52 -124z" />
<glyph unicode="&#xb1;" d="M254 -2v199h1198v-199h-1198zM254 698v199h498v326h202v-326h498v-199h-498v-325h-202v325h-498z" />
<glyph unicode="&#xb2;" horiz-adv-x="716" d="M33 0v231h151v969h-151v221h649v-221h-152v-969h152v-231h-649z" />
<glyph unicode="&#xb3;" horiz-adv-x="626" d="M33 0v223h133v572h-133v217h436v-789h143v-223h-579zM137 1278q0 72 48 120t118 48q68 0 119 -49t51 -119t-50 -118t-120 -48t-118 48t-48 118z" />
<glyph unicode="&#xb4;" horiz-adv-x="1024" d="M350 1147l197 371h258l-313 -371h-142z" />
<glyph unicode="&#xb5;" horiz-adv-x="1249" d="M-63 -438l268 1530h289l-76 -435q-16 -86 -23.5 -156.5t-7.5 -111.5q0 -184 170 -184q102 0 157.5 87t90.5 286l90 514h289l-193 -1092h-268l18 117q-80 -150 -215 -150q-131 0 -213 121l-90 -526h-286z" />
<glyph unicode="&#xb6;" horiz-adv-x="1024" d="M41 1130q0 156 106.5 252.5t284.5 96.5h551v-111h-113v-1368h-151v1368h-160v-1368h-151v784q-168 0 -267.5 97t-99.5 249z" />
<glyph unicode="&#xb7;" horiz-adv-x="532" d="M88 709q0 74 51 125t125 51t127 -51.5t53 -124.5q0 -76 -51 -127.5t-129 -51.5q-74 0 -125 51.5t-51 127.5z" />
<glyph unicode="&#x2219;" horiz-adv-x="532" d="M88 709q0 74 51 125t125 51t127 -51.5t53 -124.5q0 -76 -51 -127.5t-129 -51.5q-74 0 -125 51.5t-51 127.5z" />
<glyph unicode="&#xb8;" horiz-adv-x="1161" d="M57 503.5q0 241.5 141.5 387t381 145.5t380 -152.5t140.5 -418.5v-16h-729q0 -119 64.5 -185.5t176.5 -66.5q152 0 224 135l237 -76q-57 -133 -186 -209t-307 -76q-236 0 -379.5 145.5t-143.5 387zM272 1331q0 49 39 90t92.5 41t91 -37.5t37.5 -93.5q0 -59 -35.5 -95 t-93.5 -36q-55 0 -93 38t-38 93zM373 621h403q0 88 -56 140t-147 52q-88 0 -144 -52t-56 -140zM637 1331q0 49 39 90t92 41t92 -39t39 -92q0 -57 -37 -94t-94 -37q-55 0 -93 38t-38 93z" />
<glyph unicode="&#xb9;" horiz-adv-x="2322" d="M33 0v231h157v969h-157v221h555l526 -919l-10 698h-156v221h568v-221h-158v-1200h-305l-617 1071l8 -840h156v-231h-567zM1464 643q0 170 109.5 271.5t290 101.5t292 -101.5t111.5 -271.5q0 -166 -111.5 -269.5t-292 -103.5t-290 101.5t-109.5 271.5zM1536 27v170h682 v-170h-682zM1696 645q0 -94 45 -147.5t123 -53.5t124 52.5t46 148.5q0 94 -45 145.5t-125 51.5q-76 0 -122 -52.5t-46 -144.5z" />
<glyph unicode="&#xba;" horiz-adv-x="1138" d="M57 504q0 236 140.5 384t359.5 148q182 0 297 -114v90h217v-410l-229 -4q-59 193 -242 193q-186 0 -227 -191h270v-172h-272q35 -209 235 -209q172 0 254 191l238 -121q-160 -317 -508 -318q-240 0 -386.5 144.5t-146.5 388.5z" />
<glyph unicode="&#xbb;" horiz-adv-x="946" d="M51 193l260 313l-260 311h215l260 -311l-260 -313h-215zM410 193l258 313l-258 311h213l262 -311l-262 -313h-213z" />
<glyph unicode="&#xbc;" d="M254 512v199h1198v-199h-1198zM702 217.5q0 63.5 44.5 107.5t108 44t107.5 -44t44 -108q0 -61 -44 -105t-108 -44q-61 0 -106.5 43t-45.5 106.5zM702 1003.5q0 63.5 44.5 107.5t108 44t107.5 -44t44 -107q0 -61 -43 -106.5t-109 -45.5q-63 0 -107.5 44t-44.5 107.5z" />
<glyph unicode="&#xbd;" d="M276 160l451 450l-451 453l140 139l450 -450l451 450l141 -139l-450 -453l450 -450l-141 -140l-451 451l-450 -451z" />
<glyph unicode="&#xbe;" horiz-adv-x="1685" d="M37 868v23h160q0 -150 112 -150q111 0 111 123q0 125 -158 125v123q145 0 146 111q0 90 -84 90q-86 0 -99 -113h-151q0 109 69.5 170.5t192.5 61.5q115 0 184.5 -57.5t69.5 -151.5q0 -129 -152 -176q178 -41 178 -199q0 -106 -80.5 -174t-211.5 -68q-287 0 -287 262z M324 -29l843 1475h181l-842 -1475h-182zM1010 307l387 502h151v-483h99v-113h-99v-88h92v-125h-358v125h92v88h-330l-14 46q-8 25 -20 48zM1155 319h223l4 297z" />
<glyph unicode="&#xbf;" horiz-adv-x="626" d="M-12 1331q0 49 39 90t92 41t91 -38t38 -93q0 -59 -36 -95t-93 -36q-55 0 -93 38t-38 93zM33 0v223h133v572h-133v217h436v-789h143v-223h-579zM352 1331q0 49 39 90t92.5 41t92 -39t38.5 -92q0 -57 -36.5 -94t-94.5 -37q-55 0 -93 38t-38 93z" />
<glyph unicode="&#xc0;" horiz-adv-x="1417" d="M-41 0v231h156l313 969h-192v221h948v-221h-170l315 -969h129v-231h-631v231h152l-78 267h-412l-75 -267h157v-231h-612zM543 682h309l-154 526z" />
<glyph unicode="&#x410;" horiz-adv-x="1417" d="M-41 0v231h156l313 969h-192v221h948v-221h-170l315 -969h129v-231h-631v231h152l-78 267h-412l-75 -267h157v-231h-612zM543 682h309l-154 526z" />
<glyph unicode="&#xc1;" horiz-adv-x="1294" d="M25 1200v221h1138v-440h-256v219h-377v-319h209q236 0 362 -118t126 -320.5t-126 -322.5t-364 -120h-704v231h151v969h-159zM530 231h86q246 0 246 211q0 100 -65.5 153.5t-180.5 53.5h-86v-418z" />
<glyph unicode="&#x411;" horiz-adv-x="1294" d="M25 1200v221h1138v-440h-256v219h-377v-319h209q236 0 362 -118t126 -320.5t-126 -322.5t-364 -120h-704v231h151v969h-159zM530 231h86q246 0 246 211q0 100 -65.5 153.5t-180.5 53.5h-86v-418z" />
<glyph unicode="&#xc2;" horiz-adv-x="1294" d="M33 0v231h151v969h-151v221h620q514 0 514 -379q0 -113 -49 -178t-168 -108q262 -96 262 -355q0 -401 -489 -401h-690zM522 231h107q129 0 187 40t58 141q0 223 -268 223h-84v-404zM522 844h86q225 0 226 180q0 96 -50.5 136t-167.5 40h-94v-356z" />
<glyph unicode="&#x412;" horiz-adv-x="1294" d="M33 0v231h151v969h-151v221h620q514 0 514 -379q0 -113 -49 -178t-168 -108q262 -96 262 -355q0 -401 -489 -401h-690zM522 231h107q129 0 187 40t58 141q0 223 -268 223h-84v-404zM522 844h86q225 0 226 180q0 96 -50.5 136t-167.5 40h-94v-356z" />
<glyph unicode="&#xc3;" horiz-adv-x="1214" d="M33 0v231h151v969h-151v221h1153v-440h-256v219h-400v-969h152v-231h-649z" />
<glyph unicode="&#x413;" horiz-adv-x="1214" d="M33 0v231h151v969h-151v221h1153v-440h-256v219h-400v-969h152v-231h-649z" />
<glyph unicode="&#xc4;" horiz-adv-x="1435" d="M25 231h129q92 182 121.5 303t29.5 381v285h-141v221h1237v-221h-152v-969h152v-520h-266v289h-844v-289h-266v520zM453 231h450v969h-319v-262q0 -268 -24.5 -406.5t-106.5 -300.5z" />
<glyph unicode="&#x414;" horiz-adv-x="1435" d="M25 231h129q92 182 121.5 303t29.5 381v285h-141v221h1237v-221h-152v-969h152v-520h-266v289h-844v-289h-266v520zM453 231h450v969h-319v-262q0 -268 -24.5 -406.5t-106.5 -300.5z" />
<glyph unicode="&#xc5;" horiz-adv-x="1280" d="M33 0v231h151v969h-151v221h1192v-440h-256v219h-439v-348h363v-234h-363v-387h439v234h256v-465h-1192z" />
<glyph unicode="&#x415;" horiz-adv-x="1280" d="M33 0v231h151v969h-151v221h1192v-440h-256v219h-439v-348h363v-234h-363v-387h439v234h256v-465h-1192z" />
<glyph unicode="&#xc6;" horiz-adv-x="2088" d="M-86 0v231h152l442 562l-389 407h-119v221h588v-221h-156l432 -448l-397 -521h149v-231h-702zM719 0v231h151v969h-151v221h649v-221h-151v-969h151v-231h-649zM1225 752l432 448h-156v221h588v-221h-119l-389 -407l442 -562h152v-231h-702v231h149z" />
<glyph unicode="&#x416;" horiz-adv-x="2088" d="M-86 0v231h152l442 562l-389 407h-119v221h588v-221h-156l432 -448l-397 -521h149v-231h-702zM719 0v231h151v969h-151v221h649v-221h-151v-969h151v-231h-649zM1225 752l432 448h-156v221h588v-221h-119l-389 -407l442 -562h152v-231h-702v231h149z" />
<glyph unicode="&#xc7;" horiz-adv-x="1294" d="M63 365l244 116q35 -125 101 -186q74 -70 200 -70q266 0 266 205q0 199 -262 199h-90v233h86q225 0 226 172q0 78 -52.5 124t-146.5 46q-111 0 -182 -61q-61 -53 -119 -178h-211v456h211v-131q88 92 171 124t185 32q209 0 343 -101.5t134 -271.5q0 -113 -63.5 -199 t-159.5 -106q133 -49 205 -140t72 -229q0 -197 -157 -312.5t-421 -115.5q-227 0 -373 94.5t-207 299.5z" />
<glyph unicode="&#x417;" horiz-adv-x="1294" d="M63 365l244 116q35 -125 101 -186q74 -70 200 -70q266 0 266 205q0 199 -262 199h-90v233h86q225 0 226 172q0 78 -52.5 124t-146.5 46q-111 0 -182 -61q-61 -53 -119 -178h-211v456h211v-131q88 92 171 124t185 32q209 0 343 -101.5t134 -271.5q0 -113 -63.5 -199 t-159.5 -106q133 -49 205 -140t72 -229q0 -197 -157 -312.5t-421 -115.5q-227 0 -373 94.5t-207 299.5z" />
<glyph unicode="&#xc8;" horiz-adv-x="1490" d="M33 0v231h151v969h-151v221h629v-221h-132v-684l433 905h497v-221h-151v-969h151v-231h-626v231h129v658l-433 -889h-497z" />
<glyph unicode="&#x418;" horiz-adv-x="1490" d="M33 0v231h151v969h-151v221h629v-221h-132v-684l433 905h497v-221h-151v-969h151v-231h-626v231h129v658l-433 -889h-497z" />
<glyph unicode="&#xc9;" horiz-adv-x="1490" d="M33 0v231h151v969h-151v221h629v-221h-132v-684l433 905h497v-221h-151v-969h151v-231h-626v231h129v658l-433 -889h-497zM463 1872h199q8 -68 48 -104.5t101 -36.5q131 0 147 141h201q0 -141 -86 -227q-92 -94 -262 -95q-168 0 -262 95q-86 86 -86 227z" />
<glyph unicode="&#x419;" horiz-adv-x="1490" d="M33 0v231h151v969h-151v221h629v-221h-132v-684l433 905h497v-221h-151v-969h151v-231h-626v231h129v658l-433 -889h-497zM463 1872h199q8 -68 48 -104.5t101 -36.5q131 0 147 141h201q0 -141 -86 -227q-92 -94 -262 -95q-168 0 -262 95q-86 86 -86 227z" />
<glyph unicode="&#xca;" horiz-adv-x="1402" d="M33 0v231h151v969h-151v221h649v-221h-152v-969h152v-231h-649zM539 752l432 448h-156v221h588v-221h-119l-389 -407l442 -562h152v-231h-703v231h150z" />
<glyph unicode="&#x41a;" horiz-adv-x="1402" d="M33 0v231h151v969h-151v221h649v-221h-152v-969h152v-231h-649zM539 752l432 448h-156v221h588v-221h-119l-389 -407l442 -562h152v-231h-703v231h150z" />
<glyph unicode="&#xcb;" horiz-adv-x="1406" d="M-37 -12v254q18 -8 41 -12.5t70 -4.5q82 0 116 78q45 98 46 354v543h-152v221h1288v-221h-151v-969h151v-231h-627v231h129v969h-360v-489q0 -410 -104 -584q-94 -156 -287 -156q-53 0 -77 3.5t-83 13.5z" />
<glyph unicode="&#x41b;" horiz-adv-x="1406" d="M-37 -12v254q18 -8 41 -12.5t70 -4.5q82 0 116 78q45 98 46 354v543h-152v221h1288v-221h-151v-969h151v-231h-627v231h129v969h-360v-489q0 -410 -104 -584q-94 -156 -287 -156q-53 0 -77 3.5t-83 13.5z" />
<glyph unicode="&#xcc;" horiz-adv-x="1912" d="M33 0v231h147v969h-147v221h592l311 -876l321 876h625v-221h-147v-969h147v-231h-631v231h148v969l-438 -1200h-130l-430 1200v-969h148v-231h-516z" />
<glyph unicode="&#x41c;" horiz-adv-x="1912" d="M33 0v231h147v969h-147v221h592l311 -876l321 876h625v-221h-147v-969h147v-231h-631v231h148v969l-438 -1200h-130l-430 1200v-969h148v-231h-516z" />
<glyph unicode="&#xcd;" horiz-adv-x="1470" d="M33 0v231h151v969h-151v221h629v-221h-132v-326h408v326h-129v221h627v-221h-152v-969h152v-231h-627v231h129v412h-408v-412h132v-231h-629z" />
<glyph unicode="&#x41d;" horiz-adv-x="1470" d="M33 0v231h151v969h-151v221h629v-221h-132v-326h408v326h-129v221h627v-221h-152v-969h152v-231h-627v231h129v412h-408v-412h132v-231h-629z" />
<glyph unicode="&#xce;" horiz-adv-x="1601" d="M61 709q0 324 207 526q215 211 545 211q317 0 522 -209t205 -528q0 -317 -206 -527.5t-533 -210.5q-324 0 -532 210.5t-208 527.5zM442 715q0 -223 99.5 -355.5t259.5 -132.5t259 132.5t99 355.5t-99 355t-259 132t-259.5 -132t-99.5 -355z" />
<glyph unicode="&#x41e;" horiz-adv-x="1601" d="M61 709q0 324 207 526q215 211 545 211q317 0 522 -209t205 -528q0 -317 -206 -527.5t-533 -210.5q-324 0 -532 210.5t-208 527.5zM442 715q0 -223 99.5 -355.5t259.5 -132.5t259 132.5t99 355.5t-99 355t-259 132t-259.5 -132t-99.5 -355z" />
<glyph unicode="&#xcf;" horiz-adv-x="1470" d="M33 0v231h151v969h-151v221h1403v-221h-152v-969h152v-231h-627v231h129v969h-408v-969h132v-231h-629z" />
<glyph unicode="&#x41f;" horiz-adv-x="1470" d="M33 0v231h151v969h-151v221h1403v-221h-152v-969h152v-231h-627v231h129v969h-408v-969h132v-231h-629z" />
<glyph unicode="&#xd0;" horiz-adv-x="1304" d="M33 0v231h151v969h-151v221h672q279 0 410.5 -105.5t131.5 -336.5q0 -233 -132 -343t-410 -110h-175v-295h152v-231h-649zM530 758h66q152 0 219.5 50t67.5 171q0 119 -69 170t-218 51h-66v-442z" />
<glyph unicode="&#x420;" horiz-adv-x="1304" d="M33 0v231h151v969h-151v221h672q279 0 410.5 -105.5t131.5 -336.5q0 -233 -132 -343t-410 -110h-175v-295h152v-231h-649zM530 758h66q152 0 219.5 50t67.5 171q0 119 -69 170t-218 51h-66v-442z" />
<glyph unicode="&#xd1;" horiz-adv-x="1554" d="M61 709q0 332 207 534.5t514 202.5q279 0 441 -176v151h211v-491h-211q-78 141 -173.5 207.5t-222.5 66.5q-180 0 -284.5 -130t-104.5 -359.5t105.5 -359.5t287.5 -130q305 0 418 359l252 -121q-170 -492 -694 -492q-324 0 -535 209.5t-211 528.5z" />
<glyph unicode="&#x421;" horiz-adv-x="1554" d="M61 709q0 332 207 534.5t514 202.5q279 0 441 -176v151h211v-491h-211q-78 141 -173.5 207.5t-222.5 66.5q-180 0 -284.5 -130t-104.5 -359.5t105.5 -359.5t287.5 -130q305 0 418 359l252 -121q-170 -492 -694 -492q-324 0 -535 209.5t-211 528.5z" />
<glyph unicode="&#xd2;" horiz-adv-x="1251" d="M23 868v553h1206v-553h-230v332h-200v-969h196v-231h-739v231h197v969h-201v-332h-229z" />
<glyph unicode="&#x422;" horiz-adv-x="1251" d="M23 868v553h1206v-553h-230v332h-200v-969h196v-231h-739v231h197v969h-201v-332h-229z" />
<glyph unicode="&#xd3;" horiz-adv-x="1255" d="M-72 1200v221h631v-221h-125l223 -465l209 465h-121v221h582v-221h-160l-434 -921q-78 -166 -165 -237t-210 -71q-39 0 -79.5 6.5t-85.5 16.5v252q20 -8 44.5 -14.5t59.5 -6.5q72 0 107.5 21.5t66.5 87.5l21 43l-406 823h-158z" />
<glyph unicode="&#x423;" horiz-adv-x="1255" d="M-72 1200v221h631v-221h-125l223 -465l209 465h-121v221h582v-221h-160l-434 -921q-78 -166 -165 -237t-210 -71q-39 0 -79.5 6.5t-85.5 16.5v252q20 -8 44.5 -14.5t59.5 -6.5q72 0 107.5 21.5t66.5 87.5l21 43l-406 823h-158z" />
<glyph unicode="&#xd4;" horiz-adv-x="1734" d="M41 713q0 225 145.5 327.5t444.5 102.5h61v57h-151v221h649v-221h-152v-57h62q299 0 444.5 -102.5t145.5 -328t-127 -324.5t-445 -99h-80v-58h152v-231h-649v231h151v58h-80q-315 0 -443 100.5t-128 323.5zM408 719q0 -106 61 -156.5t223 -50.5v408q-166 0 -229 -50 q-55 -42 -55 -151zM1038 512q160 0 222.5 51t62.5 156q0 106 -58.5 153.5t-226.5 47.5v-408z" />
<glyph unicode="&#x424;" horiz-adv-x="1734" d="M41 713q0 225 145.5 327.5t444.5 102.5h61v57h-151v221h649v-221h-152v-57h62q299 0 444.5 -102.5t145.5 -328t-127 -324.5t-445 -99h-80v-58h152v-231h-649v231h151v58h-80q-315 0 -443 100.5t-128 323.5zM408 719q0 -106 61 -156.5t223 -50.5v408q-166 0 -229 -50 q-55 -42 -55 -151zM1038 512q160 0 222.5 51t62.5 156q0 106 -58.5 153.5t-226.5 47.5v-408z" />
<glyph unicode="&#xd5;" horiz-adv-x="1337" d="M-68 0v231h189l350 502l-326 467h-157v221h655v-221h-125l182 -256l179 256h-103v221h557v-221h-153l-332 -473l346 -496h184v-231h-692v231h137l-202 289l-205 -289h123v-231h-607z" />
<glyph unicode="&#x425;" horiz-adv-x="1337" d="M-68 0v231h189l350 502l-326 467h-157v221h655v-221h-125l182 -256l179 256h-103v221h557v-221h-153l-332 -473l346 -496h184v-231h-692v231h137l-202 289l-205 -289h123v-231h-607z" />
<glyph unicode="&#xd6;" horiz-adv-x="1470" d="M33 0v231h151v969h-151v221h629v-221h-132v-969h408v969h-129v221h627v-221h-152v-969h152v-520h-267v289h-1136z" />
<glyph unicode="&#x426;" horiz-adv-x="1470" d="M33 0v231h151v969h-151v221h629v-221h-132v-969h408v969h-129v221h627v-221h-152v-969h152v-520h-267v289h-1136z" />
<glyph unicode="&#xd7;" horiz-adv-x="1470" d="M33 1200v221h629v-221h-132v-164q0 -104 41 -141t148 -37q94 0 219 29v313h-129v221h627v-221h-152v-969h152v-231h-650v231h152v404q-98 -16 -156.5 -23.5t-132.5 -7.5q-219 0 -338 98q-127 104 -127 310v188h-151z" />
<glyph unicode="&#x427;" horiz-adv-x="1470" d="M33 1200v221h629v-221h-132v-164q0 -104 41 -141t148 -37q94 0 219 29v313h-129v221h627v-221h-152v-969h152v-231h-650v231h152v404q-98 -16 -156.5 -23.5t-132.5 -7.5q-219 0 -338 98q-127 104 -127 310v188h-151z" />
<glyph unicode="&#xd8;" horiz-adv-x="2107" d="M31 0v231h151v969h-151v221h616v-221h-119v-969h351v969h-119v221h583v-221h-118v-969h350v969h-119v221h617v-221h-152v-969h152v-231h-2042z" />
<glyph unicode="&#x428;" horiz-adv-x="2107" d="M31 0v231h151v969h-151v221h616v-221h-119v-969h351v969h-119v221h583v-221h-118v-969h350v969h-119v221h617v-221h-152v-969h152v-231h-2042z" />
<glyph unicode="&#xd9;" horiz-adv-x="2107" d="M31 0v231h151v969h-151v221h616v-221h-119v-969h351v969h-119v221h583v-221h-118v-969h350v969h-119v221h617v-221h-152v-969h152v-520h-267v289h-1775z" />
<glyph unicode="&#x429;" horiz-adv-x="2107" d="M31 0v231h151v969h-151v221h616v-221h-119v-969h351v969h-119v221h583v-221h-118v-969h350v969h-119v221h617v-221h-152v-969h152v-520h-267v289h-1775z" />
<glyph unicode="&#xda;" horiz-adv-x="1554" d="M27 950v471h915v-221h-151v-319h208q236 0 362 -118t126 -320.5t-126 -322.5t-364 -120h-704v231h151v969h-186v-250h-231zM791 231h86q246 0 245 211q0 100 -65.5 153.5t-179.5 53.5h-86v-418z" />
<glyph unicode="&#x42a;" horiz-adv-x="1554" d="M27 950v471h915v-221h-151v-319h208q236 0 362 -118t126 -320.5t-126 -322.5t-364 -120h-704v231h151v969h-186v-250h-231zM791 231h86q246 0 245 211q0 100 -65.5 153.5t-179.5 53.5h-86v-418z" />
<glyph unicode="&#xdb;" horiz-adv-x="1974" d="M25 1200v221h657v-221h-152v-319h209q236 0 362 -118t126 -320.5t-126 -322.5t-364 -120h-704v231h151v969h-159zM530 231h86q246 0 246 211q0 100 -65.5 153.5t-180.5 53.5h-86v-418zM1300 0v231h152v969h-152v221h650v-221h-152v-969h152v-231h-650z" />
<glyph unicode="&#x42b;" horiz-adv-x="1974" d="M25 1200v221h657v-221h-152v-319h209q236 0 362 -118t126 -320.5t-126 -322.5t-364 -120h-704v231h151v969h-159zM530 231h86q246 0 246 211q0 100 -65.5 153.5t-180.5 53.5h-86v-418zM1300 0v231h152v969h-152v221h650v-221h-152v-969h152v-231h-650z" />
<glyph unicode="&#xdc;" horiz-adv-x="1294" d="M25 1200v221h657v-221h-152v-319h209q236 0 362 -118t126 -320.5t-126 -322.5t-364 -120h-704v231h151v969h-159zM530 231h86q246 0 246 211q0 100 -65.5 153.5t-180.5 53.5h-86v-418z" />
<glyph unicode="&#x42c;" horiz-adv-x="1294" d="M25 1200v221h657v-221h-152v-319h209q236 0 362 -118t126 -320.5t-126 -322.5t-364 -120h-704v231h151v969h-159zM530 231h86q246 0 246 211q0 100 -65.5 153.5t-180.5 53.5h-86v-418z" />
<glyph unicode="&#xdd;" horiz-adv-x="1554" d="M59 463l252 121q113 -358 418 -359q164 0 265.5 103.5t123.5 289.5h-461v232h453q-29 168 -127 261t-250 93q-244 0 -395 -274h-211v491h211v-151q162 176 440 176q307 0 514 -203t207 -534q0 -319 -211 -528.5t-534 -209.5q-258 0 -434.5 125t-260.5 367z" />
<glyph unicode="&#x42d;" horiz-adv-x="1554" d="M59 463l252 121q113 -358 418 -359q164 0 265.5 103.5t123.5 289.5h-461v232h453q-29 168 -127 261t-250 93q-244 0 -395 -274h-211v491h211v-151q162 176 440 176q307 0 514 -203t207 -534q0 -319 -211 -528.5t-534 -209.5q-258 0 -434.5 125t-260.5 367z" />
<glyph unicode="&#xde;" horiz-adv-x="2324" d="M31 0v231h151v969h-151v221h649v-221h-152v-328h271q41 213 192 363q215 211 545 211q317 0 522 -209t205 -528q0 -317 -206 -527.5t-533 -210.5q-324 0 -531 207q-98 100 -149 207q-57 121 -58 256h-258v-410h152v-231h-649zM1165 715q0 -223 99.5 -355.5t259 -132.5 t259 132.5t99.5 355.5t-99.5 355t-259 132t-259 -132t-99.5 -355z" />
<glyph unicode="&#x42e;" horiz-adv-x="2324" d="M31 0v231h151v969h-151v221h649v-221h-152v-328h271q41 213 192 363q215 211 545 211q317 0 522 -209t205 -528q0 -317 -206 -527.5t-533 -210.5q-324 0 -531 207q-98 100 -149 207q-57 121 -58 256h-258v-410h152v-231h-649zM1165 715q0 -223 99.5 -355.5t259 -132.5 t259 132.5t99.5 355.5t-99.5 355t-259 132t-259 -132t-99.5 -355z" />
<glyph unicode="&#xdf;" horiz-adv-x="1343" d="M-61 0v231h161l197 387q-193 109 -193 361q0 203 126 322.5t364 119.5h715v-221h-152v-969h160v-231h-658v231h152v320h-193l-282 -551h-397zM471 989q0 -100 65.5 -153.5t180.5 -53.5h94v418h-94q-246 0 -246 -211z" />
<glyph unicode="&#x42f;" horiz-adv-x="1343" d="M-61 0v231h161l197 387q-193 109 -193 361q0 203 126 322.5t364 119.5h715v-221h-152v-969h160v-231h-658v231h152v320h-193l-282 -551h-397zM471 989q0 -100 65.5 -153.5t180.5 -53.5h94v418h-94q-246 0 -246 -211z" />
<glyph unicode="&#xe0;" horiz-adv-x="1118" d="M53 289q0 164 96.5 260t262.5 96q111 0 252 -55v61q0 98 -42 145.5t-133 47.5q-123 0 -190 -92l-223 49q29 111 137.5 173t284.5 62q317 0 420 -153q31 -43 40 -104.5t9 -147.5v-408h143v-223h-446v70q-123 -98 -291 -99q-147 0 -233.5 84t-86.5 234zM352 309 q0 -59 33 -96t86 -37q88 0 193 94v117q-84 63 -168 64q-144 -1 -144 -142z" />
<glyph unicode="&#x430;" horiz-adv-x="1118" d="M53 289q0 164 96.5 260t262.5 96q111 0 252 -55v61q0 98 -42 145.5t-133 47.5q-123 0 -190 -92l-223 49q29 111 137.5 173t284.5 62q317 0 420 -153q31 -43 40 -104.5t9 -147.5v-408h143v-223h-446v70q-123 -98 -291 -99q-147 0 -233.5 84t-86.5 234zM352 309 q0 -59 33 -96t86 -37q88 0 193 94v117q-84 63 -168 64q-144 -1 -144 -142z" />
<glyph unicode="&#xe1;" horiz-adv-x="1183" d="M68 614q0 360 153 541q139 164 424 201q197 25 219 86h244q-27 -174 -125 -244q-74 -53 -263.5 -75.5t-279.5 -84t-121 -202.5q111 164 314 163q217 0 349 -128t132 -363q0 -240 -144.5 -388.5t-379.5 -148.5q-246 0 -381 158q-141 166 -141 485zM375 485 q0 -127 55 -196.5t160 -69.5q102 0 157.5 71.5t55.5 196.5q0 131 -54.5 204t-158.5 73q-96 0 -155.5 -76t-59.5 -203z" />
<glyph unicode="&#x431;" horiz-adv-x="1183" d="M68 614q0 360 153 541q139 164 424 201q197 25 219 86h244q-27 -174 -125 -244q-74 -53 -263.5 -75.5t-279.5 -84t-121 -202.5q111 164 314 163q217 0 349 -128t132 -363q0 -240 -144.5 -388.5t-379.5 -148.5q-246 0 -381 158q-141 166 -141 485zM375 485 q0 -127 55 -196.5t160 -69.5q102 0 157.5 71.5t55.5 196.5q0 131 -54.5 204t-158.5 73q-96 0 -155.5 -76t-59.5 -203z" />
<glyph unicode="&#xe2;" horiz-adv-x="1021" d="M33 0v223h123v570h-123v219h567q172 0 258 -71t86 -193q0 -82 -50 -137.5t-124 -80.5q90 -31 139 -79q61 -61 62 -152q0 -158 -91.5 -228.5t-291.5 -70.5h-555zM453 223h108q119 0 119 101q0 104 -127 104h-100v-205zM453 600h79q125 0 125 96.5t-122 96.5h-82v-193z" />
<glyph unicode="&#x432;" horiz-adv-x="1021" d="M33 0v223h123v570h-123v219h567q172 0 258 -71t86 -193q0 -82 -50 -137.5t-124 -80.5q90 -31 139 -79q61 -61 62 -152q0 -158 -91.5 -228.5t-291.5 -70.5h-555zM453 223h108q119 0 119 101q0 104 -127 104h-100v-205zM453 600h79q125 0 125 96.5t-122 96.5h-82v-193z" />
<glyph unicode="&#xe3;" horiz-adv-x="985" d="M33 0h522v223h-94v570h301v-129h205v348h-934v-219h123v-570h-123v-223z" />
<glyph unicode="&#x433;" horiz-adv-x="985" d="M33 0h522v223h-94v570h301v-129h205v348h-934v-219h123v-570h-123v-223z" />
<glyph unicode="&#xe4;" horiz-adv-x="1163" d="M29 223h112q59 127 83 215t24 238v117h-123v219h1012v-219h-123v-570h123v-452h-236v229h-637v-229h-235v452zM397 223h312v570h-215v-134q0 -135 -25 -233q-17 -66 -72 -203z" />
<glyph unicode="&#x434;" horiz-adv-x="1163" d="M29 223h112q59 127 83 215t24 238v117h-123v219h1012v-219h-123v-570h123v-452h-236v229h-637v-229h-235v452zM397 223h312v570h-215v-134q0 -135 -25 -233q-17 -66 -72 -203z" />
<glyph unicode="&#xe5;" horiz-adv-x="1161" d="M57 503.5q0 241.5 141.5 387t381 145.5t380 -152.5t140.5 -418.5v-16h-729q0 -119 64.5 -185.5t176.5 -66.5q152 0 224 135l237 -76q-57 -133 -186 -209t-307 -76q-236 0 -379.5 145.5t-143.5 387zM373 621h403q0 88 -56 140t-147 52q-88 0 -144 -52t-56 -140z" />
<glyph unicode="&#x435;" horiz-adv-x="1161" d="M57 503.5q0 241.5 141.5 387t381 145.5t380 -152.5t140.5 -418.5v-16h-729q0 -119 64.5 -185.5t176.5 -66.5q152 0 224 135l237 -76q-57 -133 -186 -209t-307 -76q-236 0 -379.5 145.5t-143.5 387zM373 621h403q0 88 -56 140t-147 52q-88 0 -144 -52t-56 -140z" />
<glyph unicode="&#xe6;" horiz-adv-x="1769" d="M6 0h299l418 510l-322 285h101v217h-496v-217h111l278 -250l-268 -322h-121v-223zM610 0h551v223h-123v572h123v217h-551v-217h121v-572h-121v-223zM1044 510l322 285h-100v217h495v-217h-110l-279 -250l268 -322h121v-223h-299z" />
<glyph unicode="&#x436;" horiz-adv-x="1769" d="M6 0h299l418 510l-322 285h101v217h-496v-217h111l278 -250l-268 -322h-121v-223zM610 0h551v223h-123v572h123v217h-551v-217h121v-572h-121v-223zM1044 510l322 285h-100v217h495v-217h-110l-279 -250l268 -322h121v-223h-299z" />
<glyph unicode="&#xe7;" horiz-adv-x="1015" d="M41 238l231 100q23 -61 76 -101t133 -40q78 0 124 26.5t46 85.5q0 61 -43 86t-125 25h-51v203h64q66 0 99.5 24.5t33.5 67.5q0 98 -135 98q-63 0 -112.5 -49t-72.5 -119h-229v367h217v-90q41 49 98 77q74 37 166 37q158 0 259.5 -70.5t101.5 -209.5q0 -86 -51.5 -147.5 t-114.5 -73.5q98 -31 149 -86q59 -63 60 -162q0 -152 -115 -234t-332 -82q-180 0 -282.5 57.5t-194.5 209.5z" />
<glyph unicode="&#x437;" horiz-adv-x="1015" d="M41 238l231 100q23 -61 76 -101t133 -40q78 0 124 26.5t46 85.5q0 61 -43 86t-125 25h-51v203h64q66 0 99.5 24.5t33.5 67.5q0 98 -135 98q-63 0 -112.5 -49t-72.5 -119h-229v367h217v-90q41 49 98 77q74 37 166 37q158 0 259.5 -70.5t101.5 -209.5q0 -86 -51.5 -147.5 t-114.5 -73.5q98 -31 149 -86q59 -63 60 -162q0 -152 -115 -234t-332 -82q-180 0 -282.5 57.5t-194.5 209.5z" />
<glyph unicode="&#xe8;" horiz-adv-x="1214" d="M33 0h428l301 588v-365h-94v-223h522v223h-123v570h123v219h-428l-301 -584v365h94v219h-522v-219h123v-570h-123v-223z" />
<glyph unicode="&#x438;" horiz-adv-x="1214" d="M33 0h428l301 588v-365h-94v-223h522v223h-123v570h123v219h-428l-301 -584v365h94v219h-522v-219h123v-570h-123v-223z" />
<glyph unicode="&#xe9;" horiz-adv-x="1214" d="M33 0v223h123v570h-123v219h522v-219h-94v-365l301 584h428v-219h-123v-570h123v-223h-522v223h94v365l-301 -588h-428zM322 1421h198q8 -68 48 -104.5t102 -36.5q131 0 147 141h201q0 -141 -86 -227q-92 -94 -262 -94q-168 0 -262 94q-86 86 -86 227z" />
<glyph unicode="&#x439;" horiz-adv-x="1214" d="M33 0v223h123v570h-123v219h522v-219h-94v-365l301 584h428v-219h-123v-570h123v-223h-522v223h94v365l-301 -588h-428zM322 1421h198q8 -68 48 -104.5t102 -36.5q131 0 147 141h201q0 -141 -86 -227q-92 -94 -262 -94q-168 0 -262 94q-86 86 -86 227z" />
<glyph unicode="&#xea;" horiz-adv-x="1193" d="M35 0h551v223h-123v572h123v217h-551v-217h121v-572h-121v-223zM469 510l322 285h-101v217h496v-217h-111l-278 -250l268 -322h121v-223h-299z" />
<glyph unicode="&#x43a;" horiz-adv-x="1193" d="M35 0h551v223h-123v572h123v217h-551v-217h121v-572h-121v-223zM469 510l322 285h-101v217h496v-217h-111l-278 -250l268 -322h121v-223h-299z" />
<glyph unicode="&#xeb;" horiz-adv-x="1148" d="M-12 -14q51 -14 114 -15q199 0 293 166q84 147 84 408v248h215v-570h-123v-223h551v223h-123v570h123v219h-1011v-219h122v-144q0 -242 -44 -339t-123 -97q-55 0 -78 10v-237z" />
<glyph unicode="&#x43b;" horiz-adv-x="1148" d="M-12 -14q51 -14 114 -15q199 0 293 166q84 147 84 408v248h215v-570h-123v-223h551v223h-123v570h123v219h-1011v-219h122v-144q0 -242 -44 -339t-123 -97q-55 0 -78 10v-237z" />
<glyph unicode="&#xec;" horiz-adv-x="1478" d="M35 0h438v223h-94v570l266 -793h113l276 793v-570h-94v-223h508v223h-123v570h123v219h-528l-179 -518l-172 518h-534v-219h123v-570h-123v-223z" />
<glyph unicode="&#x43c;" horiz-adv-x="1478" d="M35 0h438v223h-94v570l266 -793h113l276 793v-570h-94v-223h508v223h-123v570h123v219h-528l-179 -518l-172 518h-534v-219h123v-570h-123v-223z" />
<glyph unicode="&#xed;" horiz-adv-x="1214" d="M33 0v223h123v570h-123v219h522v-219h-94v-162h301v162h-94v219h522v-219h-123v-570h123v-223h-522v223h94v205h-301v-205h94v-223h-522z" />
<glyph unicode="&#x43d;" horiz-adv-x="1214" d="M33 0v223h123v570h-123v219h522v-219h-94v-162h301v162h-94v219h522v-219h-123v-570h123v-223h-522v223h94v205h-301v-205h94v-223h-522z" />
<glyph unicode="&#xee;" horiz-adv-x="1183" d="M57 504q0 242 145.5 387t387.5 145q240 0 388 -146.5t148 -385.5q0 -238 -149.5 -385.5t-386.5 -147.5q-240 0 -386.5 144.5t-146.5 388.5zM365 506q0 -133 61 -210t164 -77q104 0 164.5 75t60.5 212q0 133 -60.5 207.5t-164.5 74.5q-102 0 -163.5 -73.5t-61.5 -208.5z " />
<glyph unicode="&#x43e;" horiz-adv-x="1183" d="M57 504q0 242 145.5 387t387.5 145q240 0 388 -146.5t148 -385.5q0 -238 -149.5 -385.5t-386.5 -147.5q-240 0 -386.5 144.5t-146.5 388.5zM365 506q0 -133 61 -210t164 -77q104 0 164.5 75t60.5 212q0 133 -60.5 207.5t-164.5 74.5q-102 0 -163.5 -73.5t-61.5 -208.5z " />
<glyph unicode="&#xef;" horiz-adv-x="1216" d="M33 0h522v223h-94v570h301v-570h-94v-223h522v223h-123v570h123v219h-1157v-219h123v-570h-123v-223z" />
<glyph unicode="&#x43f;" horiz-adv-x="1216" d="M33 0h522v223h-94v570h301v-570h-94v-223h522v223h-123v570h123v219h-1157v-219h123v-570h-123v-223z" />
<glyph unicode="&#xf0;" horiz-adv-x="1261" d="M23 -109h133v904h-133v217h423v-156q141 156 320 156q188 0 312 -148.5t124 -388.5q0 -227 -117.5 -365.5t-308.5 -138.5q-195 0 -317 162v-242h147v-223h-583v223zM457 496q0 -137 58 -216t157 -79q100 0 158.5 76.5t58.5 218.5q0 139 -58.5 215.5t-158.5 76.5 q-98 0 -156.5 -76.5t-58.5 -215.5z" />
<glyph unicode="&#x440;" horiz-adv-x="1261" d="M23 -109h133v904h-133v217h423v-156q141 156 320 156q188 0 312 -148.5t124 -388.5q0 -227 -117.5 -365.5t-308.5 -138.5q-195 0 -317 162v-242h147v-223h-583v223zM457 496q0 -137 58 -216t157 -79q100 0 158.5 76.5t58.5 218.5q0 139 -58.5 215.5t-158.5 76.5 q-98 0 -156.5 -76.5t-58.5 -215.5z" />
<glyph unicode="&#xf1;" horiz-adv-x="1138" d="M57 504q0 236 140.5 384t359.5 148q182 0 297 -114v90h217v-410l-229 -4q-59 193 -242 193q-111 0 -173 -75t-62 -210q0 -287 241 -287q172 0 254 191l238 -121q-160 -317 -508 -318q-240 0 -386.5 144.5t-146.5 388.5z" />
<glyph unicode="&#x441;" horiz-adv-x="1138" d="M57 504q0 236 140.5 384t359.5 148q182 0 297 -114v90h217v-410l-229 -4q-59 193 -242 193q-111 0 -173 -75t-62 -210q0 -287 241 -287q172 0 254 191l238 -121q-160 -317 -508 -318q-240 0 -386.5 144.5t-146.5 388.5z" />
<glyph unicode="&#xf2;" horiz-adv-x="1030" d="M29 594v418h977v-418h-205v199h-131v-570h94v-223h-522v223h123v570h-132v-199h-204z" />
<glyph unicode="&#x442;" horiz-adv-x="1030" d="M29 594v418h977v-418h-205v199h-131v-570h94v-223h-522v223h123v570h-132v-199h-204z" />
<glyph unicode="&#xf3;" horiz-adv-x="1103" d="M-29 795v217h553v-217h-114l186 -449l164 449h-107v217h475v-217h-135l-440 -1127h-358v217h213l45 111l-349 799h-133z" />
<glyph unicode="&#x443;" horiz-adv-x="1103" d="M-29 795v217h553v-217h-114l186 -449l164 449h-107v217h475v-217h-135l-440 -1127h-358v217h213l45 111l-349 799h-133z" />
<glyph unicode="&#xf4;" horiz-adv-x="1714" d="M57 475q0 240 122 388.5t313 148.5q70 0 120 -22.5t90 -63.5v278h-122v217h426v-495q37 37 90 61.5t121 24.5q186 0 310 -149.5t124 -387.5q0 -229 -117 -366.5t-307 -137.5q-154 0 -221 99v-179h122v-223h-548v223h122v179q-68 -98 -221 -99q-190 0 -307 137.5 t-117 366.5zM371 495.5q0 -139.5 59 -217t158 -77.5q63 0 114 39v510q-20 14 -30 20q-35 18 -84 18q-100 0 -158.5 -76.5t-58.5 -216zM1006 240q51 -39 114 -39q100 0 158.5 76.5t58.5 218.5q0 139 -58 215.5t-159 76.5q-39 0 -64.5 -10t-49.5 -28v-510z" />
<glyph unicode="&#x444;" horiz-adv-x="1714" d="M57 475q0 240 122 388.5t313 148.5q70 0 120 -22.5t90 -63.5v278h-122v217h426v-495q37 37 90 61.5t121 24.5q186 0 310 -149.5t124 -387.5q0 -229 -117 -366.5t-307 -137.5q-154 0 -221 99v-179h122v-223h-548v223h122v179q-68 -98 -221 -99q-190 0 -307 137.5 t-117 366.5zM371 495.5q0 -139.5 59 -217t158 -77.5q63 0 114 39v510q-20 14 -30 20q-35 18 -84 18q-100 0 -158.5 -76.5t-58.5 -216zM1006 240q51 -39 114 -39q100 0 158.5 76.5t58.5 218.5q0 139 -58 215.5t-159 76.5q-39 0 -64.5 -10t-49.5 -28v-510z" />
<glyph unicode="&#xf5;" horiz-adv-x="1038" d="M-2 0v223h141l205 273l-211 299h-113v217h328l184 -281l199 281h273v-217h-132l-192 -260l217 -312h145v-223h-354l-196 299l-213 -299h-281z" />
<glyph unicode="&#x445;" horiz-adv-x="1038" d="M-2 0v223h141l205 273l-211 299h-113v217h328l184 -281l199 281h273v-217h-132l-192 -260l217 -312h145v-223h-354l-196 299l-213 -299h-281z" />
<glyph unicode="&#xf6;" horiz-adv-x="1216" d="M33 0v223h123v570h-123v219h522v-219h-94v-570h301v570h-94v219h522v-219h-123v-570h123v-452h-236v229h-921z" />
<glyph unicode="&#x446;" horiz-adv-x="1216" d="M33 0v223h123v570h-123v219h522v-219h-94v-570h301v570h-94v219h522v-219h-123v-570h123v-452h-236v229h-921z" />
<glyph unicode="&#xf7;" horiz-adv-x="1214" d="M33 793v219h522v-219h-94v-88q0 -59 27.5 -83t89.5 -24q45 0 91 6t93 21v168h-94v219h522v-219h-123v-570h123v-223h-551v223h123v189q-61 -12 -129 -20.5t-135 -8.5q-186 0 -264 80t-78 246v84h-123z" />
<glyph unicode="&#x447;" horiz-adv-x="1214" d="M33 793v219h522v-219h-94v-88q0 -59 27.5 -83t89.5 -24q45 0 91 6t93 21v168h-94v219h522v-219h-123v-570h123v-223h-551v223h123v189q-61 -12 -129 -20.5t-135 -8.5q-186 0 -264 80t-78 246v84h-123z" />
<glyph unicode="&#xf8;" horiz-adv-x="1759" d="M33 0v223h123v570h-123v219h522v-219h-94v-570h268v570h-94v219h493v-219h-94v-570h269v570h-95v219h523v-219h-123v-570h123v-223h-1698z" />
<glyph unicode="&#x448;" horiz-adv-x="1759" d="M33 0v223h123v570h-123v219h522v-219h-94v-570h268v570h-94v219h493v-219h-94v-570h269v570h-95v219h523v-219h-123v-570h123v-223h-1698z" />
<glyph unicode="&#xf9;" horiz-adv-x="1759" d="M33 0v223h123v570h-123v219h522v-219h-94v-570h268v570h-94v219h493v-219h-94v-570h269v570h-95v219h523v-219h-123v-570h123v-452h-236v229h-1462z" />
<glyph unicode="&#x449;" horiz-adv-x="1759" d="M33 0v223h123v570h-123v219h522v-219h-94v-570h268v570h-94v219h493v-219h-94v-570h269v570h-95v219h523v-219h-123v-570h123v-452h-236v229h-1462z" />
<glyph unicode="&#xfa;" horiz-adv-x="1198" d="M6 647v365h766v-219h-123v-154h117q182 0 282.5 -79t100.5 -230q0 -156 -101.5 -243t-281.5 -87h-537v223h123v570h-141v-146h-205zM649 223h84q125 0 125 101q0 104 -127 104h-82v-205z" />
<glyph unicode="&#x44a;" horiz-adv-x="1198" d="M6 647v365h766v-219h-123v-154h117q182 0 282.5 -79t100.5 -230q0 -156 -101.5 -243t-281.5 -87h-537v223h123v570h-141v-146h-205zM649 223h84q125 0 125 101q0 104 -127 104h-82v-205z" />
<glyph unicode="&#xfb;" horiz-adv-x="1603" d="M25 793v219h550v-219h-122v-154h116q182 0 282.5 -79t100.5 -230q0 -156 -101 -243t-282 -87h-536v223h123v570h-131zM453 223h84q125 0 125 101q0 104 -127 104h-82v-205zM1020 0v223h123v570h-123v219h551v-219h-123v-570h123v-223h-551z" />
<glyph unicode="&#x44b;" horiz-adv-x="1603" d="M25 793v219h550v-219h-122v-154h116q182 0 282.5 -79t100.5 -230q0 -156 -101 -243t-282 -87h-536v223h123v570h-131zM453 223h84q125 0 125 101q0 104 -127 104h-82v-205zM1020 0v223h123v570h-123v219h551v-219h-123v-570h123v-223h-551z" />
<glyph unicode="&#xfc;" horiz-adv-x="1001" d="M25 793v219h550v-219h-122v-154h116q182 0 282.5 -79t100.5 -230q0 -156 -101 -243t-282 -87h-536v223h123v570h-131zM453 223h84q125 0 125 101q0 104 -127 104h-82v-205z" />
<glyph unicode="&#x44c;" horiz-adv-x="1001" d="M25 793v219h550v-219h-122v-154h116q182 0 282.5 -79t100.5 -230q0 -156 -101 -243t-282 -87h-536v223h123v570h-131zM453 223h84q125 0 125 101q0 104 -127 104h-82v-205z" />
<glyph unicode="&#xfd;" horiz-adv-x="1138" d="M45 289l238 121q82 -190 254 -191q201 0 235 209h-272v172h270q-20 92 -78.5 141.5t-148.5 49.5q-182 0 -242 -191h-229v412h217v-90q115 115 297 114q219 0 359 -148.5t140 -383.5q0 -242 -145 -387.5t-387 -145.5q-348 1 -508 318z" />
<glyph unicode="&#x44d;" horiz-adv-x="1138" d="M45 289l238 121q82 -190 254 -191q201 0 235 209h-272v172h270q-20 92 -78.5 141.5t-148.5 49.5q-182 0 -242 -191h-229v412h217v-90q115 115 297 114q219 0 359 -148.5t140 -383.5q0 -242 -145 -387.5t-387 -145.5q-348 1 -508 318z" />
<glyph unicode="&#xfe;" horiz-adv-x="1753" d="M27 0v223h123v570h-123v219h551v-219h-123v-162h184q37 188 174 296.5t346 108.5q240 0 388.5 -146.5t148.5 -385.5q0 -238 -149.5 -385.5t-387.5 -147.5q-221 0 -363.5 123t-164.5 334h-176v-205h123v-223h-551zM934 506q0 -133 61.5 -210t163.5 -77q104 0 164.5 75 t60.5 212q0 133 -60 207.5t-165 74.5q-102 0 -163.5 -73.5t-61.5 -208.5z" />
<glyph unicode="&#x44e;" horiz-adv-x="1753" d="M27 0v223h123v570h-123v219h551v-219h-123v-162h184q37 188 174 296.5t346 108.5q240 0 388.5 -146.5t148.5 -385.5q0 -238 -149.5 -385.5t-387.5 -147.5q-221 0 -363.5 123t-164.5 334h-176v-205h123v-223h-551zM934 506q0 -133 61.5 -210t163.5 -77q104 0 164.5 75 t60.5 212q0 133 -60 207.5t-165 74.5q-102 0 -163.5 -73.5t-61.5 -208.5z" />
<glyph unicode="&#xff;" horiz-adv-x="1079" d="M0 0v223h121l139 228q-55 33 -94 99t-39 142q0 156 100.5 238t282.5 82h537v-219h-123v-570h131v-223h-551v223h123v162h-90l-228 -385h-309zM418 692q0 -104 127 -104h82v205h-84q-125 -1 -125 -101z" />
<glyph unicode="&#x44f;" horiz-adv-x="1079" d="M0 0v223h121l139 228q-55 33 -94 99t-39 142q0 156 100.5 238t282.5 82h537v-219h-123v-570h131v-223h-551v223h123v162h-90l-228 -385h-309zM418 692q0 -104 127 -104h82v205h-84q-125 -1 -125 -101z" />
<glyph unicode="&#x152;" horiz-adv-x="2881" d="M61 709q0 324 207 526q215 211 545 211q317 0 522 -209t205 -528q0 -317 -206 -527.5t-533 -210.5q-324 0 -532 210.5t-208 527.5zM442 715q0 -223 99.5 -355.5t259.5 -132.5t259 132.5t99 355.5t-99 355t-259 132t-259.5 -132t-99.5 -355zM1634 0v231h152v969h-152v221 h1192v-440h-256v219h-438v-348h362v-234h-362v-387h438v234h256v-465h-1192z" />
<glyph unicode="&#x153;" horiz-adv-x="2344" d="M57 504q0 242 145.5 387t387.5 145q240 0 388 -146.5t148 -385.5q0 -238 -149.5 -385.5t-386.5 -147.5q-240 0 -386.5 144.5t-146.5 388.5zM365 506q0 -133 61 -210t164 -77q104 0 164.5 75t60.5 212q0 133 -60.5 207.5t-164.5 74.5q-102 0 -163.5 -73.5t-61.5 -208.5z M1241 503.5q0 241.5 141.5 387t381 145.5t380 -152.5t140.5 -418.5v-16h-730q0 -119 64.5 -185.5t177.5 -66.5q152 0 223 135l238 -76q-57 -133 -186 -209t-308 -76q-236 0 -379 145.5t-143 387zM1556 621h404q0 88 -56.5 140t-146.5 52q-88 0 -144.5 -52t-56.5 -140z" />
<glyph unicode="&#x178;" horiz-adv-x="1228" d="M-72 1200v221h650v-221h-125l188 -317l190 317h-120v221h587v-221h-159l-365 -606v-363h184v-231h-714v231h184v398l-342 571h-158zM16 1569v231h152v969h-152v221h1192v-440h-256v219h-438v-348h363v-234h-363v-387h438v234h256v-465h-1192zM324 3310q0 49 38.5 90 t92 41t91.5 -38t38 -93q0 -59 -36 -95.5t-93 -36.5q-55 0 -93 38.5t-38 93.5zM688 3310q0 49 39 90t92 41t92 -39t39 -92q0 -57 -36.5 -94.5t-94.5 -37.5q-55 0 -93 38.5t-38 93.5z" />
<glyph unicode="&#x2c6;" horiz-adv-x="1024" d="M197 1147l196 371h238l196 -371h-141l-174 217l-176 -217h-139z" />
<glyph unicode="&#x2dc;" horiz-adv-x="1024" d="M195 1194q49 236 204 236q41 0 86 -15l93 -24q25 -8 55 -9q63 0 86 86h110q-51 -244 -208 -243q-16 0 -35 2t-39 8l-88 27q-37 10 -66 10q-66 0 -88 -78h-110z" />
<glyph unicode="&#x2013;" horiz-adv-x="1024" d="M0 401v228h1024v-228h-1024z" />
<glyph unicode="&#x2014;" horiz-adv-x="2048" d="M0 401v228h2048v-228h-2048z" />
<glyph unicode="&#x2018;" horiz-adv-x="532" d="M106 774v299q0 193 75 283t247 90v-154q-80 -12 -113.5 -50t-33.5 -112v-24h139v-332h-314z" />
<glyph unicode="&#x2019;" horiz-adv-x="532" d="M111 752v153q78 12 112.5 49t34.5 111v25h-139v331h313v-297q0 -193 -74.5 -282.5t-246.5 -89.5z" />
<glyph unicode="&#x201a;" horiz-adv-x="532" d="M96 -186q150 23 150 161v25h-140v332h314v-297q0 -190 -77 -282.5t-247 -92.5v154z" />
<glyph unicode="&#x201c;" horiz-adv-x="989" d="M115 774v299q0 193 74.5 283t246.5 90v-154q-80 -12 -113.5 -50t-33.5 -112v-24h137v-332h-311zM555 774v299q0 193 75 283t247 90v-154q-80 -12 -114 -50t-34 -112v-24h139v-332h-313z" />
<glyph unicode="&#x201d;" horiz-adv-x="989" d="M117 752v153q78 12 112.5 49t34.5 111v25h-137v331h313v-297q0 -190 -76.5 -281t-246.5 -91zM557 752v153q150 23 150 160v25h-140v331h314v-297q0 -190 -77 -281t-247 -91z" />
<glyph unicode="&#x201e;" horiz-adv-x="989" d="M104 -186q80 12 114 50t34 111v25h-137v332h311v-297q0 -190 -76 -282.5t-246 -92.5v154zM545 -186q80 12 113.5 50t33.5 111v25h-137v332h313v-297q0 -190 -76.5 -282.5t-246.5 -92.5v154z" />
<glyph unicode="&#x2022;" horiz-adv-x="1208" d="M307 762q0 123 86 209t211 86q123 0 209 -86t86 -209q0 -121 -86 -209t-211 -88q-123 0 -209 86t-86 211z" />
<glyph unicode="&#x2026;" horiz-adv-x="2048" d="M-4 0v332h311v-332h-311zM678 0v332h311v-332h-311zM1362 0v332h311v-332h-311z" />
<glyph unicode="&#x2039;" horiz-adv-x="587" d="M57 506l260 311h213l-258 -311l258 -313h-213z" />
<glyph unicode="&#x203a;" horiz-adv-x="587" d="M51 193l260 313l-260 311h215l260 -311l-260 -313h-215z" />
<glyph unicode="&#x2122;" d="M207 1350v112h485v-112h-168v-435h-149v435h-168zM803 915v547h196l127 -332l123 332h197v-547h-135v410l-154 -410h-61l-158 410v-410h-135z" />
<glyph unicode="&#xe000;" horiz-adv-x="1010" d="M0 1010h1010v-1010h-1010v1010z" />
<glyph unicode="&#xfb01;" horiz-adv-x="1269" d="M25 0v223h131v572h-131v217h131v110q0 152 98 238t268 86q127 0 205 -50t115 -151l-254 -92q-25 86 -74 86q-53 0 -53 -94v-133h160v-217h-160v-572h160v-223h-596zM676 0v223h133v572h-133v217h436v-789h143v-223h-579zM780 1278q0 72 48.5 120t117.5 48q68 0 119 -49 t51 -119t-50 -118t-119.5 -48t-118 48t-48.5 118z" />
<glyph unicode="&#xfb02;" horiz-adv-x="1259" d="M25 0v223h131v572h-131v217h131v110q0 152 98 238t268 86q127 0 205 -50t115 -151l-254 -92q-25 86 -74 86q-53 0 -53 -94v-133h160v-217h-160v-572h160v-223h-596zM668 0v223h131v981h-131v217h436v-1198h141v-223h-577z" />
<glyph unicode="&#xfb03;" horiz-adv-x="1912" d="M25 0v223h131v572h-131v217h131v110q0 152 98 238t268 86q127 0 205 -50t115 -151l-254 -92q-25 86 -74 86q-53 0 -53 -94v-133h160v-217h-160v-572h160v-223h-596zM668 0v223h131v572h-131v217h131v110q0 152 98 238t268 86q127 0 205 -50t115 -151l-254 -92 q-25 86 -74 86q-53 0 -53 -94v-133h160v-217h-160v-572h160v-223h-596zM1319 0v223h133v572h-133v217h436v-789h143v-223h-579zM1423 1278q0 72 48.5 120t117.5 48q68 0 119 -49t51 -119t-50 -118t-119.5 -48t-118 48t-48.5 118z" />
<glyph unicode="&#xfb04;" horiz-adv-x="1902" d="M25 0v223h131v572h-131v217h131v110q0 152 98 238t268 86q127 0 205 -50t115 -151l-254 -92q-25 86 -74 86q-53 0 -53 -94v-133h160v-217h-160v-572h160v-223h-596zM668 0v223h131v572h-131v217h131v110q0 152 98 238t268 86q127 0 205 -50t115 -151l-254 -92 q-25 86 -74 86q-53 0 -53 -94v-133h160v-217h-160v-572h160v-223h-596zM1311 0v223h131v981h-131v217h436v-1198h141v-223h-577z" />
</font>
</defs>
</svg>
