<?xml version="1.0" standalone="no"?>
<!DOCTYPE svg PUBLIC "-//W3C//DTD SVG 1.1//EN" "http://www.w3.org/Graphics/SVG/1.1/DTD/svg11.dtd" >
<svg xmlns="http://www.w3.org/2000/svg">
<metadata>
This is a custom SVG webfont generated by Font Squirrel.
</metadata>
<defs>
<font id="RodeoLightNormal" horiz-adv-x="1705" >
<font-face units-per-em="2048" ascent="1638" descent="-410" />
<missing-glyph horiz-adv-x="497" />
<glyph unicode=" "  horiz-adv-x="497" />
<glyph unicode="&#x09;" horiz-adv-x="497" />
<glyph unicode="&#xa0;" horiz-adv-x="497" />
<glyph unicode="!" horiz-adv-x="544" d="M213 0v205h117v-205h-117zM215 995v426h117v-426l-25 -624h-67z" />
<glyph unicode="&#x22;" horiz-adv-x="550" d="M100 881v553h86v-553h-86zM365 881v553h86v-553h-86z" />
<glyph unicode="#" horiz-adv-x="1574" d="M129 494l31 90h336l100 282h-360l28 90h365l176 498h110l-174 -498h271l176 498h110l-174 -498h322l-31 -90h-323l-101 -282h348l-30 -90h-351l-174 -494h-112l176 494h-270l-179 -494h-110l174 494h-334zM610 584h269l100 282h-270z" />
<glyph unicode="$" horiz-adv-x="995" d="M82 1067q0 158 98.5 258t263.5 100v172h86v-178q141 -20 254 -141v123h80v-385h-80v141q-57 76 -120.5 118t-133.5 56v-540q397 -96 398 -410q0 -170 -107.5 -275.5t-290.5 -105.5v-209h-86v215q-152 27 -280 166v-172h-80v498h80v-189q127 -176 280 -209v615 q-362 100 -362 352zM184 1081q0 -96 61.5 -156.5t198.5 -103.5v518q-117 0 -188.5 -71.5t-71.5 -186.5zM530 88q139 0 218 75t79 199q0 119 -71.5 197t-225.5 125v-596z" />
<glyph unicode="%" horiz-adv-x="1384" d="M61 1034q0 197 71 304.5t190 107.5q117 0 189.5 -108.5t72.5 -303.5q0 -193 -73 -303t-189 -110q-119 0 -190 107t-71 306zM145 1032q0 -156 48.5 -241.5t126 -85.5t127 87t49.5 240q0 156 -48.5 243t-128.5 87q-78 0 -126 -86t-48 -244zM209 -29l868 1475h94l-868 -1475 h-94zM799 383q0 195 71.5 304.5t188.5 109.5t189.5 -108.5t72.5 -305.5q0 -195 -72.5 -303.5t-189.5 -108.5q-119 0 -189.5 107.5t-70.5 304.5zM883 383q0 -156 48 -243t126 -87q76 0 126 88t50 242q0 156 -48 243t-128 87q-78 0 -126 -86t-48 -244z" />
<glyph unicode="&#x26;" horiz-adv-x="1413" d="M98 424q0 307 351 446q-131 174 -132 297q0 127 80 203t219 76q145 0 227.5 -71.5t82.5 -192.5q0 -221 -328 -342l352 -486q94 154 115 377h252v-92h-164q-33 -201 -143 -369l129 -178h178v-92h-242l-129 178q-156 -207 -389 -207q-94 0 -176 33t-145 94 q-138 138 -138 326zM207 420q0 -141 102.5 -243.5t249.5 -102.5q94 0 174 41t156 137l-389 534q-293 -118 -293 -366zM428 1159q0 -117 119 -264q139 57 205.5 122.5t66.5 153.5q0 82 -55 131.5t-148 49.5q-88 0 -138 -50.5t-50 -142.5z" />
<glyph unicode="'" horiz-adv-x="284" d="M100 881v553h86v-553h-86z" />
<glyph unicode="(" horiz-adv-x="702" d="M176 551q0 342 125 569.5t365 319.5v-105q-375 -182 -375 -784t375 -784v-105q-238 90 -364 318.5t-126 570.5z" />
<glyph unicode=")" horiz-adv-x="702" d="M35 -233q375 182 375 784t-375 784v105q238 -90 363.5 -318.5t125.5 -570.5q0 -346 -125 -571.5t-364 -317.5v105z" />
<glyph unicode="*" horiz-adv-x="919" d="M125 1167l31 95l256 -86l-2 270h100l-4 -270l258 86l29 -95l-256 -82l159 -217l-80 -57l-157 221l-156 -221l-80 59l162 215z" />
<glyph unicode="+" d="M254 569v80h559v570h80v-570h559v-80h-559v-569h-80v569h-559z" />
<glyph unicode="," horiz-adv-x="497" d="M168 -182q47 20 47 71v111h-33v205h117v-285q0 -195 -117 -194h-14v92z" />
<glyph unicode="-" d="M254 571v80h1198v-80h-1198z" />
<glyph unicode="." horiz-adv-x="497" d="M190 0v205h117v-205h-117z" />
<glyph unicode="/" horiz-adv-x="577" d="M-66 -190l564 1636h92l-563 -1636h-93z" />
<glyph unicode="0" horiz-adv-x="995" d="M76 708.5q0 356.5 111.5 547t310 190.5t310.5 -190.5t112 -547t-112 -547t-310.5 -190.5t-310 190.5t-111.5 547zM180 710.5q0 -309.5 85 -473t233 -163.5q145 0 231 160.5t86 455.5q0 322 -83 490t-234 168q-147 0 -232.5 -164t-85.5 -473.5z" />
<glyph unicode="1" horiz-adv-x="995" d="M256 0v94h180v1233h-180v94h299v-1327h180v-94h-479z" />
<glyph unicode="2" horiz-adv-x="995" d="M72 59q0 164 62.5 283t201.5 236l328 264q84 94 84 221q0 133 -72 209t-193 76q-276 0 -276 -400h-101v35q0 227 97.5 345t281.5 118q168 0 270.5 -102.5t102.5 -272.5q0 -139 -67 -240q-49 -72 -185 -182l-176 -135q-104 -86 -168 -178q-33 -49 -51 -107.5t-18 -134.5 h573v355h104v-449h-796z" />
<glyph unicode="3" horiz-adv-x="995" d="M72 453h112q0 -180 87 -279.5t241 -99.5q131 0 209 82t78 219q0 158 -95.5 241.5t-277.5 83.5l-49 -2v101h20q178 0 270.5 73.5t92.5 214.5q0 121 -72 195t-190 74q-129 0 -205 -84t-76 -238h-111q0 193 105.5 302.5t286.5 109.5q164 0 265 -97.5t101 -254.5 q0 -121 -62.5 -208t-185.5 -130q289 -68 289 -373q0 -182 -112.5 -297t-288.5 -115q-197 0 -314.5 128.5t-117.5 353.5z" />
<glyph unicode="4" horiz-adv-x="995" d="M57 547l551 899h115v-924h192v-96h-192v-332h111v-94h-347v94h140v332h-516q-15 64 -54 121zM152 522h475v791z" />
<glyph unicode="5" horiz-adv-x="995" d="M92 416l105 6q0 -172 75.5 -266.5t206.5 -94.5q143 0 230.5 103.5t87.5 275.5q0 168 -83 269.5t-218 101.5q-186 0 -289 -172l-78 68l51 714h649v-358h-94v264h-463l-36 -528q127 109 274 108q172 0 281.5 -121.5t109.5 -326.5q0 -219 -119.5 -353.5t-308.5 -134.5 q-174 0 -277.5 118t-103.5 327z" />
<glyph unicode="6" horiz-adv-x="995" d="M92 702q0 365 112.5 554.5t325.5 189.5q168 0 267.5 -107.5t99.5 -294.5h-100q0 145 -73 224.5t-189 79.5q-160 0 -249 -162t-89 -465v-10q164 182 346 182q168 0 270 -123t102 -332q0 -201 -111.5 -334t-273.5 -133q-438 0 -438 731zM203 578q0 -240 91 -375t236 -135 q119 0 199 105.5t80 281.5q0 152 -73.5 241.5t-196.5 89.5q-164 1 -336 -208z" />
<glyph unicode="7" horiz-adv-x="995" d="M104 1075v346h811v-94q-403 -649 -403 -1159v-74h195v-94h-517v94h199q0 305 107 613q98 283 309 620h-606v-252h-95z" />
<glyph unicode="8" horiz-adv-x="995" d="M82 381q0 266 246 362q-102 47 -159.5 134.5t-57.5 197.5q0 154 110.5 262.5t274.5 108.5q162 0 273.5 -107.5t111.5 -263.5q0 -109 -57.5 -198t-159.5 -134q117 -43 182 -139t65 -223q0 -172 -120.5 -291t-294.5 -119q-170 0 -292 122t-122 288zM188 379 q0 -131 90.5 -221t219.5 -90q125 0 217 90t92 221t-90 223t-219 92q-131 0 -220.5 -91t-89.5 -224zM217 1071q0 -117 82 -201t199 -84q115 0 197.5 83t82.5 202q0 117 -81 200t-199 83q-117 0 -199 -82t-82 -201z" />
<glyph unicode="9" horiz-adv-x="995" d="M78 979q0 203 109.5 335t273.5 132q438 0 438 -731q0 -365 -112.5 -554.5t-325.5 -189.5q-166 0 -265.5 107.5t-99.5 294.5h101q0 -143 71.5 -223t188.5 -80q160 0 249 161.5t89 464.5v11q-84 -94 -166 -138.5t-178 -44.5q-168 0 -270.5 123t-102.5 332zM182 963 q0 -152 74 -242t197 -90q166 0 338 209q0 240 -91.5 375t-236.5 135q-121 0 -201 -104.5t-80 -282.5z" />
<glyph unicode=":" horiz-adv-x="544" d="M215 0v205h117v-205h-117zM215 797v202h117v-202h-117z" />
<glyph unicode=";" horiz-adv-x="544" d="M184 -182q47 20 47 71v111h-32v205h116v-285q0 -195 -116 -194h-15v92zM199 797v202h116v-202h-116z" />
<glyph unicode="&#x3c;" d="M264 580v61l1178 483v-90l-1045 -424l1045 -424v-88z" />
<glyph unicode="=" d="M254 389v80h1198v-80h-1198zM254 752v79h1198v-79h-1198z" />
<glyph unicode="&#x3e;" d="M264 98v88l1045 424l-1045 424v90l1178 -483v-61z" />
<glyph unicode="?" horiz-adv-x="919" d="M53 1042q0 186 100.5 295t268.5 109q160 0 264.5 -106.5t104.5 -268.5q0 -168 -90.5 -271.5t-254.5 -125.5l-16 -271h-76l-22 367h30q154 0 241 79t87 216q0 129 -74.5 210t-193.5 81q-123 0 -195.5 -83t-72.5 -231h-101zM336 0v205h117v-205h-117z" />
<glyph unicode="@" horiz-adv-x="2048" d="M121 522q0 328 198 572q291 356 795 356q164 0 306.5 -44t246.5 -124q260 -201 260 -504q0 -168 -63.5 -308t-180.5 -232q-139 -111 -305 -111q-193 0 -192 145l4 39q-102 -184 -291 -184q-313 0 -313 326q0 231 134 387.5t327 156.5q195 0 256 -170l61 129h80l-137 -553 q-20 -76 -21 -108q0 -92 117 -92q98 0 199.5 73.5t164 206.5t62.5 285q0 272 -197.5 439t-527.5 167q-336 0 -569 -192q-309 -256 -310 -672q0 -326 220.5 -521.5t592.5 -195.5q160 0 323 49t300 144l29 -45q-293 -219 -648 -220q-377 0 -620 185q-301 227 -301 616z M690 446q0 -115 57.5 -180t159.5 -65q111 0 196 72.5t116 193.5l63 254q-45 203 -233 203q-154 0 -256.5 -136.5t-102.5 -341.5z" />
<glyph unicode="A" horiz-adv-x="1232" d="M-63 0v104h176l387 1215h-168v102h577v-102h-168l389 -1215h164v-104h-458v104h178l-140 439h-516l-135 -439h154v-104h-440zM391 643h453l-219 694h-9z" />
<glyph unicode="B" horiz-adv-x="1193" d="M66 0v104h176v1223h-176v94h509q215 0 328 -92t113 -270q0 -213 -217 -303q141 -41 216 -132.5t75 -222.5q0 -401 -490 -401h-534zM365 104h237q178 0 273.5 77t95.5 218q0 143 -103.5 221t-304.5 78h-198v-594zM365 791h176q356 0 356 272q0 125 -86 194.5t-252 69.5 h-194v-536z" />
<glyph unicode="C" horiz-adv-x="1507" d="M76 709q0 324 196.5 530.5t497.5 206.5q322 0 496 -256v231h106v-454h-106q-113 377 -496 376q-250 0 -418 -178q-158 -170 -157 -448q0 -283 159 -455q82 -88 190.5 -138t225.5 -50q389 0 559 442l98 -49q-82 -244 -248.5 -370t-408.5 -126q-309 0 -498 205 q-196 214 -196 533z" />
<glyph unicode="D" horiz-adv-x="1449" d="M66 0v104h176v1223h-176v94h620q330 0 510 -186t180 -524t-180 -524.5t-510 -186.5h-620zM365 104h282q301 0 457 156t156 457q0 293 -151 451.5t-427 158.5h-317v-1223z" />
<glyph unicode="E" horiz-adv-x="1243" d="M66 0v104h176v1223h-176v94h1110v-393h-95v299h-716v-530h561v-95h-561v-598h716v332h95v-436h-1110z" />
<glyph unicode="F" horiz-adv-x="1161" d="M66 0v104h176v1223h-176v94h1038v-393h-94v299h-645v-530h444v-95h-444v-598h194v-104h-493z" />
<glyph unicode="G" horiz-adv-x="1540" d="M76 709q0 326 199.5 531.5t510.5 205.5q168 0 295 -62.5t224 -189.5v227h102v-454h-100q-74 190 -207 283t-330 93q-119 0 -227.5 -46t-190.5 -132q-158 -166 -157 -448q0 -291 165.5 -467t436.5 -176q240 0 389 141t149 373h-329v94h460q0 -334 -186 -522.5t-510 -188.5 q-307 0 -496 205q-198 216 -198 533z" />
<glyph unicode="H" horiz-adv-x="1435" d="M66 0v104h176v1223h-176v94h460v-94h-161v-514h706v514h-162v94h461v-94h-176v-1223h176v-104h-461v104h162v609h-706v-609h161v-104h-460z" />
<glyph unicode="I" horiz-adv-x="606" d="M66 0v104h176v1223h-176v94h475v-94h-176v-1223h176v-104h-475z" />
<glyph unicode="J" horiz-adv-x="598" d="M-96 -213q49 -14 110 -14q123 0 173.5 76.5t50.5 248.5v1229h-177v94h476v-94h-177v-1229q0 -430 -331 -430q-37 0 -64.5 2t-58.5 11z" />
<glyph unicode="K" horiz-adv-x="1157" d="M66 0v104h176v1223h-176v94h475v-94h-176v-1223h176v-104h-475zM365 760l571 567h-135v94h418v-94h-138l-559 -555l572 -668h125v-104h-426v104h135z" />
<glyph unicode="L" horiz-adv-x="1128" d="M66 0v104h176v1223h-176v94h479v-94h-180v-1223h579v564h94v-668h-972z" />
<glyph unicode="M" horiz-adv-x="1835" d="M66 0v104h176v1223h-176v94h354l487 -1235l514 1235h346v-94h-174v-1223h174v-104h-473v104h176v1186l-540 -1290h-66l-508 1294v-1190h174v-104h-464z" />
<glyph unicode="N" horiz-adv-x="1492" d="M66 0v104h176v1223h-176v94h319l766 -1245v1151h-178v94h465v-94h-176v-1327h-132l-776 1264v-1160h176v-104h-464z" />
<glyph unicode="O" horiz-adv-x="1540" d="M76 709q0 322 197.5 529.5t496.5 207.5q311 0 502.5 -208t191.5 -529q0 -319 -192.5 -528.5t-501.5 -209.5t-498 205q-196 214 -196 533zM195 717q0 -283 157 -453q84 -90 192.5 -140t225.5 -50q121 0 226.5 48t191.5 142q160 172 160 453q0 276 -160 451t-418 175 q-252 0 -418 -178q-157 -169 -157 -448z" />
<glyph unicode="P" horiz-adv-x="1193" d="M66 0v104h176v1223h-176v94h520q281 0 412.5 -99t131.5 -318q0 -221 -132 -323.5t-412 -102.5h-221v-474h176v-104h-475zM365 676h213q229 0 327 69q106 76 106.5 256.5t-102 253t-331.5 72.5h-213v-651z" />
<glyph unicode="Q" horiz-adv-x="1540" d="M76 709q0 322 197.5 529.5t496.5 207.5q311 0 502.5 -206t191.5 -531q0 -322 -179 -530t-480 -208q80 -14 229 -75q131 -53 195 -54q35 0 74 8l-37 -108q-23 -6 -43.5 -8t-40.5 -2q-53 0 -117 22q-20 6 -127 53q-82 37 -104 46q-88 35 -138 34q-90 0 -164 -63l-63 65 q90 80 182 93q-268 47 -421.5 240.5t-153.5 486.5zM195 717q0 -283 157 -453q172 -184 418 -184t418 184q160 172 160 453q0 276 -162 454.5t-416 178.5q-246 0 -418 -185q-157 -169 -157 -448z" />
<glyph unicode="R" horiz-adv-x="1214" d="M66 0v104h176v1223h-176v94h581q215 0 327.5 -92t112.5 -270q0 -256 -301 -332l279 -623h143v-104h-223l-321 707h-299v-603h176v-104h-475zM365 803h247q356 0 357 256q0 268 -340 268h-264v-524z" />
<glyph unicode="S" horiz-adv-x="1126" d="M121 487h92v-194q164 -225 381 -225q141 0 225 77.5t84 206.5q0 113 -60.5 184.5t-195.5 120.5l-219 80q-154 57 -227.5 137t-73.5 203q0 164 110.5 266.5t297.5 102.5q184 0 325 -152v127h92v-397h-92v141q-152 188 -340 189q-121 0 -198.5 -74t-77.5 -188 q0 -90 51 -147.5t164 -98.5l229 -84q168 -61 247 -154.5t79 -240.5q0 -172 -116 -284t-302 -112q-215 0 -383 181v-152h-92v487z" />
<glyph unicode="T" horiz-adv-x="1251" d="M84 887v534h1081v-534h-94v440h-383v-1233h215v-94h-551v94h213v1233h-387v-440h-94z" />
<glyph unicode="U" horiz-adv-x="1406" d="M57 1327v94h473v-94h-174v-860q0 -385 349 -385q360 0 360 385v860h-184v94h469v-94h-176v-805q0 -293 -103 -418q-109 -133 -367 -133t-364.5 129t-106.5 422v805h-176z" />
<glyph unicode="V" horiz-adv-x="1232" d="M-70 1327v94h441v-94h-148l402 -1153l395 1153h-156v94h432v-94h-161l-469 -1327h-107l-465 1327h-164z" />
<glyph unicode="W" horiz-adv-x="1804" d="M-41 1327v94h414v-94h-140l289 -1186l291 1186h-147v94h481v-94h-141l288 -1186l291 1186h-153v94h403v-94h-139l-338 -1327h-135l-320 1282l-317 -1282h-137l-336 1327h-154z" />
<glyph unicode="X" horiz-adv-x="1175" d="M-43 0v104h174l389 617l-377 606h-155v94h461v-94h-162l307 -491l313 491h-162v94h445v-94h-166l-371 -592l398 -631h163v-104h-469v104h160l-323 519l-332 -519h166v-104h-459z" />
<glyph unicode="Y" horiz-adv-x="1095" d="M-104 1327v94h491v-94h-174l346 -569l354 569h-196v94h473v-94h-158l-418 -672v-551h191v-104h-502v104h189v543l-422 680h-174z" />
<glyph unicode="Z" horiz-adv-x="1138" d="M61 0v104l820 1223h-670v-309h-96v403h915v-94l-819 -1223h735v342h94v-446h-979z" />
<glyph unicode="[" horiz-adv-x="702" d="M252 -324v1745h469v-94h-367v-1554h367v-97h-469z" />
<glyph unicode="\" horiz-adv-x="577" d="M-25 1446h95l563 -1636h-94z" />
<glyph unicode="]" horiz-adv-x="702" d="M-18 -229h366v1556h-366v94h469v-1745h-469v95z" />
<glyph unicode="^" horiz-adv-x="2048" d="M424 901l539 557h118l541 -557h-125l-473 469l-475 -469h-125z" />
<glyph unicode="_" horiz-adv-x="1024" d="M0 -403h1024v-80h-1024v80z" />
<glyph unicode="`" horiz-adv-x="1024" d="M276 1485h152l209 -350h-92z" />
<glyph unicode="a" horiz-adv-x="1017" d="M61 303q0 135 97.5 222t253.5 87q150 0 325 -86v121q0 152 -60.5 220.5t-201.5 68.5q-205 0 -299 -170l-96 29q104 229 395 229q205 0 290 -93t85 -310v-527h158v-94h-271v141q-82 -82 -166 -119.5t-188 -37.5q-141 0 -231.5 88t-90.5 231zM176 297q0 -102 60.5 -162.5 t166.5 -60.5q158 0 334 157v201q-182 96 -311 96q-115 0 -182.5 -61t-67.5 -170z" />
<glyph unicode="b" horiz-adv-x="1157" d="M20 0v94h156v1233h-156v94h254v-630q127 211 361 210q197 0 320.5 -140t123.5 -375.5t-122.5 -375t-321.5 -139.5q-205 0 -350 187v-158h-265zM279 485q0 -195 96 -307t252 -112q158 0 249 109.5t91 309.5q0 199 -92.5 309.5t-251.5 110.5q-162 0 -253 -109.5t-91 -310.5 z" />
<glyph unicode="c" horiz-adv-x="1042" d="M70 498q0 240 127 383t329 143q215 0 351 -180v155h96v-356h-96q-98 281 -336 281q-166 0 -261.5 -112t-95.5 -312q0 -205 97.5 -316.5t273.5 -111.5q250 0 350 231l92 -39q-59 -141 -173.5 -217t-274.5 -76q-221 0 -350 139.5t-129 387.5z" />
<glyph unicode="d" horiz-adv-x="1157" d="M76 485.5q0 235.5 124 375.5t322 140q233 0 361 -210v536h-156v94h254v-1327h154v-94h-263v158q-145 -186 -350 -187q-201 0 -323.5 139.5t-122.5 375zM188 485q0 -197 93.5 -308t253.5 -111q158 0 251 110.5t93 309t-92.5 309t-252 110.5t-253 -110.5t-93.5 -309.5z" />
<glyph unicode="e" horiz-adv-x="1052" d="M70 498q0 240 127 383t329 143q205 0 331 -139.5t126 -374.5v-31h-799q0 -195 98.5 -299t276.5 -104q248 0 346 227l92 -39q-59 -141 -173.5 -217t-274.5 -76q-221 0 -350 139.5t-129 387.5zM188 573h676q0 160 -95 255.5t-242.5 95.5t-243 -95.5t-95.5 -255.5z" />
<glyph unicode="f" horiz-adv-x="530" d="M49 0v94h156v811h-156v94h156v107q0 178 52 260t179 82q184 0 213 -219l-92 -19q-25 150 -119 150q-74 0 -96.5 -56.5t-22.5 -201.5v-103h170v-94h-170v-811h170v-94h-440z" />
<glyph unicode="g" horiz-adv-x="1157" d="M76 498q0 231 121.5 367t324.5 136q233 0 361 -206v206h252v-94h-154v-733q0 -147 -14 -219q-20 -98 -80 -170q-121 -141 -359 -141q-176 0 -344 94l47 100q139 -102 301 -102q340 0 340 373v65q-143 -180 -350 -180q-199 0 -322.5 137.5t-123.5 366.5zM188 495.5 q0 -192.5 93.5 -302t253.5 -109.5q162 0 253 107.5t91 304.5q0 195 -92.5 303t-251.5 108q-158 0 -252.5 -109.5t-94.5 -302z" />
<glyph unicode="h" horiz-adv-x="1062" d="M33 0v94h147v1233h-147v94h262v-563q197 143 346 143q147 0 203 -86q49 -78 49 -272v-549h137v-94h-393v94h143v539q0 156 -24 207q-31 66 -129 65q-147 0 -332 -155v-656h147v-94h-409z" />
<glyph unicode="i" horiz-adv-x="487" d="M41 0v94h154v811h-154v94h264v-905h146v-94h-410zM158 1370q0 31 20.5 53.5t52.5 22.5q31 0 53.5 -22.5t22.5 -53.5q0 -33 -21.5 -54.5t-54 -21.5t-53 20.5t-20.5 55.5z" />
<glyph unicode="j" horiz-adv-x="473" d="M-53 -254q39 -8 86 -8q94 0 128 44t34 150v973h-154v94h264v-1069q0 -150 -62.5 -218t-209.5 -68q-47 0 -86 8v94zM158 1370q0 31 20.5 53.5t52.5 22.5q31 0 53.5 -22.5t22.5 -53.5q0 -33 -21.5 -54.5t-54 -21.5t-53 20.5t-20.5 55.5z" />
<glyph unicode="k" horiz-adv-x="1013" d="M33 0v94h147v1233h-147v94h262v-1327h147v-94h-409zM295 506l457 399h-125v94h366v-94h-108l-451 -389l443 -422h137v-94h-195z" />
<glyph unicode="l" horiz-adv-x="497" d="M33 0v94h147v1233h-147v94h262v-1327h147v-94h-409z" />
<glyph unicode="m" horiz-adv-x="1669" d="M41 0v94h149v811h-149v96h254v-149q203 150 356 149q88 0 149.5 -38.5t84.5 -110.5q119 78 192 111q90 39 172 38q147 0 203 -86q49 -78 49 -272v-549h137v-94h-393v94h141v539q0 158 -22 207q-31 66 -129 65q-147 0 -332 -155v-656h137v-94h-393v94h141v539 q0 158 -22 207q-31 66 -129 65q-147 0 -332 -155v-656h146v-94h-410z" />
<glyph unicode="n" horiz-adv-x="1071" d="M41 0v94h149v811h-149v96h254v-149q203 150 356 149q147 0 203 -86q49 -78 49 -272v-549h137v-94h-393v94h141v539q0 158 -22 207q-31 66 -129 65q-147 0 -332 -155v-656h146v-94h-410z" />
<glyph unicode="o" horiz-adv-x="1052" d="M70 498q0 240 127 383t329 143q205 0 331 -142.5t126 -383.5q0 -240 -127 -383.5t-330 -143.5q-205 0 -330.5 142.5t-125.5 384.5zM184 499.5q0 -200.5 91.5 -312t250.5 -111.5q158 0 250 111.5t92 312t-91 312.5t-251 112q-158 0 -250 -112t-92 -312.5z" />
<glyph unicode="p" horiz-adv-x="1177" d="M43 -238h154v1143h-154v96h254v-210q127 211 358 210q199 0 323 -140t124 -376q0 -233 -124 -373.5t-323 -140.5q-205 0 -350 187v-396h148v-94h-410v94zM299 485q0 -195 96.5 -307t251.5 -112q158 0 250 110.5t92 308.5q0 197 -93 308.5t-253 111.5q-162 0 -253 -109.5 t-91 -310.5z" />
<glyph unicode="q" horiz-adv-x="1177" d="M76 485.5q0 235.5 124 375.5t322 140q233 0 361 -210v210h252v-96h-154v-1143h154v-94h-410v94h147v396q-145 -186 -350 -187q-201 0 -323.5 139.5t-122.5 375zM188 485q0 -197 93.5 -308t253.5 -111q158 0 251 110.5t93 309t-92.5 309t-252 110.5t-253 -110.5 t-93.5 -309.5z" />
<glyph unicode="r" horiz-adv-x="692" d="M41 94h154v811h-154v94h254v-249q66 139 154 203.5t213 64.5h30v-115h-24q-362 0 -363 -504v-305h232v-94h-496v94z" />
<glyph unicode="s" horiz-adv-x="929" d="M84 0v342h94v-129q131 -147 328 -147q104 0 165.5 49t61.5 135q0 78 -44 120t-150 72l-162 47q-139 39 -200.5 98.5t-61.5 162.5q0 121 83 197.5t220 76.5q172 0 297 -121v94h92v-325h-92v119q-127 145 -283 145q-96 0 -152.5 -48t-56.5 -132q0 -63 44 -100.5t141 -63.5 l184 -53q131 -39 191.5 -103.5t60.5 -169.5q0 -129 -95.5 -212t-244.5 -83q-174 0 -326 119v-90h-94z" />
<glyph unicode="t" horiz-adv-x="512" d="M20 905v94h146v238l115 82v-320h208v-94h-208v-680q0 -92 22.5 -128t85.5 -36q45 0 100 19v-88q-61 -20 -114 -21q-123 0 -166 55.5t-43 192.5v686h-146z" />
<glyph unicode="u" horiz-adv-x="1071" d="M29 907v94h252v-661q0 -158 22 -207q31 -66 129 -65q150 0 334 155v684h-148v94h256v-905h154v-96h-254v121q-98 -74 -187 -112t-167 -38q-147 0 -200.5 83t-53.5 276v577h-137z" />
<glyph unicode="v" horiz-adv-x="919" d="M-39 905v94h379v-94h-137l268 -758l258 758h-154v94h381v-94h-125l-313 -905h-106l-328 905h-123z" />
<glyph unicode="w" horiz-adv-x="1449" d="M-27 905v94h375v-94h-137l215 -786l215 786h-152v94h463v-94h-125l213 -786l213 786h-149v94h379v-94h-125l-264 -905h-125l-244 885l-246 -885h-123l-260 905h-123z" />
<glyph unicode="x" horiz-adv-x="915" d="M-43 0v94h149l291 402l-311 409h-109v94h390v-94h-142l238 -321l231 321h-151v94h391v-94h-125l-287 -399l309 -412h125v-94h-413v94h153l-241 322l-236 -322h148v-94h-410z" />
<glyph unicode="y" horiz-adv-x="915" d="M-45 905v94h410v-94h-152l268 -672l244 672h-162v94h395v-94h-127l-448 -1237h-299v94h225l111 310l-334 833h-131z" />
<glyph unicode="z" horiz-adv-x="872" d="M43 0v94l623 811h-486v-211h-94v305h715v-94l-623 -811h537v225h94v-319h-766z" />
<glyph unicode="{" horiz-adv-x="1024" d="M176 485v90l49 -2q139 0 196.5 66t57.5 221v240q0 217 60 293q68 84 266 84h43v-88h-37q-139 0 -184 -55.5t-45 -209.5v-241q0 -162 -35 -234q-41 -84 -160 -119q119 -35 160 -116q35 -70 35 -236v-241q0 -154 44 -208.5t183 -54.5h39v-88h-43q-199 0 -262.5 79 t-63.5 296v240q0 158 -56 222t-202 64z" />
<glyph unicode="|" horiz-adv-x="1024" d="M467 -483v2048h90v-2048h-90z" />
<glyph unicode="}" horiz-adv-x="1024" d="M176 1389v88h43q197 0 264 -84q61 -78 62 -293v-240q0 -158 56 -222.5t202 -64.5l45 2v-90l-45 2q-143 0 -200.5 -65.5t-57.5 -220.5v-240q0 -217 -60 -291q-68 -84 -266 -84h-43v88h39q141 0 184 53.5t43 209.5v241q0 164 38 241t159 111q-119 33 -158 112t-39 241v241 q0 156 -43 210.5t-186 54.5h-37z" />
<glyph unicode="~" d="M178 481v92q106 76 199.5 112t187.5 36q70 0 150 -23q33 -8 143.5 -48t136.5 -48q78 -23 148 -22q88 0 179 38.5t208 120.5v-92q-106 -76 -199.5 -111.5t-187.5 -35.5q-72 0 -152 22q-33 10 -137 47q-119 43 -143 49q-78 23 -146 23q-88 0 -179 -39t-208 -121z" />
<glyph unicode="&#xa1;" horiz-adv-x="544" d="M213 0v426l25 627h67l25 -627v-426h-117zM215 1219v202h117v-202h-117z" />
<glyph unicode="&#xa2;" horiz-adv-x="915" d="M-45 905v94h410v-94h-152l268 -672l244 672h-162v94h395v-94h-127l-448 -1237h-299v94h225l111 310l-334 833h-131zM209 1292q0 37 26.5 63.5t63.5 26.5t61.5 -26.5t24.5 -63.5q0 -39 -24.5 -63.5t-61.5 -24.5t-63.5 24.5t-26.5 63.5zM530 1292q0 37 27 63.5t64 26.5 q35 0 61.5 -26.5t26.5 -63.5q0 -39 -25 -63.5t-63 -24.5q-37 0 -64 24.5t-27 63.5z" />
<glyph unicode="&#xa3;" horiz-adv-x="995" d="M55 168q0 86 47.5 137t124.5 51q88 0 158 -75l2 57q0 158 -59 330h-267v90h234q-86 213 -86 338q0 158 94 254t252 96q160 0 247 -97.5t87 -277.5v-16h-107v16q0 131 -63.5 209t-168 78t-165.5 -63.5t-61 -178.5q0 -57 21.5 -145t66.5 -213h290v-90h-253q39 -150 38 -283 q0 -88 -20 -164q137 -143 238 -143q147 0 147 262v10h92v-8q0 -371 -244 -371q-141 0 -264 162q-70 -158 -198 -158q-84 0 -133.5 53.5t-49.5 139.5zM127 176q0 -47 28.5 -77.5t73.5 -30.5q84 0 136 125q-78 82 -136 81q-45 0 -73.5 -26.5t-28.5 -71.5z" />
<glyph unicode="&#xa4;" horiz-adv-x="1241" d="M94 418l207 205q-92 117 -92 262t92 262l-207 205l58 59l206 -207q119 94 263 94q145 0 264 -94l205 207l59 -59l-207 -205q92 -117 92 -262.5t-92 -261.5l207 -205l-59 -60l-205 207q-117 -92 -264 -92q-145 0 -263 92l-206 -207zM291 887q0 -135 96 -233.5t235.5 -98.5 t235.5 96.5t96 235.5q0 137 -96 233.5t-235.5 96.5t-235.5 -96.5t-96 -233.5z" />
<glyph unicode="&#xa5;" horiz-adv-x="1110" d="M-94 1327v94h479v-96h-180l354 -584l361 584h-201v96h463v-94h-158l-190 -309h253v-82h-305l-123 -199h428v-82h-481v-551h191v-104h-484v104h189v543l-2 8h-482v82h428l-122 199h-306v82h254l-192 309h-174z" />
<glyph unicode="&#xa6;" horiz-adv-x="1024" d="M467 -350v758h90v-758h-90zM467 674v758h90v-758h-90z" />
<glyph unicode="&#xa7;" horiz-adv-x="1034" d="M94 739q0 102 80 175t201 73q-59 74 -88 128t-29 110q0 197 254 196h242v-286h-95v200h-141q-154 0 -153 -106q0 -43 32 -92q20 -31 86 -103l355 -387q115 -125 114 -237q0 -106 -78.5 -179t-203.5 -73q70 -84 102.5 -143.5t32.5 -118.5q0 -199 -254 -199h-277v321h95 v-233h176q152 0 151 106q0 45 -32 95q-20 33 -84 102l-371 414q-115 126 -115 237zM190 745q0 -45 27 -90q18 -31 70 -88l202 -225q41 -45 68 -68q57 -49 119 -49q72 0 125 51.5t53 124.5q0 55 -41 113q-14 20 -57 68l-203 225q-41 47 -66 67q-57 49 -120 50 q-72 0 -124.5 -52.5t-52.5 -126.5z" />
<glyph unicode="&#xa8;" horiz-adv-x="1337" d="M66 0v104h176v1223h-176v94h1110v-393h-95v299h-716v-530h561v-95h-561v-598h716v332h95v-436h-1110zM451 1714q0 37 26.5 63.5t63.5 26.5t61.5 -26.5t24.5 -63.5q0 -39 -24.5 -63.5t-61.5 -24.5t-63.5 24.5t-26.5 63.5zM772 1714q0 37 26.5 63.5t63.5 26.5 q35 0 61.5 -26.5t26.5 -63.5q0 -39 -24.5 -63.5t-63.5 -24.5q-37 0 -63.5 24.5t-26.5 63.5z" />
<glyph unicode="&#xa9;" d="M123 721q0 299 217 520q207 211 512 211q147 0 281.5 -54.5t238.5 -160.5q211 -211 211 -516t-211 -512q-223 -219 -520 -219q-147 0 -276.5 54t-237.5 163q-215 215 -215 514zM195 721q0 -268 194.5 -463t462.5 -195t469 197q92 92 141 208t49 253q0 133 -48 252 t-142 213q-195 195 -469 194.5t-461 -190.5q-196 -201 -196 -469zM471 725q0 207 107.5 329t281.5 122q133 0 223.5 -72t102.5 -187h-105q-43 172 -227 173q-125 0 -195.5 -97.5t-70.5 -273.5q0 -172 71.5 -268.5t194.5 -96.5q90 0 155.5 51.5t84.5 141.5h102 q-10 -125 -107.5 -202t-240.5 -77q-170 0 -273.5 122t-103.5 335z" />
<glyph unicode="&#xaa;" horiz-adv-x="1507" d="M76 709q0 324 196.5 530.5t497.5 206.5q322 0 496 -256v231h106v-454h-106q-113 377 -496 376q-250 0 -418 -178q-133 -141 -153 -352h663v-100h-667q0 -279 159 -451q82 -88 190.5 -138t225.5 -50q389 0 559 442l98 -49q-82 -244 -248.5 -370t-408.5 -126 q-309 0 -498 205q-196 214 -196 533z" />
<glyph unicode="&#xab;" horiz-adv-x="825" d="M70 506l260 311h129l-258 -311l258 -313h-129zM365 506l260 311h127l-258 -311l258 -313h-127z" />
<glyph unicode="&#xac;" d="M254 776v80h1198v-502h-80v422h-1118z" />
<glyph unicode="&#xad;" horiz-adv-x="555" d="M94 457v104h367v-104h-367z" />
<glyph unicode="&#xae;" d="M123 721q0 299 217 520q207 211 512 211q147 0 281.5 -54.5t238.5 -160.5q211 -211 211 -516t-211 -512q-223 -219 -520 -219q-147 0 -276.5 54t-237.5 163q-215 215 -215 514zM195 721q0 -268 194.5 -463t462.5 -195t469 197q92 92 141 208t49 253q0 133 -48 252 t-142 213q-195 195 -469 194.5t-461 -190.5q-196 -201 -196 -469zM569 309v846h306q348 0 348 -233q0 -88 -54.5 -148.5t-148.5 -71.5l190 -393h-131l-182 377h-213v-377h-115zM684 764h168q139 0 192 31q61 37 62 131q0 152 -254 151h-168v-313z" />
<glyph unicode="&#xaf;" horiz-adv-x="606" d="M53 1714q0 37 26.5 63.5t63.5 26.5t61.5 -26.5t24.5 -63.5q0 -39 -24.5 -63.5t-61.5 -24.5t-63.5 24.5t-26.5 63.5zM66 0v104h176v1223h-176v94h475v-94h-176v-1223h176v-104h-475zM375 1714q0 37 26.5 63.5t63.5 26.5q35 0 61.5 -26.5t26.5 -63.5q0 -39 -24.5 -63.5 t-63.5 -24.5q-37 0 -63.5 24.5t-26.5 63.5z" />
<glyph unicode="&#xb0;" horiz-adv-x="673" d="M63 1176q0 115 80 194.5t195 79.5q113 0 192.5 -80t79.5 -194q0 -113 -79.5 -193t-194.5 -80q-117 0 -195 78t-78 195zM125 1175.5q0 -90.5 61.5 -151.5t151.5 -61t151.5 61t61.5 152q0 88 -62.5 150.5t-150.5 62.5q-90 0 -151.5 -61.5t-61.5 -152z" />
<glyph unicode="&#xb1;" d="M254 61v80h1198v-80h-1198zM254 727v80h559v354h80v-354h559v-80h-559v-352h-80v352h-559z" />
<glyph unicode="&#xb2;" horiz-adv-x="606" d="M66 0v104h176v1223h-176v94h475v-94h-176v-1223h176v-104h-475z" />
<glyph unicode="&#xb3;" horiz-adv-x="487" d="M41 0v94h154v811h-154v94h264v-905h146v-94h-410zM158 1370q0 31 20.5 53.5t52.5 22.5q31 0 53.5 -22.5t22.5 -53.5q0 -33 -21.5 -54.5t-54 -21.5t-53 20.5t-20.5 55.5z" />
<glyph unicode="&#xb4;" horiz-adv-x="1024" d="M387 1135l209 350h152l-269 -350h-92z" />
<glyph unicode="&#xb5;" horiz-adv-x="1093" d="M-111 -424l316 1487h121l-123 -590q-8 -41 -12.5 -71.5t-4.5 -69.5q0 -258 234 -258q127 0 219 105.5t137 316.5l125 567h121l-166 -787q-10 -43 -17.5 -78.5t-7.5 -56.5q0 -63 68 -63l39 2l-18 -96l-42 -9q-22 -4 -34 -4q-133 0 -133 127l4 45q-90 -172 -312 -172 q-98 0 -169.5 45t-104.5 127l-119 -567h-121z" />
<glyph unicode="&#xb6;" horiz-adv-x="1024" d="M90 1130.5q0 153.5 108.5 251t286.5 97.5h447v-64h-129v-1415h-70v1415h-192v-1415h-70v782q-174 0 -277.5 97.5t-103.5 251z" />
<glyph unicode="&#xb7;" horiz-adv-x="497" d="M164 709q0 35 24.5 59.5t59.5 24.5t60.5 -24t25.5 -60.5t-24.5 -61t-61.5 -24.5q-35 0 -59.5 24.5t-24.5 61.5z" />
<glyph unicode="&#x2219;" horiz-adv-x="497" d="M164 709q0 35 24.5 59.5t59.5 24.5t60.5 -24t25.5 -60.5t-24.5 -61t-61.5 -24.5q-35 0 -59.5 24.5t-24.5 61.5z" />
<glyph unicode="&#xb8;" horiz-adv-x="1052" d="M70 498q0 240 127 383t329 143q205 0 331 -139.5t126 -374.5v-31h-799q0 -195 98.5 -299t276.5 -104q248 0 346 227l92 -39q-59 -141 -173.5 -217t-274.5 -76q-221 0 -350 139.5t-129 387.5zM188 573h676q0 160 -95 255.5t-242.5 95.5t-243 -95.5t-95.5 -255.5zM289 1292 q0 37 26.5 63.5t63.5 26.5t61.5 -26.5t24.5 -63.5q0 -39 -24.5 -63.5t-61.5 -24.5t-63.5 24.5t-26.5 63.5zM610 1292q0 37 27 63.5t63 26.5q35 0 61.5 -26.5t26.5 -63.5q0 -39 -24.5 -63.5t-63.5 -24.5q-37 0 -63.5 24.5t-26.5 63.5z" />
<glyph unicode="&#xb9;" horiz-adv-x="2183" d="M66 0v104h176v1223h-176v94h319l766 -1245v1151h-178v94h465v-94h-176v-1327h-132l-776 1264v-1160h176v-104h-464zM1395 104v80h684v-80h-684zM1395 606q0 168 94 268.5t247.5 100.5t248 -100.5t94.5 -268.5q0 -166 -95.5 -267t-246.5 -101q-154 0 -248 100t-94 268z M1481 608q0 -141 67.5 -219t188.5 -78q119 0 187.5 77t68.5 220q0 139 -69 218t-187.5 79t-187 -79t-68.5 -218z" />
<glyph unicode="&#xba;" horiz-adv-x="1042" d="M70 498q0 240 127 383t329 143q215 0 351 -180v155h96v-356h-96q-98 281 -336 281q-147 0 -239.5 -88t-113.5 -252h430v-95h-434q0 -199 99.5 -308t271.5 -109q250 0 350 231l92 -39q-59 -141 -173.5 -217t-274.5 -76q-221 0 -350 139.5t-129 387.5z" />
<glyph unicode="&#xbb;" horiz-adv-x="825" d="M72 193l258 313l-258 311h127l262 -311l-262 -313h-127zM365 193l258 313l-258 311h129l260 -311l-260 -313h-129z" />
<glyph unicode="&#xbc;" d="M254 571v80h1198v-80h-1198zM756 266q0 39 28.5 70t69.5 31q43 0 70.5 -30t27.5 -71t-28.5 -69.5t-69.5 -28.5q-43 0 -70.5 27.5t-27.5 70.5zM756 956q0 41 28.5 70t69.5 29t69.5 -29t28.5 -70q0 -39 -28.5 -69.5t-69.5 -30.5t-69.5 28.5t-28.5 71.5z" />
<glyph unicode="&#xbd;" d="M309 123l488 487l-488 488l58 57l487 -487l487 487l58 -57l-488 -488l488 -487l-58 -57l-487 487l-487 -487z" />
<glyph unicode="&#xbe;" horiz-adv-x="1595" d="M41 877h72q0 -100 54 -156.5t150 -56.5q84 0 133.5 45t49.5 122q0 184 -236 185l-31 -2v55h13q229 0 229 162q0 70 -45 110.5t-121 40.5q-82 0 -129 -47t-47 -133h-70q0 106 68 168t178 62q102 0 167 -54.5t65 -142.5q0 -141 -156 -188q180 -41 180 -209 q0 -102 -70.5 -167t-181.5 -65q-125 0 -198.5 72t-73.5 199zM281 -29l923 1475h101l-922 -1475h-102zM1001 307l347 502h71v-516h123v-55h-123v-185h70v-53h-217v53h88v185h-326q-8 30 -33 69zM1061 293h299v442z" />
<glyph unicode="&#xbf;" horiz-adv-x="487" d="M-20 1292q0 37 26.5 63.5t63 26.5t61.5 -26.5t25 -63.5q0 -39 -25 -63.5t-61.5 -24.5t-63 24.5t-26.5 63.5zM41 0v94h154v811h-154v94h264v-905h146v-94h-410zM301 1292q0 37 26.5 63.5t63.5 26.5q35 0 61.5 -26.5t26.5 -63.5q0 -39 -24.5 -63.5t-63.5 -24.5 q-37 0 -63.5 24.5t-26.5 63.5z" />
<glyph unicode="&#xc0;" horiz-adv-x="1232" d="M-63 0v104h176l387 1215h-168v102h577v-102h-168l389 -1215h164v-104h-458v104h178l-140 439h-516l-135 -439h154v-104h-440zM391 643h453l-219 694h-9z" />
<glyph unicode="&#x410;" horiz-adv-x="1232" d="M-63 0v104h176l387 1215h-168v102h577v-102h-168l389 -1215h164v-104h-458v104h178l-140 439h-516l-135 -439h154v-104h-440zM391 643h453l-219 694h-9z" />
<glyph unicode="&#xc1;" horiz-adv-x="1161" d="M66 0l2 104h174v1223h-176v94h1001v-393h-94v299h-608v-516h247q260 0 378 -97.5t118 -299.5q0 -211 -128 -312.5t-359 -101.5h-555zM365 713v-609h235q195 0 287 68q104 76 104 248q0 154 -100 223.5t-299 69.5h-227z" />
<glyph unicode="&#x411;" horiz-adv-x="1161" d="M66 0l2 104h174v1223h-176v94h1001v-393h-94v299h-608v-516h247q260 0 378 -97.5t118 -299.5q0 -211 -128 -312.5t-359 -101.5h-555zM365 713v-609h235q195 0 287 68q104 76 104 248q0 154 -100 223.5t-299 69.5h-227z" />
<glyph unicode="&#xc2;" horiz-adv-x="1193" d="M66 0v104h176v1223h-176v94h509q215 0 328 -92t113 -270q0 -213 -217 -303q141 -41 216 -132.5t75 -222.5q0 -401 -490 -401h-534zM365 104h237q178 0 273.5 77t95.5 218q0 143 -103.5 221t-304.5 78h-198v-594zM365 791h176q356 0 356 272q0 125 -86 194.5t-252 69.5 h-194v-536z" />
<glyph unicode="&#x412;" horiz-adv-x="1193" d="M66 0v104h176v1223h-176v94h509q215 0 328 -92t113 -270q0 -213 -217 -303q141 -41 216 -132.5t75 -222.5q0 -401 -490 -401h-534zM365 104h237q178 0 273.5 77t95.5 218q0 143 -103.5 221t-304.5 78h-198v-594zM365 791h176q356 0 356 272q0 125 -86 194.5t-252 69.5 h-194v-536z" />
<glyph unicode="&#xc3;" horiz-adv-x="1128" d="M66 0v104h176v1223h-174l-2 94h972v-393h-94v299h-579v-1223h180v-104h-479z" />
<glyph unicode="&#x413;" horiz-adv-x="1128" d="M66 0v104h176v1223h-174l-2 94h972v-393h-94v299h-579v-1223h180v-104h-479z" />
<glyph unicode="&#xc4;" horiz-adv-x="1427" d="M55 104h148q117 264 151 410q43 182 43 477v336h-176v94h1141v-94h-176v-1223h176v-436h-115v332h-1077v-332h-115v436zM328 104h735v1223h-551v-330q0 -279 -40 -470.5t-144 -422.5z" />
<glyph unicode="&#x414;" horiz-adv-x="1427" d="M55 104h148q117 264 151 410q43 182 43 477v336h-176v94h1141v-94h-176v-1223h176v-436h-115v332h-1077v-332h-115v436zM328 104h735v1223h-551v-330q0 -279 -40 -470.5t-144 -422.5z" />
<glyph unicode="&#xc5;" horiz-adv-x="1243" d="M66 0v104h176v1223h-176v94h1110v-393h-95v299h-716v-530h561v-95h-561v-598h716v332h95v-436h-1110z" />
<glyph unicode="&#x415;" horiz-adv-x="1243" d="M66 0v104h176v1223h-176v94h1110v-393h-95v299h-716v-530h561v-95h-561v-598h716v332h95v-436h-1110z" />
<glyph unicode="&#xc6;" horiz-adv-x="1722" d="M-47 0h426v104h-135l563 656l-571 567h135v94h-418v-94h137l559 -555l-571 -668h-125v-104zM631 0v104h176v1223h-176v94h475v-94h-176v-1223h176v-104h-475zM930 760l571 567h-135v94h418v-94h-137l-560 -555l572 -668h125v-104h-426v104h135z" />
<glyph unicode="&#x416;" horiz-adv-x="1722" d="M-47 0h426v104h-135l563 656l-571 567h135v94h-418v-94h137l559 -555l-571 -668h-125v-104zM631 0v104h176v1223h-176v94h475v-94h-176v-1223h176v-104h-475zM930 760l571 567h-135v94h418v-94h-137l-560 -555l572 -668h125v-104h-426v104h135z" />
<glyph unicode="&#xc7;" horiz-adv-x="1089" d="M61 412l101 41q41 -168 131 -267q104 -113 256 -112q180 0 267 85t87 228q0 152 -93 232.5t-241 80.5l-141 -2v101h113q123 0 200 73q86 82 86 215q0 119 -78.5 194t-199.5 75q-129 0 -221 -100.5t-92 -256.5h-5h-106v422h111v-151q55 78 131 127q90 57 190 57 q172 0 278.5 -100.5t106.5 -257.5q0 -248 -225 -336q145 -35 223 -126t78 -239q0 -195 -109 -303q-121 -121 -364 -121q-195 0 -330 135q-123 126 -154 306z" />
<glyph unicode="&#x417;" horiz-adv-x="1089" d="M61 412l101 41q41 -168 131 -267q104 -113 256 -112q180 0 267 85t87 228q0 152 -93 232.5t-241 80.5l-141 -2v101h113q123 0 200 73q86 82 86 215q0 119 -78.5 194t-199.5 75q-129 0 -221 -100.5t-92 -256.5h-5h-106v422h111v-151q55 78 131 127q90 57 190 57 q172 0 278.5 -100.5t106.5 -257.5q0 -248 -225 -336q145 -35 223 -126t78 -239q0 -195 -109 -303q-121 -121 -364 -121q-195 0 -330 135q-123 126 -154 306z" />
<glyph unicode="&#xc8;" horiz-adv-x="1435" d="M66 0v104h176v1223h-176v94h460v-94h-161v-1167l667 1261h338v-94h-176v-1223h176v-104h-461v104h162v1170l-680 -1274h-325z" />
<glyph unicode="&#x418;" horiz-adv-x="1435" d="M66 0v104h176v1223h-176v94h460v-94h-161v-1167l667 1261h338v-94h-176v-1223h176v-104h-461v104h162v1170l-680 -1274h-325z" />
<glyph unicode="&#xc9;" horiz-adv-x="1435" d="M66 0v104h176v1223h-176v94h460v-94h-161v-1167l667 1261h338v-94h-176v-1223h176v-104h-461v104h162v1170l-680 -1274h-325zM459 1804h80q0 -145 194 -145q193 0 193 145h82q0 -262 -275 -262q-133 0 -203.5 64.5t-70.5 197.5z" />
<glyph unicode="&#x419;" horiz-adv-x="1435" d="M66 0v104h176v1223h-176v94h460v-94h-161v-1167l667 1261h338v-94h-176v-1223h176v-104h-461v104h162v1170l-680 -1274h-325zM459 1804h80q0 -145 194 -145q193 0 193 145h82q0 -262 -275 -262q-133 0 -203.5 64.5t-70.5 197.5z" />
<glyph unicode="&#xca;" horiz-adv-x="1157" d="M66 0v104h176v1223h-176v94h475v-94h-176v-1223h176v-104h-475zM365 760l571 567h-135v94h418v-94h-138l-559 -555l572 -668h125v-104h-426v104h135z" />
<glyph unicode="&#x41a;" horiz-adv-x="1157" d="M66 0v104h176v1223h-176v94h475v-94h-176v-1223h176v-104h-475zM365 760l571 567h-135v94h418v-94h-138l-559 -555l572 -668h125v-104h-426v104h135z" />
<glyph unicode="&#xcb;" horiz-adv-x="1433" d="M-59 12l49 99q63 -35 112 -35q141 0 211 187.5t70 510.5v553h-176v94h1161v-94h-176v-1223h176v-104h-461v104h162v1223h-571v-545q0 -393 -84 -587q-96 -223 -308 -224q-95 0 -165 41z" />
<glyph unicode="&#x41b;" horiz-adv-x="1433" d="M-59 12l49 99q63 -35 112 -35q141 0 211 187.5t70 510.5v553h-176v94h1161v-94h-176v-1223h176v-104h-461v104h162v1223h-571v-545q0 -393 -84 -587q-96 -223 -308 -224q-95 0 -165 41z" />
<glyph unicode="&#xcc;" horiz-adv-x="1835" d="M66 0v104h176v1223h-176v94h354l487 -1235l514 1235h346v-94h-174v-1223h174v-104h-473v104h176v1186l-540 -1290h-66l-508 1294v-1190h174v-104h-464z" />
<glyph unicode="&#x41c;" horiz-adv-x="1835" d="M66 0v104h176v1223h-176v94h354l487 -1235l514 1235h346v-94h-174v-1223h174v-104h-473v104h176v1186l-540 -1290h-66l-508 1294v-1190h174v-104h-464z" />
<glyph unicode="&#xcd;" horiz-adv-x="1435" d="M66 0v104h176v1223h-176v94h460v-94h-161v-514h706v514h-162v94h461v-94h-176v-1223h176v-104h-461v104h162v609h-706v-609h161v-104h-460z" />
<glyph unicode="&#x41d;" horiz-adv-x="1435" d="M66 0v104h176v1223h-176v94h460v-94h-161v-514h706v514h-162v94h461v-94h-176v-1223h176v-104h-461v104h162v609h-706v-609h161v-104h-460z" />
<glyph unicode="&#xce;" horiz-adv-x="1540" d="M76 709q0 322 197.5 529.5t496.5 207.5q311 0 502.5 -208t191.5 -529q0 -319 -192.5 -528.5t-501.5 -209.5t-498 205q-196 214 -196 533zM195 717q0 -283 157 -453q84 -90 192.5 -140t225.5 -50q121 0 226.5 48t191.5 142q160 172 160 453q0 276 -160 451t-418 175 q-252 0 -418 -178q-157 -169 -157 -448z" />
<glyph unicode="&#x41e;" horiz-adv-x="1540" d="M76 709q0 322 197.5 529.5t496.5 207.5q311 0 502.5 -208t191.5 -529q0 -319 -192.5 -528.5t-501.5 -209.5t-498 205q-196 214 -196 533zM195 717q0 -283 157 -453q84 -90 192.5 -140t225.5 -50q121 0 226.5 48t191.5 142q160 172 160 453q0 276 -160 451t-418 175 q-252 0 -418 -178q-157 -169 -157 -448z" />
<glyph unicode="&#xcf;" horiz-adv-x="1435" d="M66 0v104h176v1223h-176v94h1304v-94h-176v-1223h176v-104h-461v104h162v1223h-706v-1223h161v-104h-460z" />
<glyph unicode="&#x41f;" horiz-adv-x="1435" d="M66 0v104h176v1223h-176v94h1304v-94h-176v-1223h176v-104h-461v104h162v1223h-706v-1223h161v-104h-460z" />
<glyph unicode="&#xd0;" horiz-adv-x="1193" d="M66 0v104h176v1223h-176v94h520q281 0 412.5 -99t131.5 -318q0 -221 -132 -323.5t-412 -102.5h-221v-474h176v-104h-475zM365 676h213q229 0 327 69q106 76 106.5 256.5t-102 253t-331.5 72.5h-213v-651z" />
<glyph unicode="&#x420;" horiz-adv-x="1193" d="M66 0v104h176v1223h-176v94h520q281 0 412.5 -99t131.5 -318q0 -221 -132 -323.5t-412 -102.5h-221v-474h176v-104h-475zM365 676h213q229 0 327 69q106 76 106.5 256.5t-102 253t-331.5 72.5h-213v-651z" />
<glyph unicode="&#xd1;" horiz-adv-x="1507" d="M76 709q0 324 196.5 530.5t497.5 206.5q322 0 496 -256v231h106v-454h-106q-113 377 -496 376q-250 0 -418 -178q-158 -170 -157 -448q0 -283 159 -455q82 -88 190.5 -138t225.5 -50q389 0 559 442l98 -49q-82 -244 -248.5 -370t-408.5 -126q-309 0 -498 205 q-196 214 -196 533z" />
<glyph unicode="&#x421;" horiz-adv-x="1507" d="M76 709q0 324 196.5 530.5t497.5 206.5q322 0 496 -256v231h106v-454h-106q-113 377 -496 376q-250 0 -418 -178q-158 -170 -157 -448q0 -283 159 -455q82 -88 190.5 -138t225.5 -50q389 0 559 442l98 -49q-82 -244 -248.5 -370t-408.5 -126q-309 0 -498 205 q-196 214 -196 533z" />
<glyph unicode="&#xd2;" horiz-adv-x="1251" d="M84 887v534h1081v-534h-94v440h-383v-1233h215v-94h-551v94h213v1233h-387v-440h-94z" />
<glyph unicode="&#x422;" horiz-adv-x="1251" d="M84 887v534h1081v-534h-94v440h-383v-1233h215v-94h-551v94h213v1233h-387v-440h-94z" />
<glyph unicode="&#xd3;" horiz-adv-x="1122" d="M-117 1327v94h471v-94h-170l336 -919l430 919h-196v94h473v-94h-158l-534 -1130q-63 -133 -119 -179.5t-144 -46.5q-37 0 -64.5 2t-57.5 11v106q49 -14 106 -14t92 25.5t72 99.5l29 55l-392 1071h-174z" />
<glyph unicode="&#x423;" horiz-adv-x="1122" d="M-117 1327v94h471v-94h-170l336 -919l430 919h-196v94h473v-94h-158l-534 -1130q-63 -133 -119 -179.5t-144 -46.5q-37 0 -64.5 2t-57.5 11v106q49 -14 106 -14t92 25.5t72 99.5l29 55l-392 1071h-174z" />
<glyph unicode="&#xd4;" horiz-adv-x="1433" d="M53 717q0 219 133 350q143 141 412 141h55v119h-176v94h475v-94h-176v-119h55q268 0 412 -141q133 -131 133 -350q0 -221 -135 -352q-147 -141 -418 -142h-47v-119h176v-104h-475v104h176v119h-47q-270 0 -416 139q-137 132 -137 355zM172 717q0 -184 100 -285 q111 -111 332 -110h49v792h-53q-215 0 -326 -113q-102 -104 -102 -284zM776 322h49q221 0 332 110q100 100 100 285q0 182 -100 284q-111 113 -328 113h-53v-792z" />
<glyph unicode="&#x424;" horiz-adv-x="1433" d="M53 717q0 219 133 350q143 141 412 141h55v119h-176v94h475v-94h-176v-119h55q268 0 412 -141q133 -131 133 -350q0 -221 -135 -352q-147 -141 -418 -142h-47v-119h176v-104h-475v104h176v119h-47q-270 0 -416 139q-137 132 -137 355zM172 717q0 -184 100 -285 q111 -111 332 -110h49v792h-53q-215 0 -326 -113q-102 -104 -102 -284zM776 322h49q221 0 332 110q100 100 100 285q0 182 -100 284q-111 113 -328 113h-53v-792z" />
<glyph unicode="&#xd5;" horiz-adv-x="1175" d="M-43 0v104h174l389 617l-377 606h-155v94h461v-94h-162l307 -491l313 491h-162v94h445v-94h-166l-371 -592l398 -631h163v-104h-469v104h160l-323 519l-332 -519h166v-104h-459z" />
<glyph unicode="&#x425;" horiz-adv-x="1175" d="M-43 0v104h174l389 617l-377 606h-155v94h461v-94h-162l307 -491l313 491h-162v94h445v-94h-166l-371 -592l398 -631h163v-104h-469v104h160l-323 519l-332 -519h166v-104h-459z" />
<glyph unicode="&#xd6;" horiz-adv-x="1435" d="M66 0v104h176v1223h-176v94h460v-94h-161v-1223h706v1223h-162v94h461v-94h-176v-1223h176v-436h-115v332h-1189z" />
<glyph unicode="&#x426;" horiz-adv-x="1435" d="M66 0v104h176v1223h-176v94h460v-94h-161v-1223h706v1223h-162v94h461v-94h-176v-1223h176v-436h-115v332h-1189z" />
<glyph unicode="&#xd7;" horiz-adv-x="1435" d="M66 1327v94h460v-94h-161v-268q0 -199 88 -271q72 -59 258 -59q131 0 209.5 7t150.5 32v559h-162v94h461v-94h-176v-1223h176v-104h-461v104h162v566q-74 -25 -167 -35t-218 -10q-240 0 -342 96t-102 319v287h-176z" />
<glyph unicode="&#x427;" horiz-adv-x="1435" d="M66 1327v94h460v-94h-161v-268q0 -199 88 -271q72 -59 258 -59q131 0 209.5 7t150.5 32v559h-162v94h461v-94h-176v-1223h176v-104h-461v104h162v566q-74 -25 -167 -35t-218 -10q-240 0 -342 96t-102 319v287h-176z" />
<glyph unicode="&#xd8;" horiz-adv-x="1933" d="M66 0v104h176v1223h-176v94h460v-94h-161v-1223h544v1223h-161v94h450v-94h-166v-1223h545v1223h-162v94h461v-94h-176v-1223h176v-104h-1810z" />
<glyph unicode="&#x428;" horiz-adv-x="1933" d="M66 0v104h176v1223h-176v94h460v-94h-161v-1223h544v1223h-161v94h450v-94h-166v-1223h545v1223h-162v94h461v-94h-176v-1223h176v-104h-1810z" />
<glyph unicode="&#xd9;" horiz-adv-x="1933" d="M66 0v104h176v1223h-176v94h460v-94h-161v-1223h544v1223h-161v94h450v-94h-166v-1223h545v1223h-162v94h461v-94h-176v-1223h176v-436h-115v332h-1695z" />
<glyph unicode="&#x429;" horiz-adv-x="1933" d="M66 0v104h176v1223h-176v94h460v-94h-161v-1223h544v1223h-161v94h450v-94h-166v-1223h545v1223h-162v94h461v-94h-176v-1223h176v-436h-115v332h-1695z" />
<glyph unicode="&#xda;" horiz-adv-x="1333" d="M31 1018v403h667v-94h-161v-516h247q260 0 378 -97.5t118 -299.5q0 -211 -128 -312.5t-359 -101.5h-555l2 104h174v1223h-287v-309h-96zM537 713v-609h235q195 0 287 68q104 76 104 248q0 154 -100 223.5t-299 69.5h-227z" />
<glyph unicode="&#x42a;" horiz-adv-x="1333" d="M31 1018v403h667v-94h-161v-516h247q260 0 378 -97.5t118 -299.5q0 -211 -128 -312.5t-359 -101.5h-555l2 104h174v1223h-287v-309h-96zM537 713v-609h235q195 0 287 68q104 76 104 248q0 154 -100 223.5t-299 69.5h-227z" />
<glyph unicode="&#xdb;" horiz-adv-x="1742" d="M66 0l2 104h174v1223h-176v94h460v-94h-161v-516h247q260 0 378 -97.5t118 -299.5q0 -211 -128 -312.5t-359 -101.5h-555zM365 713v-609h235q195 0 287 68q104 76 104 248q0 154 -100 223.5t-299 69.5h-227zM1206 0v104h176v1223h-176v94h475v-94h-176v-1223h176v-104 h-475z" />
<glyph unicode="&#x42b;" horiz-adv-x="1742" d="M66 0l2 104h174v1223h-176v94h460v-94h-161v-516h247q260 0 378 -97.5t118 -299.5q0 -211 -128 -312.5t-359 -101.5h-555zM365 713v-609h235q195 0 287 68q104 76 104 248q0 154 -100 223.5t-299 69.5h-227zM1206 0v104h176v1223h-176v94h475v-94h-176v-1223h176v-104 h-475z" />
<glyph unicode="&#xdc;" horiz-adv-x="1161" d="M66 0l2 104h174v1223h-176v94h460v-94h-161v-516h247q260 0 378 -97.5t118 -299.5q0 -211 -128 -312.5t-359 -101.5h-555zM365 713v-609h235q195 0 287 68q104 76 104 248q0 154 -100 223.5t-299 69.5h-227z" />
<glyph unicode="&#x42c;" horiz-adv-x="1161" d="M66 0l2 104h174v1223h-176v94h460v-94h-161v-516h247q260 0 378 -97.5t118 -299.5q0 -211 -128 -312.5t-359 -101.5h-555zM365 713v-609h235q195 0 287 68q104 76 104 248q0 154 -100 223.5t-299 69.5h-227z" />
<glyph unicode="&#xdd;" horiz-adv-x="1507" d="M80 467q82 -244 249 -370t408 -126q309 0 498 205q197 213 197 533q0 324 -197 530.5t-498 206.5q-322 0 -495 -256v231h-107v-454h107q113 377 495 376q250 0 418 -178q133 -141 154 -352h-664v-100h668q0 -279 -160 -451q-82 -88 -190.5 -138t-225.5 -50 q-389 0 -559 442z" />
<glyph unicode="&#x42d;" horiz-adv-x="1507" d="M80 467q82 -244 249 -370t408 -126q309 0 498 205q197 213 197 533q0 324 -197 530.5t-498 206.5q-322 0 -495 -256v231h-107v-454h107q113 377 495 376q250 0 418 -178q133 -141 154 -352h-664v-100h668q0 -279 -160 -451q-82 -88 -190.5 -138t-225.5 -50 q-389 0 -559 442z" />
<glyph unicode="&#xde;" horiz-adv-x="2150" d="M66 0v104h176v1223h-176v94h460v-94h-161v-514h327q14 129 61.5 233.5t129.5 190.5q199 209 497 209q311 0 503 -208t192 -529q0 -319 -192.5 -528.5t-502 -209.5t-497.5 205q-197 213 -197 533l-321 4v-609h161v-104h-460zM805 717q0 -283 158 -453q84 -90 192.5 -140 t224.5 -50q121 0 226.5 48t191.5 142q160 172 160 453q0 276 -160 451t-418 175q-252 0 -417 -178q-158 -169 -158 -448z" />
<glyph unicode="&#x42e;" horiz-adv-x="2150" d="M66 0v104h176v1223h-176v94h460v-94h-161v-514h327q14 129 61.5 233.5t129.5 190.5q199 209 497 209q311 0 503 -208t192 -529q0 -319 -192.5 -528.5t-502 -209.5t-497.5 205q-197 213 -197 533l-321 4v-609h161v-104h-460zM805 717q0 -283 158 -453q84 -90 192.5 -140 t224.5 -50q121 0 226.5 48t191.5 142q160 172 160 453q0 276 -160 451t-418 175q-252 0 -417 -178q-158 -169 -158 -448z" />
<glyph unicode="&#xdf;" horiz-adv-x="1148" d="M-41 0v104h141l297 519q-162 0 -252 116q-82 106 -82 269q0 205 129.5 309t358.5 104h555v-94h-176v-1223h176v-104h-461l2 104h160v506h-285l-352 -610h-211zM182 1001q0 -139 70 -206q88 -86 297 -86h258v618h-227q-193 0 -295.5 -77t-102.5 -249z" />
<glyph unicode="&#x42f;" horiz-adv-x="1148" d="M-41 0v104h141l297 519q-162 0 -252 116q-82 106 -82 269q0 205 129.5 309t358.5 104h555v-94h-176v-1223h176v-104h-461l2 104h160v506h-285l-352 -610h-211zM182 1001q0 -139 70 -206q88 -86 297 -86h258v618h-227q-193 0 -295.5 -77t-102.5 -249z" />
<glyph unicode="&#xe0;" horiz-adv-x="1017" d="M61 303q0 135 97.5 222t253.5 87q150 0 325 -86v121q0 152 -60.5 220.5t-201.5 68.5q-205 0 -299 -170l-96 29q104 229 395 229q205 0 290 -93t85 -310v-527h158v-94h-271v141q-82 -82 -166 -119.5t-188 -37.5q-141 0 -231.5 88t-90.5 231zM176 297q0 -102 60.5 -162.5 t166.5 -60.5q158 0 334 157v201q-182 96 -311 96q-115 0 -182.5 -61t-67.5 -170z" />
<glyph unicode="&#x430;" horiz-adv-x="1017" d="M61 303q0 135 97.5 222t253.5 87q150 0 325 -86v121q0 152 -60.5 220.5t-201.5 68.5q-205 0 -299 -170l-96 29q104 229 395 229q205 0 290 -93t85 -310v-527h158v-94h-271v141q-82 -82 -166 -119.5t-188 -37.5q-141 0 -231.5 88t-90.5 231zM176 297q0 -102 60.5 -162.5 t166.5 -60.5q158 0 334 157v201q-182 96 -311 96q-115 0 -182.5 -61t-67.5 -170z" />
<glyph unicode="&#xe1;" horiz-adv-x="1052" d="M70 598q0 332 110 506q127 197 420 225q109 0 168 27q43 18 80 65h106q-37 -80 -90 -115.5t-104 -50t-162 -24.5q-190 -18 -293.5 -117.5t-128.5 -308.5q37 92 133.5 155.5t216.5 63.5q205 0 331 -142.5t126 -383.5q0 -240 -127 -383.5t-330 -143.5q-456 0 -456 627z M184 500q0 -207 85 -315.5t257 -108.5q158 0 250 111.5t92 312t-91 312.5t-251 112q-158 0 -250 -111.5t-92 -312.5z" />
<glyph unicode="&#x431;" horiz-adv-x="1052" d="M70 598q0 332 110 506q127 197 420 225q109 0 168 27q43 18 80 65h106q-37 -80 -90 -115.5t-104 -50t-162 -24.5q-190 -18 -293.5 -117.5t-128.5 -308.5q37 92 133.5 155.5t216.5 63.5q205 0 331 -142.5t126 -383.5q0 -240 -127 -383.5t-330 -143.5q-456 0 -456 627z M184 500q0 -207 85 -315.5t257 -108.5q158 0 250 111.5t92 312t-91 312.5t-251 112q-158 0 -250 -111.5t-92 -312.5z" />
<glyph unicode="&#xe2;" horiz-adv-x="950" d="M41 0v94h149v811h-149v94h504q141 0 221 -65.5t80 -179.5q0 -74 -44 -131.5t-110 -77.5q96 -16 155.5 -84t59.5 -166q0 -119 -73 -201q-86 -94 -248 -94h-545zM305 94h250q111 0 176.5 49.5t65.5 147.5q0 100 -67.5 149t-180.5 49h-244v-395zM305 584h240q92 0 143 43 t51 118q0 86 -56 123t-165 37h-213v-321z" />
<glyph unicode="&#x432;" horiz-adv-x="950" d="M41 0v94h149v811h-149v94h504q141 0 221 -65.5t80 -179.5q0 -74 -44 -131.5t-110 -77.5q96 -16 155.5 -84t59.5 -166q0 -119 -73 -201q-86 -94 -248 -94h-545zM305 94h250q111 0 176.5 49.5t65.5 147.5q0 100 -67.5 149t-180.5 49h-244v-395zM305 584h240q92 0 143 43 t51 118q0 86 -56 123t-165 37h-213v-321z" />
<glyph unicode="&#xe3;" horiz-adv-x="901" d="M41 0h410v94h-146v811h459v-248h94v342h-817v-94h149v-811h-149v-94z" />
<glyph unicode="&#x433;" horiz-adv-x="901" d="M41 0h410v94h-146v811h459v-248h94v342h-817v-94h149v-811h-149v-94z" />
<glyph unicode="&#xe4;" horiz-adv-x="1187" d="M49 94h123q98 152 139 297.5t41 337.5v176h-170v94h965v-94h-150v-811h150v-426h-103v332h-892v-332h-103v426zM289 94h594v811h-428v-164q0 -199 -41 -350.5t-125 -296.5z" />
<glyph unicode="&#x434;" horiz-adv-x="1187" d="M49 94h123q98 152 139 297.5t41 337.5v176h-170v94h965v-94h-150v-811h150v-426h-103v332h-892v-332h-103v426zM289 94h594v811h-428v-164q0 -199 -41 -350.5t-125 -296.5z" />
<glyph unicode="&#xe5;" horiz-adv-x="1052" d="M70 498q0 240 127 383t329 143q205 0 331 -139.5t126 -374.5v-31h-799q0 -195 98.5 -299t276.5 -104q248 0 346 227l92 -39q-59 -141 -173.5 -217t-274.5 -76q-221 0 -350 139.5t-129 387.5zM188 573h676q0 160 -95 255.5t-242.5 95.5t-243 -95.5t-95.5 -255.5z" />
<glyph unicode="&#x435;" horiz-adv-x="1052" d="M70 498q0 240 127 383t329 143q205 0 331 -139.5t126 -374.5v-31h-799q0 -195 98.5 -299t276.5 -104q248 0 346 227l92 -39q-59 -141 -173.5 -217t-274.5 -76q-221 0 -350 139.5t-129 387.5zM188 573h676q0 160 -95 255.5t-242.5 95.5t-243 -95.5t-95.5 -255.5z" />
<glyph unicode="&#xe6;" horiz-adv-x="1466" d="M0 0h188l486 506l-412 399h103v94h-336v-94h100l406 -389l-404 -422h-131v-94zM526 0v94h148v811h-148v94h410v-94h-148v-811h148v-94h-410zM788 506l412 399h-102v94h336v-94h-101l-405 -389l403 -422h131v-94h-188z" />
<glyph unicode="&#x436;" horiz-adv-x="1466" d="M0 0h188l486 506l-412 399h103v94h-336v-94h100l406 -389l-404 -422h-131v-94zM526 0v94h148v811h-148v94h410v-94h-148v-811h148v-94h-410zM788 506l412 399h-102v94h336v-94h-101l-405 -389l403 -422h131v-94h-188z" />
<glyph unicode="&#xe7;" horiz-adv-x="921" d="M68 264l94 39q41 -113 108 -168q76 -63 195 -63q145 0 212.5 57t67.5 162q0 94 -73.5 146t-184.5 52h-102v95h102q225 0 226 190q0 70 -65.5 110t-160.5 40q-113 0 -183.5 -70t-92.5 -182h-92v325h92v-133q57 86 134 123t163 37q129 0 222 -65.5t93 -180.5 q0 -92 -49 -153.5t-127 -81.5q78 -10 141 -74q72 -72 72 -178q0 -152 -92 -232q-102 -88 -315 -88q-152 0 -250 82q-86 72 -135 211z" />
<glyph unicode="&#x437;" horiz-adv-x="921" d="M68 264l94 39q41 -113 108 -168q76 -63 195 -63q145 0 212.5 57t67.5 162q0 94 -73.5 146t-184.5 52h-102v95h102q225 0 226 190q0 70 -65.5 110t-160.5 40q-113 0 -183.5 -70t-92.5 -182h-92v325h92v-133q57 86 134 123t163 37q129 0 222 -65.5t93 -180.5 q0 -92 -49 -153.5t-127 -81.5q78 -10 141 -74q72 -72 72 -178q0 -152 -92 -232q-102 -88 -315 -88q-152 0 -250 82q-86 72 -135 211z" />
<glyph unicode="&#xe8;" horiz-adv-x="1071" d="M41 0v94h149v811h-149v94h410v-94h-146v-768l453 862h282v-94h-137v-811h137v-94h-393v94h141v764l-456 -858h-291z" />
<glyph unicode="&#x438;" horiz-adv-x="1071" d="M41 0v94h149v811h-149v94h410v-94h-146v-768l453 862h282v-94h-137v-811h137v-94h-393v94h141v764l-456 -858h-291z" />
<glyph unicode="&#xe9;" horiz-adv-x="1071" d="M41 0v94h149v811h-149v94h410v-94h-146v-768l453 862h282v-94h-137v-811h137v-94h-393v94h141v764l-456 -858h-291zM305 1370h80q0 -154 195 -153q193 0 192 153h82q0 -133 -70.5 -197.5t-203.5 -64.5q-127 0 -201 65.5t-74 196.5z" />
<glyph unicode="&#x439;" horiz-adv-x="1071" d="M41 0v94h149v811h-149v94h410v-94h-146v-768l453 862h282v-94h-137v-811h137v-94h-393v94h141v764l-456 -858h-291zM305 1370h80q0 -154 195 -153q193 0 192 153h82q0 -133 -70.5 -197.5t-203.5 -64.5q-127 0 -201 65.5t-74 196.5z" />
<glyph unicode="&#xea;" horiz-adv-x="1013" d="M33 0v94h147v811h-147v94h409v-94h-147v-811h147v-94h-409zM295 506l457 399h-125v94h366v-94h-108l-451 -389l443 -422h137v-94h-195z" />
<glyph unicode="&#x43a;" horiz-adv-x="1013" d="M33 0v94h147v811h-147v94h409v-94h-147v-811h147v-94h-409zM295 506l457 399h-125v94h366v-94h-108l-451 -389l443 -422h137v-94h-195z" />
<glyph unicode="&#xeb;" horiz-adv-x="1099" d="M-45 6l45 92q35 -29 96 -28q137 0 189 172q37 125 37 411v252h-148v94h895v-94h-137v-811h137v-94h-393v94h141v811h-393v-272q0 -336 -68 -490q-76 -172 -256 -172q-84 0 -145 35z" />
<glyph unicode="&#x43b;" horiz-adv-x="1099" d="M-45 6l45 92q35 -29 96 -28q137 0 189 172q37 125 37 411v252h-148v94h895v-94h-137v-811h137v-94h-393v94h141v811h-393v-272q0 -336 -68 -490q-76 -172 -256 -172q-84 0 -145 35z" />
<glyph unicode="&#xec;" horiz-adv-x="1361" d="M43 0v94h150v811h-150l2 94h301l342 -831l348 831h295v-94h-137v-811h137v-94h-393v94h141v758l-366 -852h-66l-352 848v-754h137v-94h-389z" />
<glyph unicode="&#x43c;" horiz-adv-x="1361" d="M43 0v94h150v811h-150l2 94h301l342 -831l348 831h295v-94h-137v-811h137v-94h-393v94h141v758l-366 -852h-66l-352 848v-754h137v-94h-389z" />
<glyph unicode="&#xed;" horiz-adv-x="1071" d="M41 0v94h149v811h-149v94h410v-94h-146v-321h483v321h-141v94h393v-94h-137v-811h137v-94h-393v94h141v395h-483v-395h146v-94h-410z" />
<glyph unicode="&#x43d;" horiz-adv-x="1071" d="M41 0v94h149v811h-149v94h410v-94h-146v-321h483v321h-141v94h393v-94h-137v-811h137v-94h-393v94h141v395h-483v-395h146v-94h-410z" />
<glyph unicode="&#xee;" horiz-adv-x="1052" d="M70 498q0 240 127 383t329 143q205 0 331 -142.5t126 -383.5q0 -240 -127 -383.5t-330 -143.5q-205 0 -330.5 142.5t-125.5 384.5zM184 499.5q0 -200.5 91.5 -312t250.5 -111.5q158 0 250 111.5t92 312t-91 312.5t-251 112q-158 0 -250 -112t-92 -312.5z" />
<glyph unicode="&#x43e;" horiz-adv-x="1052" d="M70 498q0 240 127 383t329 143q205 0 331 -142.5t126 -383.5q0 -240 -127 -383.5t-330 -143.5q-205 0 -330.5 142.5t-125.5 384.5zM184 499.5q0 -200.5 91.5 -312t250.5 -111.5q158 0 250 111.5t92 312t-91 312.5t-251 112q-158 0 -250 -112t-92 -312.5z" />
<glyph unicode="&#xef;" horiz-adv-x="1071" d="M41 0v94h149v811h-149v94h999v-94h-137v-811h137v-94h-393v94h141v811h-483v-811h146v-94h-410z" />
<glyph unicode="&#x43f;" horiz-adv-x="1071" d="M41 0v94h149v811h-149v94h999v-94h-137v-811h137v-94h-393v94h141v811h-483v-811h146v-94h-410z" />
<glyph unicode="&#xf0;" horiz-adv-x="1177" d="M43 -238h154v1143h-154v96h254v-210q127 211 358 210q199 0 323 -140t124 -376q0 -233 -124 -373.5t-323 -140.5q-205 0 -350 187v-396h148v-94h-410v94zM299 485q0 -195 96.5 -307t251.5 -112q158 0 250 110.5t92 308.5q0 197 -93 308.5t-253 111.5q-162 0 -253 -109.5 t-91 -310.5z" />
<glyph unicode="&#x440;" horiz-adv-x="1177" d="M43 -238h154v1143h-154v96h254v-210q127 211 358 210q199 0 323 -140t124 -376q0 -233 -124 -373.5t-323 -140.5q-205 0 -350 187v-396h148v-94h-410v94zM299 485q0 -195 96.5 -307t251.5 -112q158 0 250 110.5t92 308.5q0 197 -93 308.5t-253 111.5q-162 0 -253 -109.5 t-91 -310.5z" />
<glyph unicode="&#xf1;" horiz-adv-x="1042" d="M70 498q0 240 127 383t329 143q215 0 351 -180v155h96v-356h-96q-98 281 -336 281q-166 0 -261.5 -112t-95.5 -312q0 -205 97.5 -316.5t273.5 -111.5q250 0 350 231l92 -39q-59 -141 -173.5 -217t-274.5 -76q-221 0 -350 139.5t-129 387.5z" />
<glyph unicode="&#x441;" horiz-adv-x="1042" d="M70 498q0 240 127 383t329 143q215 0 351 -180v155h96v-356h-96q-98 281 -336 281q-166 0 -261.5 -112t-95.5 -312q0 -205 97.5 -316.5t273.5 -111.5q250 0 350 231l92 -39q-59 -141 -173.5 -217t-274.5 -76q-221 0 -350 139.5t-129 387.5z" />
<glyph unicode="&#xf2;" horiz-adv-x="987" d="M41 616h94v289h301v-811h-149v-94h409v94h-145v811h301v-289h94v383h-905v-383z" />
<glyph unicode="&#x442;" horiz-adv-x="987" d="M41 616h94v289h301v-811h-149v-94h409v94h-145v811h301v-289h94v383h-905v-383z" />
<glyph unicode="&#xf3;" horiz-adv-x="915" d="M-45 905v94h410v-94h-152l268 -672l244 672h-162v94h395v-94h-127l-448 -1237h-299v94h225l111 310l-334 833h-131z" />
<glyph unicode="&#x443;" horiz-adv-x="915" d="M-45 905v94h410v-94h-152l268 -672l244 672h-162v94h395v-94h-127l-448 -1237h-299v94h225l111 310l-334 833h-131z" />
<glyph unicode="&#xf4;" horiz-adv-x="1243" d="M53 498q0 233 142.5 379.5t371.5 146.5v303h-153v96h262v-399q227 0 370.5 -147.5t143.5 -378.5q0 -244 -137.5 -385.5t-376.5 -141.5v-209h147v-94h-409v94h153v209q-240 0 -377 141.5t-137 385.5zM168 498q0 -201 104.5 -313.5t294.5 -112.5v852q-180 0 -289.5 -113.5 t-109.5 -312.5zM676 924v-852q188 0 293.5 111.5t105.5 314.5q0 195 -109.5 310.5t-289.5 115.5z" />
<glyph unicode="&#x444;" horiz-adv-x="1243" d="M53 498q0 233 142.5 379.5t371.5 146.5v303h-153v96h262v-399q227 0 370.5 -147.5t143.5 -378.5q0 -244 -137.5 -385.5t-376.5 -141.5v-209h147v-94h-409v94h153v209q-240 0 -377 141.5t-137 385.5zM168 498q0 -201 104.5 -313.5t294.5 -112.5v852q-180 0 -289.5 -113.5 t-109.5 -312.5zM676 924v-852q188 0 293.5 111.5t105.5 314.5q0 195 -109.5 310.5t-289.5 115.5z" />
<glyph unicode="&#xf5;" horiz-adv-x="915" d="M-43 0v94h149l291 402l-311 409h-109v94h390v-94h-142l238 -321l231 321h-151v94h391v-94h-125l-287 -399l309 -412h125v-94h-413v94h153l-241 322l-236 -322h148v-94h-410z" />
<glyph unicode="&#x445;" horiz-adv-x="915" d="M-43 0v94h149l291 402l-311 409h-109v94h390v-94h-142l238 -321l231 321h-151v94h391v-94h-125l-287 -399l309 -412h125v-94h-413v94h153l-241 322l-236 -322h148v-94h-410z" />
<glyph unicode="&#xf6;" horiz-adv-x="1071" d="M41 0v94h137v811h-137v94h393v-94h-141v-811h483v811h-145v94h409v-94h-149v-811h149v-426h-102v332h-897z" />
<glyph unicode="&#x446;" horiz-adv-x="1071" d="M41 0v94h137v811h-137v94h393v-94h-141v-811h483v811h-145v94h409v-94h-149v-811h149v-426h-102v332h-897z" />
<glyph unicode="&#xf7;" horiz-adv-x="1095" d="M49 905v94h393v-94h-137v-133q0 -131 39 -180t143 -49q106 0 169 11t128 40v311h-141v94h393v-94h-137v-809h137v-96h-393v96h141v400q-80 -29 -146.5 -39.5t-176.5 -10.5q-145 0 -208 80t-63 236v143h-141z" />
<glyph unicode="&#x447;" horiz-adv-x="1095" d="M49 905v94h393v-94h-137v-133q0 -131 39 -180t143 -49q106 0 169 11t128 40v311h-141v94h393v-94h-137v-809h137v-96h-393v96h141v400q-80 -29 -146.5 -39.5t-176.5 -10.5q-145 0 -208 80t-63 236v143h-141z" />
<glyph unicode="&#xf8;" horiz-adv-x="1626" d="M41 0v94h137v811h-137v96h395v-96h-143v-811h459v811h-138v96h394v-96h-142v-811h459v811h-145v96h409v-96h-149v-811h149v-94h-1548z" />
<glyph unicode="&#x448;" horiz-adv-x="1626" d="M41 0v94h137v811h-137v96h395v-96h-143v-811h459v811h-138v96h394v-96h-142v-811h459v811h-145v96h409v-96h-149v-811h149v-94h-1548z" />
<glyph unicode="&#xf9;" horiz-adv-x="1626" d="M41 0v94h137v811h-137v96h395v-96h-143v-811h459v811h-138v96h394v-96h-142v-811h459v811h-145v96h409v-96h-149v-811h149v-426h-102v332h-1446z" />
<glyph unicode="&#x449;" horiz-adv-x="1626" d="M41 0v94h137v811h-137v96h395v-96h-143v-811h459v811h-138v96h394v-96h-142v-811h459v811h-145v96h409v-96h-149v-811h149v-426h-102v332h-1446z" />
<glyph unicode="&#xfa;" horiz-adv-x="1079" d="M35 694v305h563v-94h-145v-321h260q156 0 237 -88q74 -78 74 -201t-74 -203q-86 -92 -248 -92h-514v94h150v811h-209v-211h-94zM453 94h219q242 0 241 197q0 102 -58 150t-169 48h-233v-395z" />
<glyph unicode="&#x44a;" horiz-adv-x="1079" d="M35 694v305h563v-94h-145v-321h260q156 0 237 -88q74 -78 74 -201t-74 -203q-86 -92 -248 -92h-514v94h150v811h-209v-211h-94zM453 94h219q242 0 241 197q0 102 -58 150t-169 48h-233v-395z" />
<glyph unicode="&#xfb;" horiz-adv-x="1382" d="M41 905v94h410v-94h-146v-321h260q156 0 238 -88q74 -78 74 -201t-74 -203q-86 -92 -248 -92h-514v94h149v811h-149zM305 94h219q242 0 242 197q0 102 -58.5 150t-168.5 48h-234v-395zM932 0v94h149v811h-149v94h409v-94h-145v-811h145v-94h-409z" />
<glyph unicode="&#x44b;" horiz-adv-x="1382" d="M41 905v94h410v-94h-146v-321h260q156 0 238 -88q74 -78 74 -201t-74 -203q-86 -92 -248 -92h-514v94h149v811h-149zM305 94h219q242 0 242 197q0 102 -58.5 150t-168.5 48h-234v-395zM932 0v94h149v811h-149v94h409v-94h-145v-811h145v-94h-409z" />
<glyph unicode="&#xfc;" horiz-adv-x="931" d="M41 905v94h410v-94h-146v-321h260q156 0 238 -88q74 -78 74 -201t-74 -203q-86 -92 -248 -92h-514v94h149v811h-149zM305 94h219q242 0 242 197q0 102 -58.5 150t-168.5 48h-234v-395z" />
<glyph unicode="&#x44c;" horiz-adv-x="931" d="M41 905v94h410v-94h-146v-321h260q156 0 238 -88q74 -78 74 -201t-74 -203q-86 -92 -248 -92h-514v94h149v811h-149zM305 94h219q242 0 242 197q0 102 -58.5 150t-168.5 48h-234v-395z" />
<glyph unicode="&#xfd;" horiz-adv-x="1042" d="M70 264q59 -141 173.5 -217t274.5 -76q221 0 350 139.5t129 387.5q0 240 -127 383t-329 143q-215 0 -351 -180v155h-96v-356h96q98 281 336 281q147 0 239.5 -88t113.5 -252h-430v-95h434q0 -199 -99.5 -308t-271.5 -109q-250 0 -350 231z" />
<glyph unicode="&#x44d;" horiz-adv-x="1042" d="M70 264q59 -141 173.5 -217t274.5 -76q221 0 350 139.5t129 387.5q0 240 -127 383t-329 143q-215 0 -351 -180v155h-96v-356h96q98 281 336 281q147 0 239.5 -88t113.5 -252h-430v-95h434q0 -199 -99.5 -308t-271.5 -109q-250 0 -350 231z" />
<glyph unicode="&#xfe;" horiz-adv-x="1492" d="M39 0v94h154v811h-142v94h393v-94h-137v-321h207q25 203 147.5 321.5t305.5 118.5q205 0 330.5 -142.5t125.5 -383.5q0 -240 -127 -383.5t-329.5 -143.5t-329.5 141.5t-127 376.5h-203v-395h142v-94h-410zM625 499.5q0 -200.5 91 -312t251 -111.5q158 0 250 111.5t92 312 t-91.5 312.5t-250.5 112q-158 0 -250 -112t-92 -312.5z" />
<glyph unicode="&#x44e;" horiz-adv-x="1492" d="M39 0v94h154v811h-142v94h393v-94h-137v-321h207q25 203 147.5 321.5t305.5 118.5q205 0 330.5 -142.5t125.5 -383.5q0 -240 -127 -383.5t-329.5 -143.5t-329.5 141.5t-127 376.5h-203v-395h142v-94h-410zM625 499.5q0 -200.5 91 -312t251 -111.5q158 0 250 111.5t92 312 t-91.5 312.5t-250.5 112q-158 0 -250 -112t-92 -312.5z" />
<glyph unicode="&#xff;" horiz-adv-x="925" d="M-35 0v94h137l226 322q-135 12 -205 92t-70 197q0 123 74 202q86 92 248 92h514v-94h-150v-811h150v-94h-410v94h146v322h-170l-291 -416h-199zM164 709q0 -102 58.5 -150.5t168.5 -48.5h234v395h-219q-242 1 -242 -196z" />
<glyph unicode="&#x44f;" horiz-adv-x="925" d="M-35 0v94h137l226 322q-135 12 -205 92t-70 197q0 123 74 202q86 92 248 92h514v-94h-150v-811h150v-94h-410v94h146v322h-170l-291 -416h-199zM164 709q0 -102 58.5 -150.5t168.5 -48.5h234v395h-219q-242 1 -242 -196z" />
<glyph unicode="&#x152;" horiz-adv-x="2783" d="M76 709q0 322 197.5 529.5t496.5 207.5q311 0 502.5 -208t191.5 -529q0 -319 -192.5 -528.5t-501.5 -209.5t-498 205q-196 214 -196 533zM195 717q0 -283 157 -453q84 -90 192.5 -140t225.5 -50q121 0 226.5 48t191.5 142q160 172 160 453q0 276 -160 451t-418 175 q-252 0 -418 -178q-157 -169 -157 -448zM1606 0v104h176v1223h-176v94h1110v-393h-95v299h-716v-530h561v-95h-561v-598h716v332h95v-436h-1110z" />
<glyph unicode="&#x153;" horiz-adv-x="2105" d="M70 498q0 240 127 383t329 143q205 0 331 -142.5t126 -383.5q0 -240 -127 -383.5t-330 -143.5q-205 0 -330.5 142.5t-125.5 384.5zM184 499.5q0 -200.5 91.5 -312t250.5 -111.5q158 0 250 111.5t92 312t-91 312.5t-251 112q-158 0 -250 -112t-92 -312.5zM1122 498 q0 240 127 383t330 143q205 0 331 -139.5t126 -374.5v-31h-799q0 -195 98.5 -299t276.5 -104q248 0 346 227l92 -39q-59 -141 -174 -217t-274 -76q-221 0 -350.5 139.5t-129.5 387.5zM1241 573h676q0 160 -95.5 255.5t-242.5 95.5t-242.5 -95.5t-95.5 -255.5z" />
<glyph unicode="&#x178;" horiz-adv-x="1095" d="M-104 1327v94h491v-94h-174l346 -569l354 569h-196v94h473v-94h-158l-418 -672v-551h191v-104h-502v104h189v543l-422 680h-174zM-12 1569v104h176v1223h-176v94h1110v-393h-94v299h-717v-531h561v-94h-561v-598h717v332h94v-436h-1110zM373 3283q0 37 26.5 63.5 t63.5 26.5t61.5 -26.5t24.5 -63.5q0 -39 -24.5 -63.5t-61.5 -24.5t-63.5 24.5t-26.5 63.5zM694 3283q0 37 27 63.5t63 26.5q35 0 61.5 -26.5t26.5 -63.5q0 -39 -24.5 -63.5t-63.5 -24.5q-37 0 -63.5 24.5t-26.5 63.5z" />
<glyph unicode="&#x2c6;" horiz-adv-x="1024" d="M236 1135l200 350h152l200 -350h-92l-184 262l-184 -262h-92z" />
<glyph unicode="&#x2dc;" horiz-adv-x="1024" d="M223 1192q45 184 195 184q31 0 53 -8l96 -33q10 -4 29.5 -6t26.5 -2q66 0 96 72h82q-53 -182 -191 -182q-29 0 -65 10l-96 30q-25 8 -54 9q-59 0 -92 -74h-80z" />
<glyph unicode="&#x2013;" horiz-adv-x="1024" d="M0 463v94h1024v-94h-1024z" />
<glyph unicode="&#x2014;" horiz-adv-x="2048" d="M0 463v94h2048v-94h-2048z" />
<glyph unicode="&#x2018;" horiz-adv-x="497" d="M180 969v282q0 195 119 195h14l-2 -92q-47 -20 -47 -70v-113h33v-202h-117z" />
<glyph unicode="&#x2019;" horiz-adv-x="497" d="M184 944v92q47 20 47 72v111h-32v202h116v-282q0 -195 -116 -195h-15z" />
<glyph unicode="&#x201a;" horiz-adv-x="497" d="M168 -182q47 20 47 71v111h-33v205h117v-285q0 -195 -117 -194h-14v92z" />
<glyph unicode="&#x201c;" horiz-adv-x="753" d="M180 969v282q0 195 119 195h14l-2 -92q-47 -20 -47 -70v-113h33v-202h-117zM436 969v282q0 195 119 195h14l-2 -92q-47 -20 -47 -70v-113h33v-202h-117z" />
<glyph unicode="&#x201d;" horiz-adv-x="753" d="M186 944v92q47 20 47 72v111h-30v202h116v-282q0 -195 -118 -195h-15zM442 944v92q47 20 47 72v111h-30v202h116v-282q0 -195 -118 -195h-15z" />
<glyph unicode="&#x201e;" horiz-adv-x="753" d="M158 -182q47 20 47 71v111h-33v205h117v-285q0 -195 -117 -194h-14v92zM414 -182q47 20 47 71v111h-33v205h117v-285q0 -195 -117 -194h-14v92z" />
<glyph unicode="&#x2022;" horiz-adv-x="1208" d="M307 762q0 123 86 209t211 86q123 0 209 -86t86 -209q0 -121 -86 -209t-211 -88q-123 0 -209 86t-86 211z" />
<glyph unicode="&#x2026;" horiz-adv-x="2048" d="M-4 0v205h117v-205h-117zM678 0v205h117v-205h-117zM1362 0v205h117v-205h-117z" />
<glyph unicode="&#x2039;" horiz-adv-x="530" d="M70 506l260 311h129l-258 -311l258 -313h-129z" />
<glyph unicode="&#x203a;" horiz-adv-x="530" d="M72 193l258 313l-258 311h127l262 -311l-262 -313h-127z" />
<glyph unicode="&#x2122;" d="M274 1403v51h420v-51h-174v-479h-67v479h-179zM825 924v530h101l174 -440l162 440h102v-530h-59v479l-181 -479h-49l-190 479v-479h-60z" />
<glyph unicode="&#xe000;" horiz-adv-x="1000" d="M0 1000h1000v-1000h-1000v1000z" />
<glyph unicode="&#xfb01;" horiz-adv-x="1017" d="M49 0v94h156v811h-156v94h156v107q0 178 52 260t179 82q184 0 213 -219l-92 -19q-25 150 -119 150q-74 0 -96.5 -56.5t-22.5 -201.5v-103h170v-94h-170v-811h170v-94h-440zM571 0v94h154v811h-154v94h265v-905h145v-94h-410zM688 1370q0 31 20.5 53.5t53.5 22.5 q31 0 53.5 -22.5t22.5 -53.5q0 -33 -21.5 -54.5t-54.5 -21.5t-53.5 20.5t-20.5 55.5z" />
<glyph unicode="&#xfb02;" horiz-adv-x="1028" d="M49 0v94h156v811h-156v94h156v107q0 178 52 260t179 82q184 0 213 -219l-92 -19q-25 150 -119 150q-74 0 -96.5 -56.5t-22.5 -201.5v-103h170v-94h-170v-811h170v-94h-440zM563 0v94h148v1233h-148v94h262v-1327h148v-94h-410z" />
<glyph unicode="&#xfb03;" horiz-adv-x="1548" d="M49 0v94h156v811h-156v94h156v107q0 178 52 260t179 82q184 0 213 -219l-92 -19q-25 150 -119 150q-74 0 -96.5 -56.5t-22.5 -201.5v-103h170v-94h-170v-811h170v-94h-440zM580 0v94h155v811h-155v94h155v107q0 178 52.5 260t179.5 82q184 0 213 -219l-93 -19 q-25 150 -118 150q-74 0 -96.5 -56.5t-22.5 -201.5v-103h170v-94h-170v-811h170v-94h-440zM1102 0v94h153v811h-153v94h264v-905h145v-94h-409zM1219 1370q0 31 20.5 53.5t52.5 22.5q31 0 53.5 -22.5t22.5 -53.5q0 -33 -21.5 -54.5t-54 -21.5t-53 20.5t-20.5 55.5z" />
<glyph unicode="&#xfb04;" horiz-adv-x="1558" d="M49 0v94h156v811h-156v94h156v107q0 178 52 260t179 82q184 0 213 -219l-92 -19q-25 150 -119 150q-74 0 -96.5 -56.5t-22.5 -201.5v-103h170v-94h-170v-811h170v-94h-440zM580 0v94h155v811h-155v94h155v107q0 178 52.5 260t179.5 82q184 0 213 -219l-93 -19 q-25 150 -118 150q-74 0 -96.5 -56.5t-22.5 -201.5v-103h170v-94h-170v-811h170v-94h-440zM1094 0v94h147v1233h-147v94h262v-1327h147v-94h-409z" />
</font>
</defs>
</svg>
